<svg width="121" height="130" viewBox="0 0 121 130" fill="none" xmlns="http://www.w3.org/2000/svg">
<path d="M105.887 23.9305L75.6743 23.8636L53.1203 59.3449L37.9392 59.4118L60.466 23.7968L45.4209 0.227273L15.0451 0L0.0816156 23.6765L15.1675 47.4733L30.2806 47.4465L7.713 82.7941L15.2083 94.8262L0 118.155L7.56335 130L30.1718 94.7995L22.7853 82.9412L30.3486 71.2433L45.5705 71.2299L30.3078 94.8262H45.3529L68.1382 59.3449L75.7015 71.2299L106.064 71.1631L121 47.5267L105.887 23.9305ZM22.7037 35.6684L15.1539 23.7567L22.7717 11.9652L37.8712 12.0722L45.4209 23.8904L37.844 35.6684H22.7037ZM98.4324 59.3583L83.3057 59.3449L75.6879 47.5L83.3057 35.6551H98.3372L105.968 47.4599L98.4324 59.3583Z" fill="white"/>
</svg>
