<svg width="98" height="131" viewBox="0 0 98 131" fill="none" xmlns="http://www.w3.org/2000/svg">
<path d="M7.70617 35.6698H7.69264V35.6563L30.107 0L75.1794 0.121097H75.3283L97.9729 35.8312H98L75.2336 71.5414L45.2078 71.5279L45.1808 71.4876L45.1536 71.5279L45.0859 71.6356L7.59784 131L0 119.106L30.0934 71.5818L30.2018 71.4068L37.6913 59.5662H37.7183L37.7048 59.5528L67.7034 59.6066L82.8585 35.8312L67.7847 12.0693L67.7982 12.0559H67.7711L37.8132 11.9886H37.6642L37.6506 11.9617L37.6371 11.9886L37.5558 12.1097L22.6581 35.7102V35.7236L37.7048 59.5528L37.6913 59.5662H22.5768" fill="white"/>
</svg>
