<svg width="1247" height="452" viewBox="0 0 1247 452" fill="none" xmlns="http://www.w3.org/2000/svg">
<path d="M591.001 148.5L729.5 10L759.5 77L874.5 10L918 70L1016 10L1055 26.5L1135 8L1218.5 77H1246.5V214L1199.5 190L1135 295.5L1071 285L1001.5 425.5L902 242L811.5 342.5L771.5 252L650.5 452L612.501 224L526.501 378L437.001 296L293.001 401L204.001 265L140.501 434L41.501 70L163.001 0L279.001 112L514.501 51L591.001 148.5Z" fill="#0019A8"/>
<rect x="296.509" y="167.001" width="18" height="367.508" transform="rotate(90 296.509 167.001)" fill="#0019A8"/>
</svg>
