<svg width="1474" height="452" viewBox="0 0 1474 452" fill="none" xmlns="http://www.w3.org/2000/svg">
<path d="M818.001 148.5L956.5 10L986.5 77L1101.5 10L1145 70L1243 10L1282 26.5L1362 8L1445.5 77H1473.5V214L1426.5 190L1362 295.5L1298 285L1228.5 425.5L1129 242L1038.5 342.5L998.5 252L877.5 452L839.501 224L753.501 378L664.001 296L520.001 401L431.001 265L367.501 434L268.501 70L390.001 0L506.001 112L741.501 51L818.001 148.5Z" fill="#0019A8"/>
<rect x="367.509" y="167.001" width="18" height="367.508" transform="rotate(90 367.509 167.001)" fill="#0019A8"/>
</svg>
