<svg width="236" height="66" viewBox="0 0 236 66" fill="none" xmlns="http://www.w3.org/2000/svg">
<path d="M118.485 0H96.6247L67.1646 47.0703L78.2031 65.0972L99.4839 65.0248L129.933 17.6046L118.485 0ZM81.9549 58.3643L75.0665 47.1065L100.34 6.72086H114.841L121.935 17.6287L95.8044 58.316L81.9549 58.3643Z" fill="white"/>
<path d="M32.0748 34.6032L0 34.6275L4.31524 27.8945H36.3745L32.0748 34.6032Z" fill="white"/>
<path d="M172.267 0L149.102 0.36399L138.679 17.5684L149.717 35.5954L173.16 35.2314L183.311 17.5443L172.267 0ZM153.469 28.8624L146.581 17.6046L152.818 7.08485L168.624 6.72086L175.312 17.5684L168.624 28.4502L153.469 28.8624Z" fill="white"/>
<path d="M87.1624 0.097168L46.326 65.3513H38.3759L59.5119 31.59L44.1183 48.2414L34.4551 48.2173L79.6225 0.097168H87.1624Z" fill="white"/>
<path d="M235.472 16.6654L228.153 16.6892L221.809 6.19001H207.92L183.748 48.9631L190.758 59.7956L204.1 59.7361L207.896 65.9142L187.342 65.9976L176.44 48.9512L204.516 0H225.225L235.472 16.6654Z" fill="white"/>
</svg>
