<svg width="173" height="472" viewBox="0 0 173 472" fill="none" xmlns="http://www.w3.org/2000/svg">
<rect x="77" y="339" width="18" height="133" fill="#2542E6"/>
<path d="M87.2522 196C59.171 263.586 17.3836 289.494 0 294H173C124.059 279.582 95.4425 222.659 87.2522 196Z" fill="#2542E6"/>
<path d="M87.2522 98C59.171 165.586 17.3836 191.494 0 196H173C124.059 181.582 95.4425 124.659 87.2522 98Z" fill="#2542E5"/>
<path d="M87.2522 0C59.171 67.5862 17.3836 93.4943 0 98H173C124.059 83.5816 95.4425 26.659 87.2522 0Z" fill="#2542E6"/>
<path d="M87.2522 294C59.171 360.207 17.3836 385.586 0 390H173C124.059 375.876 95.4425 320.115 87.2522 294Z" fill="#2542E6"/>
</svg>
