<svg width="459" height="67" viewBox="0 0 459 67" fill="none" xmlns="http://www.w3.org/2000/svg">
<path d="M415.32 1.58643L403.518 19.9692L412.221 33.887L371.307 66.4013H381.779L417.671 37.8889H417.682L429.069 37.9008L410.642 66.4013H418.834L459 1.59828L415.32 1.58643ZM418.335 31.3813L411.224 20.0167L418.882 8.09402L447.875 8.1059L433.2 31.3813H418.335Z" fill="white"/>
<path d="M381.778 66.402H371.306L371.294 66.4139H381.778L417.67 37.8896L381.778 66.402Z" fill="white"/>
<path d="M399.551 1.38477L361.408 66.6674H353.877L374.383 29.8938L341.377 66.5841L313.209 66.4769L351.292 1.67057H358.882L325.366 59.9987L338.53 60.0225L392.34 1.38477H399.551Z" fill="white"/>
<path d="M340.333 1.16797L336.498 7.65183H316.053L279.021 66.2322H271.363L308.371 7.65183H287.819L291.369 1.16797H340.333Z" fill="white"/>
<path d="M281.346 1.01172L240.123 66.4085H232.37L273.581 1.01172H281.346Z" fill="white"/>
<path d="M218.065 29.4908L190.567 28.8377L207.546 1.16846L199.484 1.39409L168.923 49.3224L179.169 65.5796L220.214 65.9715L230.733 49.7262L218.065 29.4908ZM216.795 59.0482L183.384 58.8463L177.246 49.1087L186.459 35.4759L214.729 35.8916L223.218 49.4768L216.795 59.0482Z" fill="white"/>
<path d="M168.47 7.59295L172.518 1.51284L131.758 1.16846L101.186 49.1443L111.432 65.3921L152.465 65.3658L163.02 49.5243L149.888 29.2889L122.438 28.8258L135.653 7.46232L168.47 7.59295ZM155.481 49.2868L149.045 59.0601L115.647 59.2763L109.497 48.9068L118.52 35.2859L146.991 35.7016L155.481 49.2868Z" fill="white"/>
<path d="M101.363 0.332031H80.7451L49.9727 48.6087L60.8265 65.6147L80.8754 65.5317L111.044 16.2581L101.363 0.332031ZM103.768 16.2581L77.4629 59.3843L64.2154 59.4318L57.2481 48.6206L84.134 6.49122L97.962 6.50309L103.768 16.2581Z" fill="white"/>
<path d="M61.7157 16.9573L54.4138 16.9811L48.0855 6.50714H34.2297L7.29001 48.6641L14.2832 59.4706L27.5927 59.4112L31.3802 65.5744L10.8756 65.6576L0 48.6523L30.8341 0.332031H51.493L61.7157 16.9573Z" fill="white"/>
</svg>
