<svg width="885" height="157" viewBox="0 0 885 157" fill="none" xmlns="http://www.w3.org/2000/svg">
<path d="M269.912 124.739L278.727 109.347L269.867 94.5L251.447 94.5777L223.068 139.398L232.417 154.878L269.079 154.978L278.905 139.808L269.912 124.739ZM254.512 100.441L266.57 100.397L271.843 109.181L265.015 120.83L241.966 120.43L254.512 100.441ZM236.381 148.959L230.23 139.187L238.302 126.46L263.949 126.849L271.899 139.575L265.859 149.092L236.381 148.959Z" fill="white"/>
<path d="M203.419 100.863L190.151 121.807L208.881 121.73L205.106 127.726L186.353 127.793L173.063 148.759L206.638 149.214L202.763 155.167L162.071 154.689L200.11 94.9109L241.457 94.5L237.76 100.486L203.419 100.863Z" fill="white"/>
<path d="M547.112 100.863L533.844 121.807L552.575 121.73L548.8 127.726L530.047 127.793L516.757 148.759L550.332 149.214L546.457 155.167L505.765 154.689L543.803 94.9109L585.151 94.5L581.453 100.486L547.112 100.863Z" fill="white"/>
<path d="M479.851 94.5L444.144 155.378H437.093L456.29 121.085L425.391 155.3L399.021 155.2L434.673 94.7665H441.779L410.402 149.159L422.726 149.181L473.1 94.5H479.851Z" fill="white"/>
<path d="M74.8793 96.5703L74.8682 96.5926H75.1349V96.5703H74.8793Z" fill="white"/>
<path d="M76.8544 93.4724L76.8322 93.5168L39.3154 93.4502V93.4724H38.7159L0 154.272H7.28351L42.1023 99.5802L72.924 99.6357L38.1385 154.272H45.4332L84.149 93.4724H76.8544ZM75.1335 96.5929H74.867L74.8781 96.5707H75.1335V96.5929Z" fill="white"/>
<path d="M75.1349 96.5703V96.5926H74.8682L74.8793 96.5703H75.1349Z" fill="white"/>
<path d="M622.803 94.1104L584.565 155.188H577.337L598.122 121.984L566.945 155.188H558.551L615.897 94.1104H622.803Z" fill="white"/>
<path d="M331.046 93.8438H311.727L282.893 139.019L293.063 154.932L311.849 154.855L340.117 108.747L331.046 93.8438ZM333.3 108.747L308.651 149.102L296.238 149.147L289.71 139.03L314.902 99.6073L327.859 99.6184L333.3 108.747Z" fill="white"/>
<path d="M190.596 94.8906L187.01 100.954H167.891L133.261 155.735H126.1L160.707 100.954H141.488L144.808 94.8906H190.596Z" fill="white"/>
<path d="M534.289 94.8906L530.703 100.954H511.583L476.953 155.735H469.792L504.4 100.954H485.181L488.5 94.8906H534.289Z" fill="white"/>
<path d="M129.907 94.291L112.387 122.087H97.0427L89.5705 110.227L99.7851 94.291H92.4905L82.3091 110.193L93.6563 128.217L108.523 128.228L95.0886 149.538H65.5104L61.1914 156.035H98.2307L137.169 94.291H129.907ZM112.576 127.651V128.228H112.209L112.576 127.651Z" fill="white"/>
<path d="M112.209 128.229H112.576V127.651L112.209 128.229Z" fill="white"/>
<path d="M112.577 127.65V128.229H112.21L112.577 127.65Z" fill="white"/>
<path d="M112.21 128.229H112.577V127.65L112.21 128.229Z" fill="white"/>
<path d="M652.991 121.59L627.288 120.979L644.398 94.4491L636.948 94.3047L607.036 140.135L616.618 155.729L655.012 155.705L664.838 140.513L652.991 121.59ZM651.803 149.23L620.559 149.433L614.819 139.936L623.424 127.187L649.871 127.576L657.81 140.28L651.803 149.23Z" fill="white"/>
<path d="M401.795 94.8906L395.655 94.9017L353.009 135.435L328.249 136.035L341.55 155.824L348.701 155.646L339.963 141.543L355.385 141.51V141.521L363.612 141.487L373.438 141.454H373.616L389.482 141.365L380.377 155.546L387.75 155.524L400.829 135.224L375.059 135.368L401.795 94.8906ZM367.764 135.391L362.168 135.402L377.424 121.176L367.764 135.391Z" fill="white"/>
<path d="M363.612 141.486L363.601 141.509L373.438 141.453L363.612 141.486Z" fill="white"/>
<path d="M783.592 2.73828L724.924 63.0275L733.295 63.0608L746.486 49.6237L753.592 49.657L745.098 63.1052L752.259 63.1274L760.742 49.6792L760.853 49.5126L790.353 2.76049L783.592 2.73828ZM757.411 43.6048L752.426 43.5826L766.415 29.3348L757.411 43.6048Z" fill="white"/>
<path d="M760.741 49.6791H760.853V49.5117L760.741 49.6791Z" fill="white"/>
<path d="M623.545 3.2041L587.838 64.0818H580.788L599.985 29.7895L569.085 64.0041L542.716 63.9042L578.367 3.47062H585.473L554.096 57.863L566.421 57.8852L616.795 3.2041H623.545Z" fill="white"/>
<path d="M885 3.2041L849.293 64.0818H842.243L861.44 29.7895L830.54 64.0041L804.171 63.9042L839.822 3.47062H846.928L815.551 57.863L827.876 57.8852L878.25 3.2041H885Z" fill="white"/>
<path d="M829.104 2.3457L790.866 63.4233H783.638L804.422 30.2193L773.245 63.4233H764.852L822.198 2.3457H829.104Z" fill="white"/>
<path d="M643.305 34.9291L651.798 48.455L641.906 63.8688L597.916 63.7911L602.057 57.7833L638.619 57.8832L644.726 48.6105L635.977 34.2961L660.858 9.69852L632.824 9.80957L636.976 3.8906L674.693 3.80176L643.305 34.9291Z" fill="white"/>
<path d="M728.089 2.73828L721.949 2.74939L679.302 43.2827L654.543 43.8824L667.844 63.6715L674.995 63.4939L666.257 49.3905L681.679 49.3572V49.3683L689.906 49.335L699.732 49.3016H699.91L715.776 49.2128L706.671 63.3939L714.044 63.3717L727.123 43.0717L701.353 43.2161L728.089 2.73828ZM694.058 43.2383L688.462 43.2494L703.718 29.0239L694.058 43.2383Z" fill="white"/>
<path d="M689.906 49.3341L689.895 49.3563L699.732 49.3008L689.906 49.3341Z" fill="white"/>
<path d="M524.781 2.98145L486.232 64.1368H478.981L517.52 2.98145H524.781Z" fill="white"/>
<path d="M467.069 29.2237L441.355 28.613L457.232 2.73828L449.693 2.94928L421.114 47.7691L430.696 63.3629L469.079 63.3384L478.916 48.1467L467.069 29.2237ZM465.881 56.8641L434.638 57.0664L428.897 47.5692L437.513 34.8207L463.949 35.2094L471.888 47.9135L465.881 56.8641Z" fill="white"/>
<path d="M437 2.07811L398.721 63.4532H391.483L415.954 23.7491L372.983 64L382.822 19.3301L354.282 63.0515H347L385.746 2H392.951L382.833 47.5292L430.129 2.07811H437Z" fill="white"/>
<path d="M297.837 0.78125L262.13 61.659H255.08L274.277 27.3667L243.377 61.5812L217.008 61.4813L252.659 1.04777H259.765L228.388 55.4402L240.713 55.4624L291.086 0.78125H297.837Z" fill="white"/>
<path d="M179.098 0.783203L120.43 61.0724L128.801 61.1057L141.992 47.6686L149.097 47.7019L140.604 61.1501L147.765 61.1723L156.248 47.7241L156.359 47.5576L185.859 0.805412L179.098 0.783203ZM152.917 41.6497L147.932 41.6275L161.921 27.3797L152.917 41.6497Z" fill="white"/>
<path d="M156.247 47.725H156.359V47.5576L156.247 47.725Z" fill="white"/>
<path d="M108.936 15.6134L102.107 15.6356L96.1895 5.84102H83.2324L58.0399 45.2639L64.5795 55.3694L77.0258 55.3139L80.5677 61.0774L61.3929 61.1551L51.2227 45.2527L80.0569 0.0664062H99.376L108.936 15.6134Z" fill="white"/>
<path d="M161.483 0L157.897 6.06334H138.778L104.148 60.8444H96.9863L131.594 6.06334H112.375L115.695 0H161.483Z" fill="white"/>
<path d="M242.405 0.389648L238.819 6.45299H219.7L185.07 61.2341H177.908L212.516 6.45299H193.297L196.617 0.389648H242.405Z" fill="white"/>
<path d="M23.8045 26.4532L23.582 26.609L23.76 26.3086L23.8045 26.4532Z" fill="white"/>
<path d="M26.9262 24.377L26.8242 24.445L26.9035 24.3203L26.9262 24.377Z" fill="white"/>
<path d="M23.7597 26.3081L23.582 26.6079L23.8041 26.4525L23.7597 26.3081ZM26.4577 27.8406L26.4022 27.9406L26.4799 27.885L26.4577 27.8406ZM26.9018 24.3203L26.8241 24.4425L26.924 24.3758L26.9018 24.3203Z" fill="white"/>
<path d="M26.4819 27.8853L26.4023 27.9422L26.4592 27.8398L26.4819 27.8853Z" fill="white"/>
<path d="M23.8045 26.4532L23.582 26.609L23.76 26.3086L23.8045 26.4532Z" fill="white"/>
<path d="M26.4819 27.8853L26.4023 27.9422L26.4592 27.8398L26.4819 27.8853Z" fill="white"/>
<path d="M26.9262 24.377L26.8242 24.445L26.9035 24.3203L26.9262 24.377Z" fill="white"/>
<path d="M26.4819 27.8853L26.4023 27.9422L26.4592 27.8398L26.4819 27.8853Z" fill="white"/>
<path d="M26.9272 24.376L26.8252 24.444L26.9045 24.3193L26.9272 24.376Z" fill="white"/>
<path d="M23.7607 26.3071L23.583 26.607L23.8051 26.4515L23.7607 26.3071ZM26.9028 24.3193L26.8251 24.4415L26.925 24.3749L26.9028 24.3193Z" fill="white"/>
<path d="M71.1586 0H60.844L34.952 17.2239L45.8106 0H38.5382L22.0948 26.1079V26.119L15.0111 37.3462L0 61.1553H7.26131L24.5597 33.7037L33.4864 61.1553L40.67 61.0776L29.5671 27.6626L71.1586 0ZM23.5826 26.6076L23.7603 26.3078L23.8047 26.4521L23.5826 26.6076ZM26.4027 27.9402L26.4583 27.8403L26.4805 27.8847L26.4027 27.9402ZM26.8247 24.4421L26.9024 24.32L26.9246 24.3755L26.8247 24.4421Z" fill="white"/>
<path d="M278.788 55.1299L275.66 60.8046H282.307L285.631 55.1299H278.788Z" fill="white"/>
<path d="M285.238 55.1318L274.485 73.3136H281.914L292.472 55.1318H285.238Z" fill="white"/>
</svg>
