<svg width="515" height="156" viewBox="0 0 515 156" fill="none" xmlns="http://www.w3.org/2000/svg">
<path d="M473.066 93.1855L461.914 110.557L470.138 123.709L431.474 154.435H441.37L475.288 127.491H475.299L486.059 127.502L468.645 154.435H476.387L514.344 93.1967L473.066 93.1855ZM475.916 121.341L469.195 110.602L476.432 99.3352L503.831 99.3464L489.963 121.341H475.916Z" fill="white"/>
<path d="M453.727 108.989L446.746 109.011L440.696 99.0707H427.45L401.696 139.082L408.381 149.338L421.105 149.282L424.726 155.131L405.124 155.21L394.727 139.07L424.204 93.21H443.954L453.727 108.989Z" fill="white"/>
<path d="M377.947 119.77L351.973 119.153L367.939 93.3314L360.411 93.1855L331.508 138.511L340.991 154.244H379.989L389.919 138.893L377.947 119.77ZM376.747 147.702L344.974 147.881L339.373 138.309L348.069 125.426L374.794 125.819L382.817 138.657L376.747 147.702Z" fill="white"/>
<path d="M349.664 92.791L346.04 98.9182H326.72L291.725 154.276H284.488L319.46 98.9182H300.039L303.394 92.791H349.664Z" fill="white"/>
<path d="M242.946 92L221.403 92.0898L182.942 153.541H189.857L206.346 127.585L243.349 127.708L254.536 109.843L242.946 92ZM239.624 98.0935L247.344 109.877L239.995 121.626L210.15 121.525L224.781 98.1496L239.624 98.0935Z" fill="white"/>
<path d="M189.824 97.8205L193.7 92H154.521L125.254 137.927L135.33 153.456H174.344L184.448 138.291L171.877 118.92L144.798 118.476L158.249 98.0251L189.824 97.8205ZM177.231 138.064L171.07 147.42L139.364 147.602L132.81 137.7L141.048 124.661L169.104 125.059L177.231 138.064Z" fill="white"/>
<path d="M125.315 92H105.792L76.6543 137.651L86.9316 153.732L105.916 153.653L134.481 107.06L125.315 92ZM127.592 107.06L102.684 147.84L90.1405 147.885L83.5433 137.662L109.001 97.8242L122.095 97.8354L127.592 107.06Z" fill="white"/>
<path d="M74.3202 92L68.1156 92.0112L25.0202 132.971L0 133.577L13.4414 153.575L20.6669 153.395L11.8369 139.143L27.4213 139.11V139.121L35.7352 139.087L45.6647 139.054H45.8442L61.8774 138.964L52.6771 153.294L60.1271 153.272L73.344 132.758L47.3028 132.904L74.3202 92ZM39.9314 132.926L34.2766 132.938L49.6926 118.562L39.9314 132.926Z" fill="white"/>
<path d="M35.7351 139.088L35.7239 139.11L45.6646 139.054L35.7351 139.088Z" fill="white"/>
<path d="M105.12 0.790039L45.834 61.714L54.2937 61.7477L67.6229 48.1691L74.8036 48.2028L66.2204 61.7926L73.4572 61.815L82.0292 48.2252L82.1414 48.0569L111.952 0.812481L105.12 0.790039ZM78.6632 42.0868L73.6255 42.0644L87.7625 27.6666L78.6632 42.0868Z" fill="white"/>
<path d="M290.037 92.79L230.751 153.714L239.211 153.748L252.54 140.169L259.721 140.203L251.138 153.793L258.375 153.815L266.947 140.225L267.059 140.057L296.87 92.8125L290.037 92.79ZM263.581 134.087L258.543 134.064L272.68 119.667L263.581 134.087Z" fill="white"/>
<path d="M24.0554 26.7313L23.8306 26.8887L24.0105 26.5851L24.0554 26.7313Z" fill="white"/>
<path d="M27.2095 24.6336L27.1069 24.702L27.1867 24.5767L27.2095 24.6336Z" fill="white"/>
<path d="M24.0101 26.5852L23.8306 26.8881L24.055 26.731L24.0101 26.5852ZM26.7365 28.1338L26.6804 28.2348L26.7589 28.1787L26.7365 28.1338ZM27.1853 24.5764L27.1068 24.6999L27.2077 24.6325L27.1853 24.5764Z" fill="white"/>
<path d="M26.7608 28.1796L26.6807 28.2368L26.7379 28.1338L26.7608 28.1796Z" fill="white"/>
<path d="M24.0554 26.7313L23.8306 26.8887L24.0105 26.5851L24.0554 26.7313Z" fill="white"/>
<path d="M26.7608 28.1796L26.6807 28.2368L26.7379 28.1338L26.7608 28.1796Z" fill="white"/>
<path d="M27.2095 24.6336L27.1069 24.702L27.1867 24.5767L27.2095 24.6336Z" fill="white"/>
<path d="M26.761 28.1793L26.6809 28.2365L26.7381 28.1335L26.761 28.1793Z" fill="white"/>
<path d="M27.2097 24.6325L27.1072 24.7009L27.1869 24.5756L27.2097 24.6325Z" fill="white"/>
<path d="M24.0106 26.5843L23.8311 26.8873L24.0555 26.7302L24.0106 26.5843ZM27.1858 24.5756L27.1072 24.699L27.2082 24.6317L27.1858 24.5756Z" fill="white"/>
<path d="M71.9079 0H61.4847L35.32 17.4052L46.293 0H38.944L22.3275 26.3828V26.394L15.1692 37.7394L0 61.7993H7.33777L24.8183 34.0586L33.839 61.7993L41.0982 61.7208L29.8784 27.9539L71.9079 0ZM23.8309 26.8878L24.0104 26.5848L24.0553 26.7307L23.8309 26.8878ZM26.6808 28.2344L26.7369 28.1334L26.7593 28.1783L26.6808 28.2344ZM27.1071 24.6995L27.1857 24.5761L27.2081 24.6322L27.1071 24.6995Z" fill="white"/>
<path d="M110.192 27.1258L109.967 27.2832L110.147 26.9796L110.192 27.1258Z" fill="white"/>
<path d="M113.346 25.028L113.243 25.0964L113.323 24.9711L113.346 25.028Z" fill="white"/>
<path d="M110.147 26.9801L109.967 27.283L110.192 27.1259L110.147 26.9801ZM112.873 28.5287L112.817 28.6297L112.896 28.5736L112.873 28.5287ZM113.322 24.9713L113.243 25.0948L113.344 25.0274L113.322 24.9713Z" fill="white"/>
<path d="M112.897 28.574L112.817 28.6312L112.874 28.5282L112.897 28.574Z" fill="white"/>
<path d="M110.192 27.1258L109.967 27.2832L110.147 26.9796L110.192 27.1258Z" fill="white"/>
<path d="M112.897 28.574L112.817 28.6312L112.874 28.5282L112.897 28.574Z" fill="white"/>
<path d="M113.346 25.028L113.243 25.0964L113.323 24.9711L113.346 25.028Z" fill="white"/>
<path d="M112.897 28.5739L112.817 28.6311L112.874 28.5281L112.897 28.5739Z" fill="white"/>
<path d="M113.346 25.0271L113.243 25.0954L113.323 24.9701L113.346 25.0271Z" fill="white"/>
<path d="M110.147 26.9788L109.967 27.2818L110.192 27.1247L110.147 26.9788ZM113.322 24.9701L113.243 25.0935L113.344 25.0262L113.322 24.9701Z" fill="white"/>
<path d="M158.044 0.394531H147.621L121.456 17.7998L132.429 0.394531H125.08L108.464 26.7773V26.7886L101.305 38.134L86.1362 62.1938H93.474L110.954 34.4532L119.975 62.1938L127.234 62.1153L116.015 28.3484L158.044 0.394531ZM109.967 27.2823L110.147 26.9793L110.192 27.1252L109.967 27.2823ZM112.817 28.629L112.873 28.528L112.896 28.5729L112.817 28.629ZM113.243 25.094L113.322 24.9706L113.344 25.0267L113.243 25.094Z" fill="white"/>
</svg>
