<svg width="543" height="159" viewBox="0 0 543 159" fill="none" xmlns="http://www.w3.org/2000/svg">
<path d="M344.887 101.677L331.306 123.115L350.478 123.035L346.614 129.173L327.419 129.241L315.017 151.102L347.782 151.168L344.216 157.26L303.766 157.172L341.5 95.5846L383.822 95.1641L380.037 101.291L344.887 101.677Z" fill="white"/>
<path d="M447.791 95.644L408.663 158.161H401.264L426.278 117.718L382.354 158.718L392.412 113.217L363.239 157.752H355.795L395.4 95.5645H402.765L392.423 141.941L440.768 95.644H447.791Z" fill="white"/>
<path d="M252.182 93L230.217 93.0916L191 155.794L197.624 156L214.864 129.309L252.594 129.435L264 111.206L252.182 93ZM248.796 99.2175L256.667 111.24L249.173 123.229L218.743 123.126L233.661 99.2748L248.796 99.2175Z" fill="white"/>
<path d="M60.0957 125.218V125.809H59.7207L60.0957 125.218Z" fill="white"/>
<path d="M59.7207 125.809H60.0957V125.218L59.7207 125.809Z" fill="white"/>
<path d="M78.6654 93.1641L60.8913 121.092L29.3433 121.035L47.0833 93.1641H39.6282L21.8881 121.024L0 155.397H7.4665L25.3543 127.31L56.9023 127.355L39.0486 155.397H46.5037L86.1319 93.1641H78.6654ZM60.0957 125.809H59.7207L60.0957 125.218V125.809Z" fill="white"/>
<path d="M60.0957 125.218V125.809H59.7207L60.0957 125.218Z" fill="white"/>
<path d="M59.7207 125.809H60.0957V125.218L59.7207 125.809Z" fill="white"/>
<path d="M376.188 1.11426L372.517 7.32048H352.947L317.501 63.3924H310.171L345.594 7.32048H325.922L329.32 1.11426H376.188Z" fill="white"/>
<path d="M501.191 1.51172L489.895 19.1074L498.225 32.4291L459.062 63.5512H469.086L503.441 36.2597H503.452L514.351 36.2711L496.713 63.5512H504.555L543.001 1.52306L501.191 1.51172ZM504.077 30.0308L497.27 19.1528L504.6 7.74065L532.352 7.75203L518.306 30.0308H504.077Z" fill="white"/>
<path d="M469.089 63.5527H459.065L459.054 63.5641H469.089L503.444 36.2612L469.089 63.5527Z" fill="white"/>
<path d="M403.233 28.4404L376.924 27.8153L393.096 1.66047L385.47 1.5127L356.195 47.4228L366.003 63.3841L405.302 63.3589L415.359 47.8093L403.233 28.4404ZM402.017 56.7322L370.037 56.9391L364.162 47.2182L372.969 34.1693L400.04 34.5671L408.165 47.5706L402.017 56.7322Z" fill="white"/>
<path d="M277.592 16.2259L270.603 16.2486L264.546 6.22318H251.284L225.497 46.575L232.191 56.9187L244.931 56.8618L248.556 62.7612L228.929 62.8407L218.52 46.5636L248.033 0.3125H267.808L277.592 16.2259Z" fill="white"/>
<path d="M479.703 17.0257L472.714 17.0484L466.656 7.02299H453.394L427.608 47.3748L434.301 57.7185L447.041 57.6617L450.666 63.561L431.04 63.6405L420.63 47.3634L450.144 1.1123H469.918L479.703 17.0257Z" fill="white"/>
<path d="M236 0L199.334 63H192.094L211.807 27.5122L180.078 62.9196L153 62.8161L190.813 0.275811H198.11L164.686 56.5644L177.341 56.5874L229.068 0H236Z" fill="white"/>
<path d="M329 95L292.334 157H285.094L304.807 122.076L273.078 156.921L246 156.819L283.813 95.2714H291.11L257.686 150.667L270.341 150.689L322.068 95H329Z" fill="white"/>
<path d="M173.117 1.13503L173.094 1.1805L134.693 1.1123V1.13503H134.079L94.4512 63.3677H101.906L137.546 7.38672L169.094 7.44356L133.488 63.3677H140.955L180.583 1.13503H173.117ZM171.355 4.32908H171.082L171.094 4.30635H171.355V4.32908Z" fill="white"/>
<path d="M211.138 92.7854L211.115 92.8309L172.715 92.7627V92.7854H172.101L132.473 155.018H139.928L175.567 99.0371L207.115 99.0939L171.51 155.018H178.976L218.605 92.7854H211.138ZM209.377 95.9795H209.104L209.115 95.9567H209.377V95.9795Z" fill="white"/>
<path d="M115.281 1.1123L55.2305 62.8221L63.7993 62.8562L77.3004 49.1025L84.5737 49.1366L75.8799 62.9017L83.21 62.9244L91.8925 49.1594L92.0062 48.9889L122.202 1.13504L115.281 1.1123ZM88.4831 42.9418L83.3805 42.919L97.6998 28.3356L88.4831 42.9418Z" fill="white"/>
<path d="M117.682 93.5645L57.6318 155.274L66.2007 155.308L79.7018 141.555L86.9751 141.589L78.2812 155.354L85.6114 155.377L94.2939 141.612L94.4075 141.441L124.603 93.5872L117.682 93.5645ZM90.8845 135.394L85.7818 135.371L100.101 120.788L90.8845 135.394Z" fill="white"/>
<path d="M314.59 1.1123L254.54 62.8221L263.109 62.8562L276.61 49.1025L283.883 49.1366L275.189 62.9017L282.52 62.9244L291.202 49.1594L291.316 48.9889L321.511 1.13504L314.59 1.1123ZM287.793 42.9418L282.69 42.919L297.009 28.3356L287.793 42.9418Z" fill="white"/>
<path d="M46.4583 32.9741L55.1522 46.8188L45.0263 62.5958L0 62.5162L4.23896 56.3668L41.6624 56.4691L47.9129 46.9779L38.9577 32.3262L64.4256 7.149L35.7301 7.26267L39.9805 1.20421L78.5859 1.11328L46.4583 32.9741Z" fill="white"/>
</svg>
