<svg width="372" height="65" viewBox="0 0 372 65" fill="none" xmlns="http://www.w3.org/2000/svg">
<path d="M346.096 33.8403V34.4284H345.723L346.096 33.8403Z" fill="white"/>
<path d="M345.723 34.4284H346.096V33.8403L345.723 34.4284Z" fill="white"/>
<path d="M364.572 1.94824L346.887 29.7351L315.499 29.6785L333.149 1.94824H325.732L308.081 29.6672L286.304 63.8664H293.732L311.53 35.9213L342.918 35.9665L325.155 63.8664H332.572L372 1.94824H364.572ZM346.096 34.4284H345.723L346.096 33.8403V34.4284Z" fill="white"/>
<path d="M310 2.35547L273.334 64.3555H266.094L285.807 29.431L254.078 64.2763L227 64.1745L263.609 2.6269H270.906L238.686 58.022L251.341 58.0446L303.068 2.35547H310Z" fill="white"/>
<path d="M217.448 33.6481L226.098 47.4228L216.023 63.12L171.225 63.0408L175.442 56.9225L212.676 57.0243L218.895 47.5811L209.985 33.0035L235.325 7.95346L206.774 8.06655L211.003 2.03872L249.413 1.94824L217.448 33.6481Z" fill="white"/>
<path d="M171 2.35547L167.375 8.47227L148.11 8.48348L113.216 63.3555H106L144.743 2.36667L171 2.35547Z" fill="white"/>
<path d="M123.06 1.94824L63.3135 63.3462L71.839 63.3801L85.2719 49.6959L92.5084 49.7298L83.8585 63.4254L91.1516 63.448L99.7902 49.7525L99.9033 49.5828L129.946 1.97086L123.06 1.94824ZM96.3981 43.5663L91.3212 43.5437L105.568 29.0339L96.3981 43.5663Z" fill="white"/>
<path d="M191.55 1.94824L131.803 63.3462L140.328 63.3801L153.761 49.6959L160.998 49.7298L152.348 63.4254L159.641 63.448L168.279 49.7525L168.393 49.5828L198.436 1.97086L191.55 1.94824ZM164.887 43.5663L159.81 43.5437L174.057 29.0339L164.887 43.5663Z" fill="white"/>
<path d="M91.5311 0.434633L52.6007 62.6355H45.2398L70.1267 22.3972L26.4247 63.1897L36.4315 17.9187L7.40616 62.2284H0L39.4053 0.355469H46.7323L36.4428 46.4972L84.5433 0.434633H91.5311Z" fill="white"/>
</svg>
