<svg width="1010" height="829" viewBox="0 0 1010 829" fill="none" xmlns="http://www.w3.org/2000/svg">
<path d="M464.298 0L423.792 0.168794L351.472 115.717L363.687 116.097L395.48 66.9106L465.057 67.1427L486.091 33.5503L464.298 0ZM458.053 11.4577L472.568 33.6136L458.749 55.7061L402.632 55.5162L430.142 11.5632L458.053 11.4577Z" fill="white"/>
<path d="M357.609 14.5454L364.803 3.7418L292.377 3.12988L238.053 88.3771L256.26 116.504L329.17 117.201L347.925 89.0523L324.592 53.0966L274.149 52.2736L299.297 14.3133L357.609 14.5454ZM334.529 88.6303L323.094 105.996L263.749 105.638L252.821 87.9551L267.187 63.7525L319.445 64.491L334.529 88.6303Z" fill="white"/>
<path d="M237.814 0H201.106L146.317 85.838L165.642 116.075L201.338 115.928L255.05 28.3173L237.814 0ZM242.097 28.3173L195.262 104.998L171.676 105.082L159.271 85.8592L207.139 10.9513L231.759 10.9724L242.097 28.3173Z" fill="white"/>
<path d="M565.936 0H529.227L474.439 85.838L493.764 116.075L529.459 115.928L583.172 28.3173L565.936 0ZM570.218 28.3173L523.384 104.998L499.797 105.082L487.392 85.8592L535.261 10.9513L559.881 10.9724L570.218 28.3173Z" fill="white"/>
<path d="M139.745 0.449707L128.079 0.470808L47.0459 77.4887L0 78.6282L25.274 116.23L38.8603 115.892L22.2571 89.0942L51.5606 89.0309V89.052L67.1933 88.9887L85.864 88.9254H86.2015L116.349 88.7566L99.0495 115.702L113.058 115.66L137.91 77.0878L88.9441 77.3621L139.745 0.449707ZM75.0835 77.4043L64.4507 77.4254L93.4377 50.3953L75.0835 77.4043Z" fill="white"/>
<path d="M67.1935 88.9898L67.1724 89.032L85.8641 88.9265L67.1935 88.9898Z" fill="white"/>
<path d="M986.708 229.044L937.848 227.883L968.017 178.718L953.692 179.119L899.389 264.282L917.595 293.169L990.527 293.865L1009.22 264.999L986.708 229.044ZM984.451 281.564L925.085 281.205L914.177 263.902L930.549 239.678L980.78 240.417L995.864 264.556L984.451 281.564Z" fill="white"/>
<path d="M933.542 175.884L926.727 187.405H890.399L824.598 291.496H810.99L876.749 187.405H840.23L846.538 175.884H933.542Z" fill="white"/>
<path d="M689.838 232.715L706.589 203.469L689.754 175.257L654.754 175.405L600.831 260.568L618.595 289.982L688.256 290.172L706.927 261.349L689.838 232.715ZM660.577 186.546L683.488 186.462L693.509 203.153L680.535 225.287L636.738 224.528L660.577 186.546ZM626.126 278.736L614.438 260.167L629.776 235.985L678.51 236.724L693.615 260.905L682.138 278.989L626.126 278.736Z" fill="white"/>
<path d="M540.281 173.382L467.624 289.436H453.89L493.383 226.345L434.143 289.436H418.194L527.159 173.382H540.281Z" fill="white"/>
<path d="M454.612 173.357L343.137 287.913L359.044 287.976L384.107 262.445L397.609 262.508L381.47 288.061L395.077 288.103L411.195 262.55L411.406 262.234L467.46 173.399L454.612 173.357ZM404.866 251.008L395.393 250.966L421.975 223.893L404.866 251.008Z" fill="white"/>
<path d="M411.195 262.552H411.407V262.233L411.195 262.552Z" fill="white"/>
<path d="M816.551 175.025L705.075 289.581L720.982 289.644L746.045 264.112L759.547 264.176L743.408 289.729L757.016 289.771L773.133 264.218L773.344 263.901L829.399 175.067L816.551 175.025ZM766.804 252.676L757.332 252.634L783.914 225.561L766.804 252.676Z" fill="white"/>
<path d="M773.134 264.22H773.346V263.901L773.134 264.22Z" fill="white"/>
<path d="M303.872 218.999L303.914 219.105L304.084 218.85L303.872 218.999Z" fill="white"/>
<path d="M391.74 173.737H371.909L321.277 207.413L343.091 173.737H329.061L306.72 209.186L294.294 172.027H280.729L297.923 222.944L298.133 222.796L297.965 223.07L297.923 222.944L199.696 288.272H219.485L283.091 245.986L254.843 288.272H268.914L302.479 236.448L319.969 288.272H333.133L312.479 226.446L391.74 173.737ZM303.914 219.103L303.872 218.998L304.083 218.85L303.914 219.103ZM306.298 230.54L306.509 230.223L306.572 230.371L306.298 230.54Z" fill="white"/>
<path d="M298.134 222.795L297.964 223.071L297.922 222.944L298.134 222.795Z" fill="white"/>
<path d="M304.083 218.85L303.913 219.105L303.871 218.998L304.083 218.85Z" fill="white"/>
<path d="M306.574 230.372L306.298 230.542L306.51 230.223L306.574 230.372Z" fill="white"/>
<path d="M304.083 218.85L303.913 219.105L303.871 218.998L304.083 218.85Z" fill="white"/>
<path d="M306.574 230.372L306.298 230.542L306.51 230.223L306.574 230.372Z" fill="white"/>
<path d="M306.508 230.223L306.297 230.539L306.572 230.371L306.508 230.223ZM303.871 218.997L303.913 219.103L304.082 218.85L303.871 218.997ZM297.922 222.943L297.964 223.07L298.133 222.795L297.922 222.943Z" fill="white"/>
<path d="M142.277 176.81L142.255 176.852H142.764V176.81H142.277Z" fill="white"/>
<path d="M146.032 170.923L145.99 171.007L74.7038 170.88V170.923H73.5645L0 286.449H13.8395L79.9991 182.528L138.564 182.634L72.4675 286.449H86.3282L159.893 170.923H146.032V170.923ZM142.762 176.852H142.256L142.277 176.81H142.762V176.852Z" fill="white"/>
<path d="M142.764 176.81V176.852H142.255L142.277 176.81H142.764Z" fill="white"/>
<path d="M219.221 170.879H182.513L127.725 256.717L147.049 286.955L182.745 286.807L236.458 199.197L219.221 170.879ZM223.504 199.197L176.669 275.877L153.083 275.961L140.678 256.739L188.547 181.831L213.167 181.852L223.504 199.197Z" fill="white"/>
<path d="M601.426 172.549H564.718L509.929 258.387L529.254 288.624L564.95 288.477L618.662 200.866L601.426 172.549ZM605.709 200.866L558.874 277.546L535.288 277.631L522.883 258.408L570.751 183.5L595.371 183.521L605.709 200.866Z" fill="white"/>
<path d="M890.175 345.474L857.29 397.646H828.489L814.464 375.385L833.637 345.474H819.945L800.835 375.323L822.133 409.152L850.038 409.173L824.822 449.172H769.304L761.197 461.366H830.719L903.805 345.474H890.175V345.474ZM857.644 408.089V409.173H856.957L857.644 408.089Z" fill="white"/>
<path d="M856.956 409.173H857.644V408.089L856.956 409.173Z" fill="white"/>
<path d="M857.643 408.089V409.173H856.956L857.643 408.089Z" fill="white"/>
<path d="M856.956 409.173H857.643V408.089L856.956 409.173Z" fill="white"/>
<path d="M562.733 406.05V407.148H562.037L562.733 406.05Z" fill="white"/>
<path d="M562.037 407.148H562.733V406.05L562.037 407.148Z" fill="white"/>
<path d="M597.204 346.547L564.209 398.392L505.644 398.286L538.576 346.547H524.737L491.805 398.265L451.172 462.074H465.033L498.239 409.934L556.804 410.018L523.661 462.074H537.5L611.065 346.547H597.204V346.547ZM562.732 407.148H562.036L562.732 406.051V407.148Z" fill="white"/>
<path d="M562.733 406.05V407.148H562.036L562.733 406.05Z" fill="white"/>
<path d="M562.036 407.148H562.733V406.05L562.036 407.148Z" fill="white"/>
<path d="M498.844 346.547L425.993 462.221H412.596L454.077 397.062L395.364 462.074L345.259 461.884L417.171 347.053H430.673L366.883 450.405L390.301 450.447L486.017 346.547H498.844Z" fill="white"/>
<path d="M715.675 346.547L642.824 462.221H629.427L670.908 397.062L612.195 462.074L562.09 461.884L634.002 347.053H647.504L583.715 450.405L607.132 450.447L702.848 346.547H715.675Z" fill="white"/>
<path d="M388.12 345.713L315.463 461.768H301.729L341.222 398.676L281.982 461.768H266.033L374.998 345.713H388.12Z" fill="white"/>
<path d="M217.028 396.019L216.605 396.316L216.944 395.744L217.028 396.019Z" fill="white"/>
<path d="M222.958 392.073L222.766 392.201L222.916 391.966L222.958 392.073Z" fill="white"/>
<path d="M216.943 395.743L216.605 396.313L217.027 396.017L216.943 395.743ZM222.069 398.655L221.964 398.845L222.111 398.739L222.069 398.655ZM222.913 391.966L222.765 392.198L222.955 392.071L222.913 391.966Z" fill="white"/>
<path d="M222.114 398.741L221.963 398.848L222.071 398.655L222.114 398.741Z" fill="white"/>
<path d="M217.028 396.019L216.605 396.316L216.944 395.744L217.028 396.019Z" fill="white"/>
<path d="M222.114 398.741L221.963 398.848L222.071 398.655L222.114 398.741Z" fill="white"/>
<path d="M222.958 392.073L222.766 392.201L222.916 391.966L222.958 392.073Z" fill="white"/>
<path d="M222.114 398.741L221.963 398.848L222.071 398.655L222.114 398.741Z" fill="white"/>
<path d="M222.958 392.073L222.766 392.201L222.916 391.966L222.958 392.073Z" fill="white"/>
<path d="M216.943 395.743L216.605 396.313L217.027 396.017L216.943 395.743ZM222.913 391.966L222.765 392.198L222.955 392.071L222.913 391.966Z" fill="white"/>
<path d="M307.006 345.755H287.407L238.209 378.483L258.842 345.755H245.023L213.779 395.363V395.384L200.319 416.717L171.796 461.957H185.594L218.463 409.796L235.424 461.957L249.074 461.81L227.977 398.317L307.006 345.755ZM216.606 396.313L216.944 395.743L217.028 396.017L216.606 396.313ZM221.965 398.845L222.07 398.655L222.112 398.739L221.965 398.845ZM222.766 392.198L222.914 391.966L222.956 392.072L222.766 392.198Z" fill="white"/>
<path d="M711.568 396.019L711.145 396.316L711.484 395.744L711.568 396.019Z" fill="white"/>
<path d="M717.498 392.073L717.305 392.201L717.455 391.966L717.498 392.073Z" fill="white"/>
<path d="M711.482 395.743L711.145 396.313L711.567 396.017L711.482 395.743ZM716.609 398.655L716.503 398.845L716.651 398.739L716.609 398.655ZM717.453 391.966L717.305 392.198L717.495 392.071L717.453 391.966Z" fill="white"/>
<path d="M716.654 398.741L716.504 398.848L716.611 398.655L716.654 398.741Z" fill="white"/>
<path d="M711.568 396.019L711.145 396.316L711.484 395.744L711.568 396.019Z" fill="white"/>
<path d="M716.654 398.741L716.504 398.848L716.611 398.655L716.654 398.741Z" fill="white"/>
<path d="M717.498 392.073L717.305 392.201L717.455 391.966L717.498 392.073Z" fill="white"/>
<path d="M716.654 398.741L716.504 398.848L716.611 398.655L716.654 398.741Z" fill="white"/>
<path d="M717.498 392.073L717.305 392.201L717.455 391.966L717.498 392.073Z" fill="white"/>
<path d="M711.482 395.743L711.145 396.313L711.566 396.017L711.482 395.743ZM717.452 391.966L717.305 392.198L717.495 392.071L717.452 391.966Z" fill="white"/>
<path d="M801.545 345.755H781.946L732.749 378.483L753.381 345.755H739.563L708.319 395.363V395.384L694.859 416.717L666.336 461.957H680.133L713.002 409.796L729.964 461.957L743.614 461.81L722.517 398.317L801.545 345.755ZM711.146 396.313L711.483 395.743L711.567 396.017L711.146 396.313ZM716.504 398.845L716.61 398.655L716.652 398.739L716.504 398.845ZM717.306 392.198L717.453 391.966L717.496 392.072L717.306 392.198Z" fill="white"/>
<path d="M89.0074 404.004L105.758 374.759L88.923 346.547L53.9234 346.695L0 431.857L17.7635 461.272L87.4252 461.462L106.096 432.638L89.0074 404.004ZM59.7462 357.836L82.6573 357.751L92.6783 374.442L79.7037 396.577L35.9068 395.817L59.7462 357.836ZM25.2951 450.025L13.6074 431.456L28.9448 407.275L77.6784 408.013L92.7837 432.195L81.3071 450.278L25.2951 450.025Z" fill="white"/>
<path d="M301.234 704.925L276.024 744.721L311.614 744.574L304.441 755.968L268.809 756.095L243.556 795.933L307.352 796.798L299.99 808.108L222.67 807.201L294.948 693.615L373.512 692.834L366.487 704.208L301.234 704.925Z" fill="white"/>
<path d="M101.792 795.763L122.657 828.702H109.113L95.5263 807.263L72.0667 807.411V807.39L0 807.221L71.6237 692.833H85.1678L20.6749 795.805L66.919 795.911L131.771 692.833H145.315L80.4843 795.89L101.792 795.763Z" fill="white"/>
<path d="M606.107 521.05L533.47 637.104H519.736L566.17 562.027L484.631 638.138L503.302 553.671L449.147 636.344H435.328L508.85 520.902H522.521L503.323 606.993L593.069 521.05H606.107Z" fill="white"/>
<path d="M690.337 692.981L617.701 809.036H603.967L650.401 733.959L568.862 810.07L587.532 725.603L533.377 808.276H519.559L593.081 692.833H606.752L587.554 778.925L677.299 692.981H690.337Z" fill="white"/>
<path d="M91.4968 520.902H54.7884L0 606.74L19.3246 636.977L55.0205 636.83L108.733 549.219L91.4968 520.902ZM95.7795 549.219L48.9446 625.899L25.3583 625.984L12.9534 606.761L60.8221 531.853L85.442 531.874L95.7795 549.219Z" fill="white"/>
<path d="M534.331 693.667H497.622L442.834 779.506L462.159 809.743L497.854 809.595L551.567 721.985L534.331 693.667ZM538.613 721.985L491.779 798.665L468.192 798.749L455.787 779.527L503.656 704.619L528.276 704.64L538.613 721.985Z" fill="white"/>
<path d="M331.725 580.405V581.502H331.029L331.725 580.405Z" fill="white"/>
<path d="M331.029 581.502H331.725V580.405L331.029 581.502Z" fill="white"/>
<path d="M366.199 520.902L333.203 572.747L274.638 572.641L307.571 520.902H293.731L260.799 572.62L220.167 636.429H234.027L267.233 584.289L325.798 584.373L292.655 636.429H306.495L380.059 520.902H366.199V520.902ZM331.726 581.503H331.03L331.726 580.406V581.503Z" fill="white"/>
<path d="M331.725 580.405V581.503H331.029L331.725 580.405Z" fill="white"/>
<path d="M331.029 581.503H331.725V580.405L331.029 581.503Z" fill="white"/>
<path d="M484.667 520.902L411.816 636.576H398.419L439.899 571.417L381.187 636.429L331.082 636.239L402.994 521.408H416.496L352.706 624.76L376.124 624.802L471.84 520.902H484.667Z" fill="white"/>
<path d="M478.654 692.833L471.84 704.355H435.511L369.71 808.445H356.103L421.861 704.355H385.343L391.651 692.833H478.654Z" fill="white"/>
<path d="M205.762 749.457L222.513 720.212L205.678 692L170.678 692.148L116.755 777.311L134.518 806.725L204.18 806.915L222.851 778.091L205.762 749.457ZM176.501 703.289L199.412 703.205L209.433 719.895L196.459 742.03L152.662 741.27L176.501 703.289ZM142.05 795.478L130.362 776.91L145.7 752.728L194.433 753.467L209.539 777.648L198.062 795.732L142.05 795.478Z" fill="white"/>
<path d="M227.312 520.069L215.645 520.09L134.612 597.108L87.5664 598.247L112.84 635.849L126.427 635.511L109.824 608.713L139.127 608.65V608.671L154.76 608.608L173.43 608.545H173.768L203.915 608.376L186.616 635.321L200.624 635.279L225.476 596.707L176.511 596.981L227.312 520.069ZM162.65 597.023L152.017 597.045L181.004 570.014L162.65 597.023Z" fill="white"/>
<path d="M154.759 608.607L154.738 608.65L173.43 608.544L154.759 608.607Z" fill="white"/>
</svg>
