<svg width="297" height="66" viewBox="0 0 297 66" fill="none" xmlns="http://www.w3.org/2000/svg">
<path d="M106.022 33.8555V34.4721H105.631L106.022 33.8555Z" fill="white"/>
<path d="M105.631 34.4721H106.022V33.8555L105.631 34.4721Z" fill="white"/>
<path d="M125.393 0.417969L106.851 29.5514L73.9418 29.4921L92.4475 0.417969H84.6706L66.1649 29.4802L43.332 65.3367H51.1208L69.7807 36.0373L102.69 36.0847L84.066 65.3367H91.8429L133.181 0.417969H125.393ZM106.022 34.4721H105.63L106.022 33.8555V34.4721Z" fill="white"/>
<path d="M223.746 33.8555V34.4721H223.354L223.746 33.8555Z" fill="white"/>
<path d="M223.354 34.4721H223.746V33.8555L223.354 34.4721Z" fill="white"/>
<path d="M243.116 0.417969L224.575 29.5514L191.665 29.4921L210.171 0.417969H202.394L183.888 29.4802L161.056 65.3367H168.844L187.504 36.0373L220.414 36.0847L201.79 65.3367H209.567L250.905 0.417969H243.116ZM223.745 34.4721H223.354L223.745 33.8555V34.4721Z" fill="white"/>
<path d="M166.887 0.773438H146.259L115.472 49.0089L126.331 66.0004L146.39 65.9174L176.573 16.6859L166.887 0.773438ZM169.294 16.6859L142.975 59.7753L129.721 59.8228L122.751 49.0208L149.65 6.92737L163.485 6.93923L169.294 16.6859Z" fill="white"/>
<path d="M296.071 16.6002L288.78 16.6239L282.461 6.16579H268.626L241.727 48.2592L248.71 59.0493L261.999 58.9901L265.781 65.144L245.307 65.227L234.448 48.2473L265.236 0H285.864L296.071 16.6002Z" fill="white"/>
<path d="M62.6421 0.417969L0 64.7912L8.93871 64.8268L23.0225 50.4795L30.6097 50.515L21.5406 64.8742L29.1871 64.8979L38.2444 50.5388L38.3629 50.3609L69.8618 0.441682L62.6421 0.417969ZM34.6879 44.0528L29.365 44.0291L44.3023 28.8162L34.6879 44.0528Z" fill="white"/>
<path d="M38.2451 50.5397H38.3647V50.3604L38.2451 50.5397Z" fill="white"/>
</svg>
