<svg width="687" height="64" viewBox="0 0 687 64" fill="none" xmlns="http://www.w3.org/2000/svg">
<path d="M645.339 1.97559L634.187 19.3472L642.411 32.4993L603.748 63.225H613.643L647.561 36.2811H647.572L658.332 36.2923L640.919 63.225H648.661L686.617 1.98678L645.339 1.97559ZM648.189 30.1315L641.469 19.392L648.705 8.1252L676.104 8.13643L662.237 30.1315H648.189Z" fill="white"/>
<path d="M626 17.7789L619.019 17.8015L612.97 7.86075H599.724L573.969 47.8717L580.655 58.128L593.379 58.0716L596.999 63.9211L577.397 64L567 47.8604L596.477 2H616.227L626 17.7789Z" fill="white"/>
<path d="M550.221 28.5604L524.247 27.9432L540.213 2.12148L532.684 1.97559L503.782 47.3011L513.265 63.0342H552.263L562.192 47.6826L550.221 28.5604ZM549.02 56.4919L517.248 56.6714L511.647 47.0991L520.342 34.2163L547.068 34.6091L555.09 47.4469L549.02 56.4919Z" fill="white"/>
<path d="M521.938 1.58105L518.314 7.70824H498.993L463.998 63.0661H456.762L491.734 7.70824H472.312L475.667 1.58105H521.938Z" fill="white"/>
<path d="M415.219 0.790039L393.677 0.879808L355.215 62.3312H362.13L378.62 36.3749L415.623 36.4983L426.809 18.6329L415.219 0.790039ZM411.898 6.88355L419.617 18.6666L412.268 30.416L382.423 30.315L397.054 6.93967L411.898 6.88355Z" fill="white"/>
<path d="M362.098 6.61053L365.973 0.790039H326.795L297.527 46.7173L307.603 62.2462H346.617L356.721 47.0811L344.151 27.7098L317.072 27.2664L330.523 6.81515L362.098 6.61053ZM349.504 46.8537L343.344 56.2097L311.638 56.3916L305.083 46.4899L313.321 33.4507L341.377 33.8486L349.504 46.8537Z" fill="white"/>
<path d="M297.588 0.790039H278.066L248.928 46.4409L259.205 62.522L278.189 62.4435L306.755 15.8499L297.588 0.790039ZM299.866 15.8499L274.958 56.6305L262.414 56.6754L255.817 46.4522L281.275 6.61423L294.368 6.62545L299.866 15.8499Z" fill="white"/>
<path d="M246.594 0.790039L240.389 0.801261L197.294 41.7614L172.273 42.3674L185.715 62.3649L192.94 62.1854L184.11 47.9335L199.695 47.8998V47.911L208.009 47.8774L217.938 47.8437H218.118L234.151 47.7539L224.951 62.0844L232.401 62.0619L245.617 41.5482L219.576 41.6941L246.594 0.790039ZM212.205 41.7165L206.55 41.7277L221.966 27.3524L212.205 41.7165Z" fill="white"/>
<path d="M208.008 47.8774L207.997 47.8999L217.938 47.8438L208.008 47.8774Z" fill="white"/>
<path d="M105.12 0.790039L45.834 61.714L54.2937 61.7477L67.6229 48.1691L74.8036 48.2028L66.2204 61.7926L73.4572 61.815L82.0292 48.2252L82.1414 48.0569L111.952 0.812481L105.12 0.790039ZM78.6632 42.0868L73.6255 42.0644L87.7625 27.6666L78.6632 42.0868Z" fill="white"/>
<path d="M462.31 1.58008L403.025 62.5041L411.485 62.5377L424.814 48.9592L431.995 48.9928L423.411 62.5826L430.648 62.6051L439.22 49.0153L439.332 48.847L469.143 1.60252L462.31 1.58008ZM435.854 42.8769L430.816 42.8544L444.953 28.4567L435.854 42.8769Z" fill="white"/>
<path d="M24.0554 26.7311L23.8306 26.8886L24.0105 26.585L24.0554 26.7311Z" fill="white"/>
<path d="M27.2095 24.6332L27.1069 24.7015L27.1867 24.5762L27.2095 24.6332Z" fill="white"/>
<path d="M24.0101 26.5849L23.8306 26.8879L24.055 26.7308L24.0101 26.5849ZM26.7365 28.1335L26.6804 28.2345L26.7589 28.1784L26.7365 28.1335ZM27.1853 24.5762L27.1068 24.6996L27.2077 24.6323L27.1853 24.5762Z" fill="white"/>
<path d="M26.7608 28.1796L26.6807 28.2368L26.7379 28.1338L26.7608 28.1796Z" fill="white"/>
<path d="M24.0554 26.7311L23.8306 26.8886L24.0105 26.585L24.0554 26.7311Z" fill="white"/>
<path d="M26.7608 28.1796L26.6807 28.2368L26.7379 28.1338L26.7608 28.1796Z" fill="white"/>
<path d="M27.2095 24.6332L27.1069 24.7015L27.1867 24.5762L27.2095 24.6332Z" fill="white"/>
<path d="M26.7612 28.1796L26.6812 28.2368L26.7384 28.1338L26.7612 28.1796Z" fill="white"/>
<path d="M27.21 24.6322L27.1074 24.7005L27.1872 24.5752L27.21 24.6322Z" fill="white"/>
<path d="M24.0106 26.5839L23.8311 26.8869L24.0555 26.7298L24.0106 26.5839ZM27.1858 24.5752L27.1072 24.6986L27.2082 24.6313L27.1858 24.5752Z" fill="white"/>
<path d="M71.9079 0H61.4847L35.32 17.4052L46.293 0H38.944L22.3275 26.3828V26.394L15.1692 37.7394L0 61.7993H7.33777L24.8183 34.0586L33.839 61.7993L41.0982 61.7208L29.8784 27.9539L71.9079 0ZM23.8309 26.8878L24.0104 26.5848L24.0553 26.7307L23.8309 26.8878ZM26.6808 28.2344L26.7369 28.1334L26.7593 28.1783L26.6808 28.2344ZM27.1071 24.6995L27.1857 24.5761L27.2081 24.6322L27.1071 24.6995Z" fill="white"/>
<path d="M110.192 27.1257L109.967 27.2831L110.147 26.9795L110.192 27.1257Z" fill="white"/>
<path d="M113.346 25.0287L113.243 25.097L113.323 24.9717L113.346 25.0287Z" fill="white"/>
<path d="M110.147 26.9804L109.967 27.2834L110.192 27.1263L110.147 26.9804ZM112.873 28.529L112.817 28.63L112.896 28.5739L112.873 28.529ZM113.322 24.9717L113.243 25.0951L113.344 25.0278L113.322 24.9717Z" fill="white"/>
<path d="M112.897 28.5741L112.817 28.6313L112.874 28.5283L112.897 28.5741Z" fill="white"/>
<path d="M110.192 27.1257L109.967 27.2831L110.147 26.9795L110.192 27.1257Z" fill="white"/>
<path d="M112.897 28.5741L112.817 28.6313L112.874 28.5283L112.897 28.5741Z" fill="white"/>
<path d="M113.346 25.0287L113.243 25.097L113.323 24.9717L113.346 25.0287Z" fill="white"/>
<path d="M112.897 28.5741L112.817 28.6313L112.875 28.5283L112.897 28.5741Z" fill="white"/>
<path d="M113.346 25.0267L113.244 25.0951L113.323 24.9697L113.346 25.0267Z" fill="white"/>
<path d="M110.147 26.9785L109.967 27.2814L110.192 27.1243L110.147 26.9785ZM113.322 24.9697L113.243 25.0932L113.344 25.0258L113.322 24.9697Z" fill="white"/>
<path d="M158.044 0.394531H147.621L121.456 17.7998L132.429 0.394531H125.08L108.464 26.7773V26.7886L101.305 38.134L86.1362 62.1938H93.474L110.954 34.4532L119.975 62.1938L127.234 62.1153L116.015 28.3484L158.044 0.394531ZM109.967 27.2823L110.147 26.9793L110.192 27.1252L109.967 27.2823ZM112.817 28.629L112.873 28.528L112.896 28.5729L112.817 28.629ZM113.243 25.094L113.322 24.9706L113.344 25.0267L113.243 25.094Z" fill="white"/>
</svg>
