<svg width="553" height="262" viewBox="0 0 553 262" fill="none" xmlns="http://www.w3.org/2000/svg">
<path d="M313.441 226.938V226.962H313.154L313.166 226.938H313.441Z" fill="white"/>
<path d="M313.166 226.938L313.154 226.962H313.441V226.938H313.166Z" fill="white"/>
<path d="M353.816 196.106L332.432 196.094L315.212 223.658L282.459 223.599L300.529 194.933H292.702L251.167 260.846H258.981L278.295 230.193L311.095 230.253L302.001 244.807L312.95 261.935L333.425 261.863L365.411 212.108L353.816 196.106ZM313.165 226.938H313.441V226.962H313.153L313.165 226.938ZM329.536 255.651L316.42 255.711L309.946 244.831L336.5 202.318H350.549L357.932 212.228L329.536 255.651Z" fill="white"/>
<path d="M204.33 194.933L181.354 195.028L140.333 260.57L147.261 260.785L165.295 232.886L204.761 233.017L216.691 213.963L204.33 194.933ZM200.788 201.432L209.021 213.999L201.183 226.53L169.351 226.423L184.956 201.492L200.788 201.432Z" fill="white"/>
<path d="M148.826 194.933H128.004L96.9272 243.622L107.889 260.773L128.136 260.689L158.603 210.995L148.826 194.933ZM151.256 210.995L124.69 254.49L111.311 254.537L104.275 243.634L131.427 201.144L145.392 201.156L151.256 210.995Z" fill="white"/>
<path d="M62.2023 211.543L54.8428 211.567L48.4646 201.01H34.4996L7.3475 243.5L14.3958 254.391L27.8103 254.332L31.6277 260.543L10.9614 260.627L0 243.488L31.0772 194.787H51.899L62.2023 211.543Z" fill="white"/>
<path d="M66.9559 223.443L66.7163 223.611L66.908 223.287L66.9559 223.443Z" fill="white"/>
<path d="M70.3187 221.204L70.21 221.277L70.2946 221.144L70.3187 221.204Z" fill="white"/>
<path d="M66.9078 223.286L66.7163 223.61L66.9556 223.442L66.9078 223.286ZM69.8157 224.938L69.7558 225.046L69.8396 224.986L69.8157 224.938ZM70.2943 221.144L70.2105 221.276L70.3182 221.204L70.2943 221.144Z" fill="white"/>
<path d="M69.8404 224.987L69.7554 225.048L69.8161 224.938L69.8404 224.987Z" fill="white"/>
<path d="M66.9559 223.443L66.7163 223.611L66.908 223.287L66.9559 223.443Z" fill="white"/>
<path d="M69.8404 224.987L69.7554 225.048L69.8161 224.938L69.8404 224.987Z" fill="white"/>
<path d="M70.3187 221.204L70.21 221.277L70.2946 221.144L70.3187 221.204Z" fill="white"/>
<path d="M69.8408 224.988L69.7559 225.049L69.8166 224.939L69.8408 224.988Z" fill="white"/>
<path d="M70.3192 221.206L70.2104 221.278L70.295 221.146L70.3192 221.206Z" fill="white"/>
<path d="M66.9083 223.288L66.7168 223.611L66.9561 223.444L66.9083 223.288ZM70.2948 221.146L70.211 221.277L70.3187 221.205L70.2948 221.146Z" fill="white"/>
<path d="M117.993 194.933H106.876L78.9701 213.497L90.6734 194.933H82.8353L65.1128 223.072V223.084L57.4781 235.184L41.2993 260.846H49.1255L67.7694 231.259L77.3905 260.846L85.1329 260.762L73.1663 224.747L117.993 194.933ZM66.7163 223.61L66.9078 223.287L66.9557 223.443L66.7163 223.61ZM69.7558 225.047L69.8157 224.939L69.8396 224.987L69.7558 225.047ZM70.2106 221.277L70.2943 221.145L70.3183 221.205L70.2106 221.277Z" fill="white"/>
<path d="M272.972 194.09L254.089 224.048H237.551L229.498 211.265L240.507 194.09H232.645L221.672 211.229L233.901 230.655L249.925 230.667L235.445 253.635H203.566L198.911 260.637H238.832L280.798 194.09H272.972ZM254.292 230.044V230.667H253.898L254.292 230.044Z" fill="white"/>
<path d="M253.897 230.667H254.292V230.045L253.897 230.667Z" fill="white"/>
<path d="M254.292 230.044V230.667H253.897L254.292 230.044Z" fill="white"/>
<path d="M253.897 230.667H254.292V230.044L253.897 230.667Z" fill="white"/>
<path d="M508.634 98.0269L504.769 104.562H484.162L446.839 163.604H439.12L476.42 104.562H455.706L459.284 98.0269H508.634Z" fill="white"/>
<path d="M539.641 126.803L511.939 126.145L528.967 98.6043L520.938 98.4487L490.112 146.791L500.439 163.176L541.819 163.571L552.41 147.198L539.641 126.803ZM538.361 156.593L504.687 156.39L498.5 146.575L507.774 132.835L536.279 133.254L544.835 146.946L538.361 156.593Z" fill="white"/>
<path d="M202.738 131.576L211.892 146.154L201.23 162.766L153.818 162.683L158.282 156.207L197.688 156.315L204.269 146.321L194.84 130.893L221.657 104.382L191.441 104.502L195.917 98.1226L236.567 98.0269L202.738 131.576Z" fill="white"/>
<path d="M176.964 97.2041L135.819 162.518H128.005L169.138 97.2041H176.964Z" fill="white"/>
<path d="M334.136 96.606L292.588 162.518H284.773L326.309 96.606H334.136Z" fill="white"/>
<path d="M115.271 125.309L87.5563 124.65L104.361 97.4318L96.3847 97.4316L65.7412 145.297L76.0683 161.682L117.437 162.077L128.039 145.704L115.271 125.309ZM113.99 155.099L80.3165 154.896L74.1298 145.081L83.4158 131.341L111.908 131.76L120.464 145.452L113.99 155.099Z" fill="white"/>
<path d="M272.039 125.308L244.325 124.65L261.437 96.7627L253.312 96.9901L222.51 145.296L232.837 161.682L274.205 162.077L284.808 145.703L272.039 125.308ZM270.759 155.099L237.085 154.895L230.898 145.081L240.184 131.341L268.677 131.76L277.233 145.452L270.759 155.099Z" fill="white"/>
<path d="M50.487 129.355L59.9885 112.766L50.4391 96.7637L30.5866 96.8475L0 145.154L10.0759 161.838L49.5895 161.946L60.1799 145.597L50.487 129.355ZM33.8894 103.167L46.8851 103.119L52.5692 112.586L45.2097 125.142L20.3671 124.711L33.8894 103.167ZM14.3479 155.459L7.71844 144.926L16.4181 131.21L44.0609 131.629L52.629 145.345L46.1192 155.603L14.3479 155.459Z" fill="white"/>
<path d="M367.818 129.355L377.319 112.766L367.77 96.7637L347.917 96.8475L317.331 145.154L327.406 161.838L366.92 161.946L377.51 145.597L367.818 129.355ZM351.22 103.167L364.216 103.119L369.9 112.586L362.54 125.142L337.698 124.711L351.22 103.167ZM331.678 155.459L325.049 144.926L333.749 131.21L361.392 131.629L369.96 145.345L363.45 155.603L331.678 155.459Z" fill="white"/>
<path d="M272.255 0.64502L209.024 65.6239L218.047 65.6598L232.263 51.1775L239.922 51.2134L230.767 65.7076L238.486 65.7316L247.628 51.2373L247.748 51.0578L279.543 0.668955L272.255 0.64502ZM244.038 44.6904L238.665 44.6664L253.743 29.3104L244.038 44.6904Z" fill="white"/>
<path d="M247.628 51.238H247.749V51.0576L247.628 51.238Z" fill="white"/>
<path d="M440.824 98.0269L377.592 163.006L386.615 163.042L400.831 148.559L408.49 148.595L399.336 163.089L407.054 163.113L416.196 148.619L416.316 148.44L448.111 98.0508L440.824 98.0269ZM412.606 142.072L407.233 142.048L422.311 126.692L412.606 142.072Z" fill="white"/>
<path d="M416.196 148.62H416.317V148.44L416.196 148.62Z" fill="white"/>
<path d="M167.295 1.57324L163.418 8.10823L142.812 8.1202L105.488 66.7436H97.7695L139.21 1.58521L167.295 1.57324Z" fill="white"/>
<path d="M214.025 0.496094L207.407 0.508063L161.444 44.1943L134.758 44.8407L149.094 66.1691L156.801 65.9776L147.383 50.7772L164.005 50.7413V50.7533L172.872 50.7174L183.462 50.6814H183.654L200.754 50.5857L190.941 65.8699L198.887 65.846L212.984 43.9669L185.209 44.1225L214.025 0.496094ZM177.347 44.1465L171.316 44.1584L187.758 28.8263L177.347 44.1465Z" fill="white"/>
<path d="M172.871 50.7176L172.859 50.7415L183.462 50.6816L172.871 50.7176Z" fill="white"/>
<path d="M106.262 0.466309H85.44L54.3628 49.1556L65.3242 66.3069L85.5716 66.2231L116.039 16.5285L106.262 0.466309ZM108.691 16.5285L82.1252 60.0233L68.7466 60.0712L61.7103 49.1675L88.8624 6.67813L102.827 6.6901L108.691 16.5285Z" fill="white"/>
<path d="M25.6566 28.5097L25.417 28.6775L25.6087 28.354L25.6566 28.5097Z" fill="white"/>
<path d="M29.0199 26.2719L28.9111 26.3444L28.9957 26.2114L29.0199 26.2719Z" fill="white"/>
<path d="M25.6085 28.3539L25.417 28.677L25.6563 28.5094L25.6085 28.3539ZM28.5163 30.0055L28.4565 30.1133L28.5403 30.0534L28.5163 30.0055ZM28.995 26.2114L28.9112 26.3431L29.0189 26.2713L28.995 26.2114Z" fill="white"/>
<path d="M28.541 30.054L28.4561 30.1147L28.5168 30.0054L28.541 30.054Z" fill="white"/>
<path d="M25.6566 28.5097L25.417 28.6775L25.6087 28.354L25.6566 28.5097Z" fill="white"/>
<path d="M28.541 30.054L28.4561 30.1147L28.5168 30.0054L28.541 30.054Z" fill="white"/>
<path d="M29.0199 26.2719L28.9111 26.3444L28.9957 26.2114L29.0199 26.2719Z" fill="white"/>
<path d="M28.5415 30.0544L28.4565 30.1152L28.5172 30.0059L28.5415 30.0544Z" fill="white"/>
<path d="M29.0199 26.2719L28.9111 26.3444L28.9957 26.2114L29.0199 26.2719Z" fill="white"/>
<path d="M25.6085 28.3539L25.417 28.677L25.6563 28.5094L25.6085 28.3539ZM28.995 26.2114L28.9112 26.3431L29.0189 26.2713L28.995 26.2114Z" fill="white"/>
<path d="M76.6938 0H65.5769L37.6708 18.5637L49.3741 0H41.536L23.8135 28.1387V28.1507L16.1788 40.2512L0 65.9124H7.82614L26.4701 36.3254L36.0912 65.9124L43.8336 65.8286L31.867 29.8144L76.6938 0ZM25.417 28.6773L25.6085 28.3542L25.6563 28.5098L25.417 28.6773ZM28.4565 30.1136L28.5164 30.0059L28.5403 30.0538L28.4565 30.1136ZM28.9113 26.3434L28.995 26.2118L29.019 26.2716L28.9113 26.3434Z" fill="white"/>
</svg>
