<svg width="297" height="66" viewBox="0 0 297 66" fill="none" xmlns="http://www.w3.org/2000/svg">
<path d="M106.022 33.855V34.4716H105.631L106.022 33.855Z" fill="white"/>
<path d="M105.631 34.4716H106.022V33.855L105.631 34.4716Z" fill="white"/>
<path d="M125.393 0.41748L106.851 29.5509L73.9418 29.4916L92.4475 0.41748H84.6706L66.1649 29.4797L43.332 65.3362H51.1208L69.7807 36.0368L102.69 36.0842L84.066 65.3362H91.8429L133.181 0.41748H125.393ZM106.022 34.4716H105.63L106.022 33.8551V34.4716Z" fill="white"/>
<path d="M223.746 33.855V34.4716H223.354L223.746 33.855Z" fill="white"/>
<path d="M223.354 34.4716H223.746V33.855L223.354 34.4716Z" fill="white"/>
<path d="M243.116 0.41748L224.575 29.5509L191.665 29.4916L210.171 0.41748H202.394L183.888 29.4797L161.056 65.3362H168.844L187.504 36.0368L220.414 36.0842L201.79 65.3362H209.567L250.905 0.41748H243.116ZM223.745 34.4716H223.354L223.745 33.8551V34.4716Z" fill="white"/>
<path d="M166.887 0.772949H146.259L115.472 49.0084L126.331 65.9999L146.39 65.9169L176.573 16.6854L166.887 0.772949ZM169.294 16.6854L142.975 59.7749L129.721 59.8223L122.751 49.0203L149.65 6.92688L163.485 6.93874L169.294 16.6854Z" fill="white"/>
<path d="M296.071 16.6002L288.78 16.6239L282.461 6.16579H268.626L241.727 48.2592L248.71 59.0493L261.999 58.9901L265.781 65.144L245.307 65.227L234.448 48.2473L265.236 0H285.864L296.071 16.6002Z" fill="white"/>
<path d="M62.6421 0.41748L0 64.7907L8.93871 64.8263L23.0225 50.479L30.6097 50.5146L21.5406 64.8737L29.1871 64.8975L38.2444 50.5383L38.3629 50.3604L69.8618 0.441193L62.6421 0.41748ZM34.6879 44.0523L29.365 44.0286L44.3023 28.8157L34.6879 44.0523Z" fill="white"/>
<path d="M38.2451 50.5397H38.3647V50.3604L38.2451 50.5397Z" fill="white"/>
</svg>
