<svg width="587" height="65" viewBox="0 0 587 65" fill="none" xmlns="http://www.w3.org/2000/svg">
<path d="M530.505 0.810547L490.507 64.2645H482.984L500.783 36.0231L485.357 36.0115L473.583 17.3107L484.148 0.810547H491.716L481.118 17.3452L488.871 29.6512L504.792 29.6627L522.971 0.810547H530.505Z" fill="white"/>
<path d="M419.003 0L396.884 0.0921726L357.393 63.1889L364.063 63.3963L381.424 36.5376L419.418 36.6643L430.903 18.3206L419.003 0ZM415.593 6.25666L423.519 18.3552L415.973 30.4192L385.329 30.3155L400.352 6.31428L415.593 6.25666Z" fill="white"/>
<path d="M347.604 31.7808L356.751 15.8107L347.558 0.405273L328.446 0.48593L299 46.9904L308.7 63.0527L346.74 63.1564L356.935 47.4167L347.604 31.7808ZM331.625 6.56977L344.136 6.52368L349.608 15.6379L342.523 27.7249L318.607 27.3101L331.625 6.56977ZM312.813 56.9112L306.431 46.7715L314.806 33.5668L341.418 33.9701L349.666 47.1748L343.399 57.0495L312.813 56.9112Z" fill="white"/>
<path d="M278.009 1L239.276 64H231.949L253.524 28.5122L221.413 63.9196L194.009 63.8161L232.684 1.27581H240.069L205.836 57.5644L218.643 57.5874L270.993 1H278.009Z" fill="white"/>
<path d="M587 0.265625L548.267 63.2656H540.94L562.515 27.7778L530.404 63.1852L503 63.0818L541.675 0.541436H549.06L514.827 56.83L527.635 56.853L579.985 0.265625H587Z" fill="white"/>
<path d="M144.283 61.1172V61.1981H143.994L144.005 61.1172H144.283Z" fill="white"/>
<path d="M144.294 59.666L144.282 59.7028V59.666H144.294Z" fill="white"/>
<path d="M144.282 59.666V59.7028L144.294 59.666H144.282Z" fill="white"/>
<path d="M212.861 1.81152L177.448 58.0985L148.579 58.0409L183.796 1.81152H176.4L141.148 58.11L112.29 58.0409L147.507 1.81152H140.111L101 64.2861H137.289L180.904 64.3667L220.257 1.81152H212.861ZM144.282 61.1981H143.994L144.005 61.1174H144.282V61.1981ZM144.282 59.7001V59.6656H144.293L144.282 59.7001Z" fill="white"/>
<path d="M118.888 2.2168L58.0151 64.772L66.7014 64.8066L80.3874 50.8644L87.7604 50.899L78.9474 64.8526L86.3779 64.8757L95.1794 50.922L95.2946 50.7492L125.904 2.23984L118.888 2.2168ZM91.7233 44.6193L86.5508 44.5962L101.066 29.813L91.7233 44.6193Z" fill="white"/>
<path d="M95.1792 50.9229H95.2951V50.749L95.1792 50.9229Z" fill="white"/>
<path d="M467.327 0.810547L406.454 63.3657L415.14 63.4003L428.826 49.4582L436.199 49.4927L427.386 63.4464L434.817 63.4694L443.618 49.5158L443.734 49.343L474.343 0.83359L467.327 0.810547ZM440.162 43.213L434.99 43.19L449.505 28.4067L440.162 43.213Z" fill="white"/>
<path d="M443.618 49.5167H443.734V49.3428L443.618 49.5167Z" fill="white"/>
<path d="M60.9187 34.3047V34.9039H60.5386L60.9187 34.3047Z" fill="white"/>
<path d="M60.5386 34.9039H60.9187V34.3047L60.5386 34.9039Z" fill="white"/>
<path d="M79.7431 1.81152L61.7254 30.1221L29.7452 30.0645L47.7283 1.81152H40.171L22.188 30.053L0 64.8967H7.56878L25.7016 36.4249L57.6818 36.4709L39.5835 64.8967H47.1408L87.3118 1.81152H79.7431ZM60.919 34.9039H60.5388L60.919 34.3047V34.9039Z" fill="white"/>
<path d="M60.9187 34.3047V34.9039H60.5386L60.9187 34.3047Z" fill="white"/>
<path d="M60.5386 34.9039H60.9187V34.3047L60.5386 34.9039Z" fill="white"/>
</svg>
