<svg width="1350" height="657" viewBox="0 0 1350 657" fill="none" xmlns="http://www.w3.org/2000/svg">
<g clip-path="url(#clip0_134_2)">
<path d="M464.299 0L423.793 0.168794L351 116.097H363.688L395.481 66.9106L465.058 67.1427L486.092 33.5503L464.299 0ZM458.054 11.4577L472.569 33.6136L458.75 55.7061L402.633 55.5162L430.143 11.5632L458.054 11.4577Z" fill="white"/>
<path d="M357.609 14.5454L364.803 3.7418L292.377 3.12988L238.053 88.3771L256.26 116.504L329.576 116.205L347.925 89.0523L324.592 53.0966L274.149 52.2736L299.297 14.3133L357.609 14.5454ZM334.529 88.6303L323 105.638H263.749L252.821 87.9551L267.187 63.7525L319.445 64.491L334.529 88.6303Z" fill="white"/>
<path d="M237.813 0H201.105L146.316 85.838L165.641 116.075L201.337 115.928L255.049 28.3173L237.813 0ZM242.096 28.3173L195.261 104.998L171.675 105.082L159.27 85.8592L207.138 10.9513L231.758 10.9724L242.096 28.3173Z" fill="white"/>
<path d="M565.936 0H529.227L474.439 85.838L493.764 116.075L529.459 115.928L583.172 28.3173L565.936 0ZM570.218 28.3173L523.384 104.998L499.797 105.082L487.392 85.8592L535.261 10.9513L559.881 10.9724L570.218 28.3173Z" fill="white"/>
<path d="M139.745 0.449707L128.079 0.470808L47.0459 77.4887L0 78.6282L25.274 116.23L38.8603 115.892L22.2571 89.0942L51.5606 89.0309V89.052L67.1933 88.9887L85.864 88.9254H86.2015L116.349 88.7566L99.0495 115.702L113.058 115.66L137.91 77.0878L88.9441 77.3621L139.745 0.449707ZM75.0835 77.4043L64.4507 77.4254L93.4377 50.3953L75.0835 77.4043Z" fill="white"/>
<path d="M67.193 88.9896L67.1719 89.0318L85.8636 88.9263L67.193 88.9896Z" fill="white"/>
<path d="M986.708 229.044L937.848 227.883L968.017 178.718L953.692 179.119L899.389 264.282L917.595 293.169L990.527 293.865L1009.22 264.999L986.708 229.044ZM984.451 281.564L925.085 281.205L914.177 263.902L930.549 239.678L980.78 240.417L995.864 264.556L984.451 281.564Z" fill="white"/>
<path d="M933.542 175.884L926.727 187.405H890.399L824.598 291.496H810.99L876.749 187.405H840.23L846.538 175.884H933.542Z" fill="white"/>
<path d="M689.837 232.715L706.588 203.469L689.753 175.257L654.753 175.405L600.83 260.568L618.594 289.982L688.255 290.172L706.926 261.349L689.837 232.715ZM660.576 186.546L683.487 186.462L693.508 203.153L680.534 225.287L636.737 224.528L660.576 186.546ZM626.125 278.736L614.437 260.167L629.775 235.985L678.509 236.724L693.614 260.905L682.137 278.989L626.125 278.736Z" fill="white"/>
<path d="M540.28 173.382L467.623 289.436H453.889L493.382 226.345L434.142 289.436H418.193L527.158 173.382H540.28Z" fill="white"/>
<path d="M454.612 173.357L343.137 287.913L359.044 287.976L384.107 262.445L397.609 262.508L381.47 288.061L395.077 288.103L411.195 262.55L411.406 262.233L467.46 173.399L454.612 173.357ZM404.866 251.008L395.394 250.966L421.975 223.893L404.866 251.008Z" fill="white"/>
<path d="M411.195 262.552H411.407V262.233L411.195 262.552Z" fill="white"/>
<path d="M816.55 175.025L705.074 289.581L720.981 289.644L746.044 264.112L759.546 264.176L743.407 289.729L757.015 289.771L773.132 264.218L773.343 263.901L829.398 175.067L816.55 175.025ZM766.803 252.676L757.331 252.634L783.913 225.561L766.803 252.676Z" fill="white"/>
<path d="M773.135 264.22H773.347V263.901L773.135 264.22Z" fill="white"/>
<path d="M303.871 218.999L303.913 219.105L304.083 218.85L303.871 218.999Z" fill="white"/>
<path d="M391.739 173.737H371.908L321.276 207.413L343.09 173.737H329.06L306.719 209.186L294.293 172.027H280.728L297.922 222.944L298.132 222.796L297.964 223.07L297.922 222.944L199.695 288.272H219.484L283.09 245.986L254.842 288.272H268.913L302.478 236.448L319.968 288.272H333.132L312.478 226.446L391.739 173.737ZM303.913 219.103L303.871 218.998L304.082 218.85L303.913 219.103ZM306.297 230.54L306.508 230.223L306.571 230.371L306.297 230.54Z" fill="white"/>
<path d="M298.134 222.795L297.964 223.071L297.922 222.944L298.134 222.795Z" fill="white"/>
<path d="M304.083 218.85L303.913 219.104L303.871 218.998L304.083 218.85Z" fill="white"/>
<path d="M306.575 230.372L306.299 230.542L306.511 230.223L306.575 230.372Z" fill="white"/>
<path d="M304.083 218.85L303.913 219.104L303.871 218.998L304.083 218.85Z" fill="white"/>
<path d="M306.575 230.372L306.299 230.542L306.511 230.223L306.575 230.372Z" fill="white"/>
<path d="M306.508 230.223L306.297 230.539L306.572 230.371L306.508 230.223ZM303.871 218.997L303.913 219.103L304.082 218.85L303.871 218.997ZM297.922 222.943L297.964 223.07L298.133 222.795L297.922 222.943Z" fill="white"/>
<path d="M142.278 176.81L142.256 176.852H142.765V176.81H142.278Z" fill="white"/>
<path d="M146.032 170.923L145.99 171.007L74.7038 170.88V170.923H73.5645L0 286.449H13.8395L79.9991 182.528L138.564 182.634L72.4675 286.449H86.3281L159.893 170.923H146.032ZM142.762 176.852H142.256L142.277 176.81H142.762V176.852Z" fill="white"/>
<path d="M142.765 176.81V176.852H142.256L142.278 176.81H142.765Z" fill="white"/>
<path d="M219.221 170.879H182.513L127.725 256.717L147.049 286.955L182.745 286.807L236.458 199.197L219.221 170.879ZM223.504 199.197L176.669 275.877L153.083 275.961L140.678 256.739L188.547 181.831L213.167 181.852L223.504 199.197Z" fill="white"/>
<path d="M601.427 172.549H564.719L509.93 258.387L529.255 288.624L564.951 288.477L618.663 200.866L601.427 172.549ZM605.71 200.866L558.875 277.546L535.289 277.631L522.884 258.408L570.752 183.5L595.372 183.521L605.71 200.866Z" fill="white"/>
<path d="M890.175 345.474L857.29 397.646H828.489L814.464 375.385L833.637 345.474H819.945L800.835 375.323L822.133 409.152L850.038 409.173L824.822 449.172H769.304L761.197 461.366H830.719L903.805 345.474H890.175ZM857.644 408.089V409.173H856.957L857.644 408.089Z" fill="white"/>
<path d="M856.955 409.173H857.643V408.089L856.955 409.173Z" fill="white"/>
<path d="M857.642 408.089V409.173H856.955L857.642 408.089Z" fill="white"/>
<path d="M856.955 409.173H857.642V408.089L856.955 409.173Z" fill="white"/>
<path d="M562.733 406.05V407.148H562.037L562.733 406.05Z" fill="white"/>
<path d="M562.037 407.148H562.733V406.05L562.037 407.148Z" fill="white"/>
<path d="M597.204 346.547L564.209 398.392L505.644 398.286L538.576 346.547H524.737L491.805 398.265L451.172 462.074H465.033L498.239 409.934L556.804 410.018L523.661 462.074H537.5L611.065 346.547H597.204ZM562.732 407.148H562.036L562.732 406.051V407.148Z" fill="white"/>
<path d="M562.733 406.05V407.148H562.037L562.733 406.05Z" fill="white"/>
<path d="M562.037 407.148H562.733V406.05L562.037 407.148Z" fill="white"/>
<path d="M498.845 346.547L425.994 462.221H412.597L454.078 397.062L395.365 462.074L345.26 461.884L417.172 347.053H430.674L366.884 450.405L390.302 450.447L486.018 346.547H498.845Z" fill="white"/>
<path d="M715.675 346.547L642.824 462.221H629.427L670.908 397.062L612.195 462.074L562.09 461.884L634.002 347.053H647.504L583.715 450.405L607.132 450.447L702.848 346.547H715.675Z" fill="white"/>
<path d="M388.12 345.713L315.463 461.768H301.729L341.222 398.676L281.982 461.768H266.033L374.998 345.713H388.12Z" fill="white"/>
<path d="M217.028 396.019L216.605 396.315L216.944 395.744L217.028 396.019Z" fill="white"/>
<path d="M222.958 392.073L222.766 392.201L222.916 391.966L222.958 392.073Z" fill="white"/>
<path d="M216.943 395.743L216.605 396.313L217.027 396.017L216.943 395.743ZM222.069 398.655L221.964 398.845L222.111 398.739L222.069 398.655ZM222.913 391.966L222.765 392.198L222.955 392.071L222.913 391.966Z" fill="white"/>
<path d="M222.114 398.741L221.963 398.848L222.071 398.655L222.114 398.741Z" fill="white"/>
<path d="M217.028 396.019L216.605 396.315L216.944 395.744L217.028 396.019Z" fill="white"/>
<path d="M222.114 398.741L221.963 398.848L222.071 398.655L222.114 398.741Z" fill="white"/>
<path d="M222.958 392.073L222.766 392.201L222.916 391.966L222.958 392.073Z" fill="white"/>
<path d="M222.114 398.741L221.963 398.848L222.071 398.655L222.114 398.741Z" fill="white"/>
<path d="M222.958 392.073L222.766 392.201L222.916 391.966L222.958 392.073Z" fill="white"/>
<path d="M216.943 395.743L216.605 396.313L217.027 396.017L216.943 395.743ZM222.913 391.966L222.765 392.198L222.955 392.071L222.913 391.966Z" fill="white"/>
<path d="M307.007 345.755H287.408L238.21 378.483L258.843 345.755H245.024L213.78 395.363V395.384L200.32 416.717L171.797 461.957H185.595L218.464 409.796L235.425 461.957L249.075 461.81L227.978 398.317L307.007 345.755ZM216.607 396.313L216.945 395.743L217.029 396.017L216.607 396.313ZM221.966 398.845L222.071 398.655L222.113 398.739L221.966 398.845ZM222.767 392.198L222.915 391.966L222.957 392.072L222.767 392.198Z" fill="white"/>
<path d="M711.568 396.019L711.145 396.315L711.482 395.744L711.568 396.019Z" fill="white"/>
<path d="M717.498 392.073L717.305 392.201L717.455 391.966L717.498 392.073Z" fill="white"/>
<path d="M711.482 395.743L711.145 396.313L711.565 396.017L711.482 395.743ZM716.609 398.655L716.503 398.845L716.651 398.739L716.609 398.655ZM717.452 391.966L717.305 392.198L717.495 392.071L717.452 391.966Z" fill="white"/>
<path d="M716.655 398.741L716.504 398.848L716.612 398.655L716.655 398.741Z" fill="white"/>
<path d="M711.568 396.019L711.145 396.315L711.482 395.744L711.568 396.019Z" fill="white"/>
<path d="M716.655 398.741L716.504 398.848L716.612 398.655L716.655 398.741Z" fill="white"/>
<path d="M717.498 392.073L717.305 392.201L717.455 391.966L717.498 392.073Z" fill="white"/>
<path d="M716.655 398.741L716.504 398.848L716.612 398.655L716.655 398.741Z" fill="white"/>
<path d="M717.498 392.073L717.305 392.201L717.455 391.966L717.498 392.073Z" fill="white"/>
<path d="M711.482 395.743L711.145 396.313L711.565 396.017L711.482 395.743ZM717.452 391.966L717.305 392.198L717.495 392.071L717.452 391.966Z" fill="white"/>
<path d="M801.545 345.755H781.946L732.749 378.483L753.381 345.755H739.563L708.319 395.363V395.384L694.859 416.717L666.336 461.957H680.133L713.002 409.796L729.964 461.957L743.614 461.81L722.517 398.317L801.545 345.755ZM711.146 396.313L711.483 395.743L711.567 396.017L711.146 396.313ZM716.504 398.845L716.61 398.655L716.652 398.739L716.504 398.845ZM717.306 392.198L717.453 391.966L717.496 392.072L717.306 392.198Z" fill="white"/>
<path d="M89.0074 404.004L105.758 374.759L88.923 346.547L53.9234 346.695L0 431.857L17.7635 461.272L87.4252 461.462L106.096 432.638L89.0074 404.004ZM59.7462 357.836L82.6573 357.751L92.6783 374.442L79.7037 396.577L35.9068 395.817L59.7462 357.836ZM25.2951 450.025L13.6074 431.456L28.9448 407.275L77.6785 408.013L92.7837 432.195L81.3071 450.278L25.2951 450.025Z" fill="white"/>
<path d="M960.896 532.994L935.686 572.79L971.276 572.642L964.103 584.036L928.471 584.163L903.218 624.001L967.015 624.866L959.652 636.177L882.332 635.269L954.61 521.684L1033.18 520.903L1026.15 532.276L960.896 532.994Z" fill="white"/>
<path d="M761.454 623.832L782.319 656.77H768.775L755.188 635.331L731.729 635.479V635.458L659.662 635.289L731.286 520.902H744.83L680.337 623.874L726.581 623.979L791.433 520.902H804.977L740.146 623.958L761.454 623.832Z" fill="white"/>
<path d="M1352.78 521.148L1280.23 636.5H1266.5L1312.84 562.125L1231.5 637L1249.98 553.769L1195.82 636.442H1182L1255.52 521H1269.19L1250 605.5L1339.74 521.148H1352.78Z" fill="white"/>
<path d="M606.78 521.148L534.23 636.5H520.5L566.84 562.125L485.5 637L503.98 553.769L449.82 636.442H436L509.52 521H523.19L504 605.5L593.74 521.148H606.78Z" fill="white"/>
<path d="M91.4968 520.902H54.7884L0 606.74L19.3246 636.977L55.0205 636.83L108.733 549.219L91.4968 520.902ZM95.7795 549.219L48.9446 625.899L25.3583 625.984L12.9534 606.761L60.8221 531.853L85.442 531.874L95.7795 549.219Z" fill="white"/>
<path d="M1194.49 520H1157.79L1103 605.838L1122.32 636.075L1158.02 635.928L1211.73 548.317L1194.49 520ZM1198.78 548.317L1151.94 624.997L1128.36 625.082L1115.95 605.859L1163.82 530.951L1188.44 530.972L1198.78 548.317Z" fill="white"/>
<path d="M331.725 580.405V581.503H331.029L331.725 580.405Z" fill="white"/>
<path d="M331.029 581.503H331.725V580.405L331.029 581.503Z" fill="white"/>
<path d="M366.2 520.902L333.204 572.747L274.639 572.641L307.572 520.902H293.732L260.8 572.62L220.168 636.429H234.028L267.234 584.289L325.799 584.373L292.656 636.429H306.496L380.06 520.902H366.2ZM331.727 581.503H331.031L331.727 580.406V581.503Z" fill="white"/>
<path d="M331.725 580.405V581.503H331.029L331.725 580.405Z" fill="white"/>
<path d="M331.029 581.503H331.725V580.405L331.029 581.503Z" fill="white"/>
<path d="M483.667 520.902L410.816 636.576H397.419L438.899 571.417L380.187 636.429L330.082 636.239L401.994 521.408H415.496L351.706 624.76L375.124 624.802L470.84 520.902H483.667Z" fill="white"/>
<path d="M1138.32 520.902L1131.5 532.423H1095.17L1029.37 636.513H1015.77L1081.52 532.423H1045.01L1051.31 520.902H1138.32Z" fill="white"/>
<path d="M865.425 577.526L882.176 548.28L865.341 520.068L830.341 520.216L776.418 605.379L794.181 634.793L863.843 634.983L882.514 606.16L865.425 577.526ZM836.164 531.357L859.075 531.273L869.096 547.964L856.122 570.098L812.325 569.339L836.164 531.357ZM801.713 623.547L790.025 604.978L805.363 580.796L854.096 581.535L869.202 605.716L857.725 623.8L801.713 623.547Z" fill="white"/>
<path d="M227.312 520.069L215.645 520.09L134.612 597.108L87.5664 598.247L112.84 635.849L126.427 635.511L109.824 608.713L139.127 608.65V608.671L154.76 608.608L173.43 608.545H173.768L203.915 608.376L186.616 635.321L200.624 635.279L225.476 596.707L176.511 596.981L227.312 520.069ZM162.65 597.023L152.017 597.045L181.004 570.014L162.65 597.023Z" fill="white"/>
<path d="M154.759 608.608L154.738 608.65L173.43 608.544L154.759 608.608Z" fill="white"/>
</g>
<defs>
<clipPath id="clip0_134_2">
<rect width="1350" height="657" fill="white"/>
</clipPath>
</defs>
</svg>
