<svg width="478" height="63" viewBox="0 0 478 63" fill="none" xmlns="http://www.w3.org/2000/svg">
<path d="M436.587 1.0867L425.819 18.2003L433.991 31.0088L396.395 61.4466L406.088 61.3586L439.068 34.6671L439.079 34.667L449.618 34.5823L432.802 61.116L440.385 61.0472L477.016 0.730627L436.587 1.0867ZM439.629 28.6383L432.951 18.1795L439.939 7.07994L466.774 6.84731L453.387 28.5134L439.629 28.6383Z" fill="white"/>
<path d="M406.087 61.358L396.394 61.446L396.383 61.4571L406.087 61.369L439.067 34.6665L406.087 61.358Z" fill="white"/>
<path d="M422.82 1.21168L388.026 61.7864L381.048 61.8497L399.74 27.7363L369.465 61.8779L343.365 62.016L378.108 1.88142L385.141 1.81757L354.574 55.9345L366.772 55.8457L416.139 1.27234L422.82 1.21168Z" fill="white"/>
<path d="M361.383 17.2817L354.625 17.365L348.68 7.72397L335.856 7.8404L311.276 47.0856L317.839 57.0288L330.157 56.862L333.715 62.5346L314.737 62.7839L304.528 47.1358L332.661 2.1535L351.782 1.9799L361.383 17.2817Z" fill="white"/>
<path d="M299.035 1.33558L277.936 1.61506L240.812 62.145L247.176 62.285L263.504 36.5142L299.748 36.306L310.545 18.7085L299.035 1.33558ZM295.836 7.33334L303.501 18.8055L296.408 30.3786L267.176 30.5451L281.298 7.52029L295.836 7.33334Z" fill="white"/>
<path d="M257.949 0.773651L240.858 28.4421L225.671 28.58L218.169 16.9085L228.136 1.04432L220.916 1.10987L210.982 16.9408L222.375 34.6775L237.089 34.555L223.984 55.7678L194.709 56.0336L190.492 62.5023L227.152 62.1694L265.136 0.708403L257.949 0.773651ZM241.095 33.947L241.1 34.5185L240.737 34.5218L241.095 33.947Z" fill="white"/>
<path d="M240.738 34.5222L241.1 34.5189L241.095 33.9474L240.738 34.5222Z" fill="white"/>
<path d="M241.095 33.9469L241.1 34.5185L240.738 34.5217L241.095 33.9469Z" fill="white"/>
<path d="M240.738 34.5217L241.1 34.5185L241.095 33.9469L240.738 34.5217Z" fill="white"/>
<path d="M162.06 17.0332L155.302 17.1165L149.357 7.47543L136.532 7.59186L111.952 46.8371L118.516 56.7803L130.834 56.6135L134.391 62.2861L115.414 62.5353L105.205 46.8873L133.338 1.90497L152.459 1.73137L162.06 17.0332Z" fill="white"/>
<path d="M78.2762 27.4273L78.0574 27.5835L78.2309 27.2845L78.2762 27.4273Z" fill="white"/>
<path d="M81.3467 25.3443L81.2472 25.4119L81.3239 25.2888L81.3467 25.3443Z" fill="white"/>
<path d="M78.2308 27.2847L78.0577 27.583L78.2761 27.4272L78.2308 27.2847ZM80.9149 28.7772L80.8609 28.8767L80.9373 28.821L80.9149 28.7772ZM81.3229 25.289L81.247 25.4106L81.3453 25.3438L81.3229 25.289Z" fill="white"/>
<path d="M80.9389 28.8218L80.8613 28.8784L80.9162 28.7773L80.9389 28.8218Z" fill="white"/>
<path d="M78.2762 27.4273L78.0574 27.5835L78.2309 27.2845L78.2762 27.4273Z" fill="white"/>
<path d="M80.9389 28.8218L80.8613 28.8784L80.9162 28.7773L80.9389 28.8218Z" fill="white"/>
<path d="M81.3467 25.3443L81.2472 25.4119L81.3239 25.2888L81.3467 25.3443Z" fill="white"/>
<path d="M80.9389 28.8208L80.8613 28.8774L80.9162 28.7763L80.9389 28.8208Z" fill="white"/>
<path d="M81.3477 25.3438L81.2482 25.4114L81.3249 25.2884L81.3477 25.3438Z" fill="white"/>
<path d="M78.2308 27.2842L78.0577 27.5825L78.2761 27.4267L78.2308 27.2842ZM81.3229 25.2885L81.247 25.4101L81.3453 25.3433L81.3229 25.2885Z" fill="white"/>
<path d="M124.908 0.820061L114.699 0.912745L89.2271 18.1928L99.8197 1.04783L92.6218 1.11318L76.5815 27.1013L76.5816 27.1123L69.6714 38.288L55.028 61.9881L62.2149 61.9228L79.0893 34.5971L88.1713 61.6872L95.2805 61.5457L83.9911 28.5729L124.908 0.820061ZM78.0585 27.5825L78.2317 27.2842L78.2769 27.4266L78.0585 27.5825ZM80.8617 28.8761L80.9158 28.7767L80.9382 28.8205L80.8617 28.8761ZM81.2479 25.4101L81.3237 25.2885L81.3462 25.3432L81.2479 25.4101Z" fill="white"/>
<path d="M167.297 27.7803L167.078 27.9365L167.251 27.6376L167.297 27.7803Z" fill="white"/>
<path d="M170.367 25.6973L170.268 25.7649L170.344 25.6419L170.367 25.6973Z" fill="white"/>
<path d="M167.251 27.6377L167.078 27.9361L167.297 27.7802L167.251 27.6377ZM169.935 29.1302L169.881 29.2297L169.958 29.174L169.935 29.1302ZM170.343 25.642L170.268 25.7636L170.366 25.6968L170.343 25.642Z" fill="white"/>
<path d="M169.959 29.1748L169.882 29.2314L169.937 29.1304L169.959 29.1748Z" fill="white"/>
<path d="M167.297 27.7803L167.078 27.9365L167.251 27.6376L167.297 27.7803Z" fill="white"/>
<path d="M169.959 29.1748L169.882 29.2314L169.937 29.1304L169.959 29.1748Z" fill="white"/>
<path d="M170.367 25.6973L170.268 25.7649L170.344 25.6419L170.367 25.6973Z" fill="white"/>
<path d="M169.958 29.1743L169.881 29.2309L169.936 29.1299L169.958 29.1743Z" fill="white"/>
<path d="M170.366 25.6973L170.267 25.7649L170.343 25.6419L170.366 25.6973Z" fill="white"/>
<path d="M167.25 27.6377L167.077 27.9361L167.296 27.7802L167.25 27.6377ZM170.342 25.642L170.267 25.7636L170.365 25.6968L170.342 25.642Z" fill="white"/>
<path d="M213.926 1.17358L203.718 1.26626L178.246 18.5463L188.838 1.40135L181.64 1.46669L165.6 27.4548L165.6 27.4658L158.69 38.6416L144.047 62.3416L151.233 62.2763L168.108 34.9506L177.19 62.0407L184.299 61.8992L173.01 28.9264L213.926 1.17358ZM167.077 27.936L167.25 27.6377L167.295 27.7801L167.077 27.936ZM169.88 29.2296L169.934 29.1302L169.957 29.174L169.88 29.2296ZM170.266 25.7636L170.342 25.642L170.365 25.6968L170.266 25.7636Z" fill="white"/>
<path d="M62.8262 16.499L63.7419 18.1066L63.7744 18.0513L62.8262 16.499Z" fill="white"/>
<path d="M67.2696 18.0526L56.5721 0.639227L38.7485 0.888999L35.1709 6.29661L53.4671 6.05358L60.291 18.061L53.1557 29.8653L20.834 29.862L17.0508 35.6232L49.7352 35.6233L36.9848 55.9865L4.63964 55.8295L0.55222 61.9782L40.2601 62.0684L63.5019 24.3083L63.4359 24.3089L67.2696 18.0526ZM63.7748 18.0513L63.7423 18.1066L62.8265 16.499L63.7748 18.0513Z" fill="white"/>
</svg>
