<svg width="135" height="143" viewBox="0 0 135 143" fill="none" xmlns="http://www.w3.org/2000/svg">
<path d="M44.6721 107.261L37.2672 95.3133L22.6459 95.3537L22.6593 95.3133L29.8354 83.3384L22.417 71.3635L29.9431 59.2809L22.4574 47.4811H22.4978L22.4843 47.4542H37.3076L44.7395 35.5331L59.2531 35.6005L66.6715 23.666L66.7657 23.8142L66.7792 23.8007L74.1976 35.6544L89.6268 35.7217L97.0855 47.5889H111.653L119.166 35.6409L134.151 35.6544L126.678 47.5889H111.72L104.383 59.2001L112.057 71.4174L104.315 83.7425L111.424 95.2729H111.37L111.424 95.3672L97.0586 95.2729L89.5594 107.207L74.1303 107.221L66.685 119.128L59.1319 107.275" fill="white"/>
<path d="M66.6842 23.6534L66.6708 23.6669L59.2793 11.7863L66.8593 0L74.2103 11.8806L74.2238 11.894L66.7785 23.8016L66.6842 23.6534Z" fill="white"/>
<path d="M59.1987 130.996L66.6844 119.129L74.224 130.996H74.2509L66.6979 142.944L59.1987 130.996Z" fill="white"/>
<path d="M126.328 95.2061L133.854 107.275H118.896L111.424 95.3677H111.478L111.424 95.2734L126.328 95.2061Z" fill="white"/>
<path d="M22.4436 47.4528L22.4571 47.4798L7.56648 47.4528L7.53957 47.5067L0 35.5049H15.0118L22.484 47.4528H22.4436Z" fill="white"/>
<path d="M7.51263 95.0713L22.6591 95.3137L15.1868 107.369L15.0387 107.14L0 107.154L7.4184 95.0982L7.44531 95.0713H7.51263Z" fill="white"/>
</svg>
