<svg width="180" height="192" viewBox="0 0 180 192" fill="none" xmlns="http://www.w3.org/2000/svg">
<path d="M179.482 48.074L172.063 59.8738H157.173L164.578 48.0605H164.605L164.564 47.9932L179.482 48.074Z" fill="white"/>
<path d="M14.9846 47.792L22.4838 59.7399H7.53928L0.0131836 47.8728L14.9846 47.792Z" fill="white"/>
<path d="M44.9684 71.6738H30.0778L30.0374 71.7411L22.4844 59.7393H37.4962L44.9684 71.6738Z" fill="white"/>
<path d="M97.2464 36.1119L89.7877 48.0328L82.3154 36.0041H82.3693L82.3558 35.9906L87.7682 27.518L89.8954 24.2178L97.2464 36.0984H97.2599L97.2464 36.1119Z" fill="white"/>
<path d="M89.8967 24.2057L82.3706 12.0961L82.3841 12.0827L89.9236 0L97.3151 11.9749L97.3555 12.0422L89.9102 24.1788V24.1923L89.8967 24.2057Z" fill="white"/>
<path d="M7.41839 131.28L22.309 131.361V131.375L14.9041 143.161L0 143.174L7.41839 131.334H7.45878L7.41839 131.28Z" fill="white"/>
<path d="M142.201 59.8744L134.688 71.8089L119.677 71.8223L119.73 71.9031L119.623 72.0783L119.582 72.0244L119.677 71.8762L119.636 71.8223H119.677L112.218 59.9687H112.204L97.3003 59.9552L97.5022 60.265H97.0041L97.2329 59.8879H97.2599L89.7876 48.0342L82.3289 59.8205L67.344 59.7532L59.9121 71.6742L59.8987 71.7011L59.8852 71.6742H44.9677L44.9811 71.7011H44.9407L52.4803 83.5682H52.4937V83.5817L52.4803 83.5952L45.1561 95.3545L45.0619 95.5027L45.1158 95.5835H45.008L52.2783 107.316L44.9677 119.533L29.8212 119.304H29.7404L29.727 119.331L29.7135 119.304L25.4187 126.309L22.3086 131.36H37.3608L44.9407 119.574L59.7775 119.533L67.2632 131.481L82.1404 131.576L82.0731 131.468H82.2077L82.1942 131.495L82.1808 131.508L89.7203 143.348L97.1656 131.441L97.1791 131.427H112.151L119.623 119.493H119.65L134.46 119.587L134.406 119.493H134.446L127.122 107.612L127.162 107.531L127.257 107.68L134.594 95.7182H134.729L127.216 83.7433L127.189 83.7837L127.176 83.7433L127.041 83.9454L126.92 83.7433H127.176L127.189 83.7029L134.756 71.8089H149.7L157.159 59.9013L157.172 59.8744H142.201ZM52.6015 107.289L52.5072 107.451L52.413 107.289L52.3995 107.276H52.6149L52.6015 107.289ZM59.8852 95.6105L59.8583 95.5701H59.9121L59.8852 95.6105ZM74.7758 71.755H74.8028V71.7819H74.7758V71.755ZM67.2767 107.518L67.2632 107.491L67.1824 107.37H67.344L67.3709 107.316L67.3978 107.276L67.4113 107.302L67.4517 107.37L67.5459 107.518H67.2767ZM74.6412 119.358L74.6547 119.345L74.6681 119.358H74.6412ZM74.8835 95.5431L74.8028 95.4084L74.7355 95.5296L74.6547 95.4084H74.9778L74.8835 95.5431ZM82.3289 107.518H82.3019L82.3154 107.505H82.3423L82.3289 107.518ZM82.3827 83.878H82.3423L82.3558 83.905H82.275L82.2885 83.878H82.2077L82.275 83.7703H82.45L82.3827 83.878ZM82.0865 60.2111L82.275 59.9283L82.2481 59.8879H82.2885L82.275 59.9283L82.45 60.2111H82.0865ZM89.7472 71.755L89.7203 71.8089L89.6799 71.755H89.7472ZM89.6934 95.6509L89.7068 95.6374L89.7338 95.597L89.7742 95.6509H89.6934ZM89.8146 119.641L89.7876 119.601H89.8415L89.8146 119.641ZM90.03 95.7317H89.8146L89.9223 95.5566L90.0031 95.4219H90.1511L90.0031 95.6778L90.03 95.7317ZM97.1791 131.414V131.4H97.1926L97.1791 131.414ZM97.3137 107.599V107.612L97.3003 107.599L97.3541 107.518H97.3676L97.3137 107.599ZM97.3541 83.8511L97.3407 83.878H97.2868L97.3137 83.8376L97.3003 83.8107H97.2733L97.2868 83.7972L97.3003 83.8107H97.3811L97.3541 83.8511ZM104.759 71.8627L104.786 71.8223L104.813 71.7684L104.84 71.8223L104.88 71.8762L104.759 71.8627ZM104.813 95.5162L104.799 95.5296L104.786 95.5162H104.813ZM104.921 95.7182H104.597L104.665 95.6105H104.759L104.799 95.5431L104.853 95.6105H104.948L104.894 95.6778V95.6913L104.921 95.7182ZM112.299 83.8107L112.285 83.8242L112.272 83.8107L112.312 83.7433H112.339L112.379 83.8107H112.299ZM119.65 95.7048L119.663 95.6913L119.677 95.7048H119.65ZM119.784 95.7048L119.811 95.6509L119.852 95.7048H119.784Z" fill="white"/>
<path d="M82.2622 179.098L89.7345 167.163L97.3009 179.098L89.7614 191.046L82.2622 179.098Z" fill="white"/>
<path d="M82.2349 155.229L89.7206 143.349L97.2736 155.229L89.734 167.164L82.2349 155.229Z" fill="white"/>
<path d="M179.388 143.362L164.497 143.389L156.958 131.508L156.944 131.481L171.902 131.495L171.875 131.549H171.902L179.388 143.362Z" fill="white"/>
<path d="M149.364 119.426L156.89 131.508L141.932 131.495L134.46 119.587H134.5L134.446 119.493L149.364 119.426Z" fill="white"/>
</svg>
