<svg width="193" height="77" viewBox="0 0 193 77" fill="none" xmlns="http://www.w3.org/2000/svg">
<g clip-path="url(#clip0_194_4)">
<path d="M9.51811 1.06348V15.9307H5.67175V1.06348H0V38.1342H5.67175V21.8387H9.51811V38.1342H15.1247V1.06348H9.51811Z" fill="white"/>
<path d="M24.7731 38.5241H23.6648C19.1665 38.5241 16.7544 36.0571 16.7544 31.5125V24.1113H22.361V30.6036C22.361 32.2916 22.8825 33.2005 24.1863 33.2005C25.5554 33.2005 26.0117 32.2916 26.0117 30.0193V29.1753C26.0117 26.5135 25.751 25.6046 23.73 22.9427L20.2096 18.3332C17.7975 15.217 17.0804 12.8798 17.0804 9.17918V8.01057C17.0804 3.01154 19.6229 0.739258 24.056 0.739258H25.099C29.7277 0.739258 31.5531 2.75185 31.5531 7.16658V13.2693H26.0769V7.88073C26.0769 6.6472 25.8162 5.67336 24.4471 5.67336C23.0781 5.67336 22.8173 6.51736 22.8173 8.27026V8.98441C22.8173 11.0619 23.2085 12.2305 25.099 14.6327L28.6846 19.2422C31.2271 22.5532 32.0094 24.436 32.0094 28.591V29.7596C32.0746 35.278 29.7277 38.5241 24.7731 38.5241Z" fill="white"/>
<path d="M46.5475 1.06348V6.45204H39.3763V16.1904H44.9829V21.7737H39.3763V32.4859H46.8735V38.1342H33.7046V1.06348H46.5475Z" fill="white"/>
<path d="M62.1285 31.1875H58.0214L57.2391 38.1342H52.2192L56.7827 1.06348H63.4975L68.3218 38.1342H62.8456L62.1285 31.1875ZM61.4766 25.6691L59.9771 11.9704L58.5429 25.6691H61.4766Z" fill="white"/>
<path d="M74.8412 38.1342H69.1694V1.06348H78.2964C82.0775 1.06348 83.9681 2.68654 83.9681 6.77665V13.3338C83.9681 16.4501 82.5339 17.6187 81.4908 18.0732C82.7295 18.5925 83.9681 19.6313 83.9681 22.0984V35.0828C83.9681 36.5761 84.2941 37.2902 84.4897 37.8096V38.0693H78.8831C78.6223 37.6797 78.3616 37.0305 78.3616 35.0179V23.9162C78.3616 22.2931 78.0356 21.579 76.2754 21.579H74.8412V38.1342ZM74.8412 16.3203H76.3406C77.9052 16.3203 78.3616 15.3464 78.3616 13.6584V8.46464C78.3616 6.84157 78.0356 6.06251 76.3406 6.06251H74.8412V16.3203Z" fill="white"/>
<path d="M95.4418 6.45204V38.1342H89.8352V6.45204H85.0762V1.06348H100.136V6.45204H95.4418Z" fill="white"/>
<path d="M115.391 31.1875H111.284L110.501 38.1342H105.481L110.045 1.06348H116.695L121.519 38.1342H116.043L115.391 31.1875ZM114.739 25.6691L113.239 11.9704L111.805 25.6691H114.739Z" fill="white"/>
<path d="M127.582 1.06348L132.406 20.9297V1.06348H137.556V38.1342H132.993L127.582 16.8396V38.1342H122.432V1.06348H127.582Z" fill="white"/>
<path d="M139.643 1.06348H148.313C153.137 1.06348 154.637 3.79022 154.637 8.20495V30.733C154.637 35.2776 152.942 38.1342 148.313 38.1342H139.643V1.06348ZM145.314 32.7456H146.683C148.378 32.7456 148.9 31.8367 148.9 29.889V8.98402C148.9 6.84157 148.378 6.12743 146.944 6.12743H145.314V32.7456Z" fill="white"/>
<path d="M0 38.9141H8.6706C13.4948 38.9141 14.9943 41.6408 14.9943 46.0555V68.5836C14.9943 73.1282 13.2993 75.9848 8.6706 75.9848H0V38.9141ZM5.67175 70.5313H7.04079C8.7358 70.5313 9.25734 69.6224 9.25734 67.6747V46.8346C9.25734 44.6922 8.7358 43.978 7.30156 43.978H5.67175V70.5313Z" fill="white"/>
<path d="M29.8581 38.9141V44.2377H22.6217V53.9761H28.2934V59.6243H22.6217V70.3365H30.184V75.9199H17.0151V38.9141H29.8581Z" fill="white"/>
<path d="M39.1808 76.3088H38.0725C33.5742 76.3088 31.1621 73.8418 31.1621 69.2972V61.896H36.7687V68.3883C36.7687 70.0763 37.2902 70.9852 38.5941 70.9852C39.9631 70.9852 40.4194 70.0763 40.4194 67.804V66.96C40.4194 64.2982 40.1587 63.3892 38.1377 60.7274L34.5521 56.1179C32.14 53.0017 31.4229 50.6644 31.4229 46.9639V45.7953C31.4229 40.8612 33.9002 38.5889 38.3985 38.5889H39.4416C44.0702 38.5889 45.8956 40.6015 45.8956 45.0162V51.1189H40.4194V45.7953C40.4194 44.5617 40.1587 43.5879 38.7896 43.5879C37.4206 43.5879 37.1598 44.4319 37.1598 46.1848V46.834C37.1598 48.9115 37.551 50.0801 39.4416 52.4823L43.0271 57.0918C45.5696 60.4028 46.352 62.2856 46.352 66.4406V67.6092C46.4823 73.1276 44.1354 76.3088 39.1808 76.3088Z" fill="white"/>
<path d="M53.7186 38.9141H48.0469V75.9848H53.7186V38.9141Z" fill="white"/>
<path d="M61.0853 76.4391C57.7605 76.4391 55.6743 73.5176 55.6743 69.6872V46.5099C55.6743 42.3548 57.3041 38.5244 62.6499 38.5244H63.7582C69.8211 38.5244 70.5382 42.4847 70.5382 46.8345V50.6H65.062V46.445C65.062 44.8219 64.6709 43.913 63.2366 43.913C62.0632 43.913 61.4764 44.8219 61.4764 46.445V68.1291C61.4764 69.882 62.1936 70.7909 63.3018 70.7909C64.7361 70.7909 65.388 69.817 65.388 68.3888V59.1048H62.8455V53.4566H70.7338V75.9847H67.5393C67.4741 75.7899 67.0178 73.9721 66.5614 72.349C66.1703 73.5826 64.2797 76.5041 61.4112 76.5041H61.0853V76.4391Z" fill="white"/>
<path d="M77.7745 38.9141L82.5987 58.7803V38.9141H87.7489V75.9199H83.1854L77.7745 54.6253V75.9199H72.6895V38.9141H77.7745Z" fill="white"/>
<path d="M102.483 76.3088H101.374C96.876 76.3088 94.4639 73.8418 94.4639 69.2972V61.896H100.07V68.3883C100.07 70.0763 100.592 70.9852 101.896 70.9852C103.265 70.9852 103.721 70.0763 103.721 67.804V66.96C103.721 64.2982 103.46 63.3892 101.439 60.7274L97.8539 56.1179C95.4418 53.0017 94.7246 50.6644 94.7246 46.9639V45.7953C94.7246 40.8612 97.202 38.5889 101.7 38.5889H102.743C107.372 38.5889 109.197 40.6015 109.197 45.0162V51.1189H103.721V45.7953C103.721 44.5617 103.46 43.5879 102.091 43.5879C100.722 43.5879 100.462 44.4319 100.462 46.1848V46.834C100.462 48.9115 100.853 50.0801 102.743 52.4823L106.329 57.0918C108.871 60.4028 109.654 62.2856 109.654 66.4406V67.6092C109.784 73.1276 107.437 76.3088 102.483 76.3088Z" fill="white"/>
<path d="M120.671 68.3883V59.8185H126.213V68.3883C126.213 72.3485 124.909 76.3737 119.433 76.3737H118.194C112.522 76.3737 111.218 72.2836 111.218 68.583V45.99C111.218 42.2245 112.848 38.5889 117.998 38.5889H119.302C125.495 38.5889 126.213 42.679 126.213 46.3146V52.9367H120.671V46.4445C120.671 44.8214 120.15 43.9774 118.781 43.9774C117.412 43.9774 117.02 44.7565 117.02 46.4445V68.4532C117.02 70.0763 117.542 70.9852 118.846 70.9852C120.15 70.9202 120.671 69.8815 120.671 68.3883Z" fill="white"/>
<path d="M137.491 59.6243H133.645V75.9199H128.038V38.9141H133.645V53.7164H137.491V38.9141H143.163V75.9199H137.491V59.6243Z" fill="white"/>
<path d="M160.569 67.6746C160.569 72.8684 158.809 76.3742 153.398 76.3742H152.42C147.009 76.3742 145.119 72.8684 145.119 67.6746V47.0293C145.119 41.9004 147.074 38.5244 152.355 38.5244H153.333C158.809 38.5244 160.569 41.9004 160.569 46.9643V67.6746ZM154.832 46.7696C154.832 44.8219 154.18 43.913 152.877 43.913C151.442 43.913 150.856 44.8868 150.856 46.7696V68.0641C150.856 69.6872 151.312 70.9207 152.877 70.9207C154.376 70.9207 154.767 69.6872 154.767 68.0641V46.7696H154.832Z" fill="white"/>
<path d="M177.845 67.6746C177.845 72.8684 176.085 76.3742 170.674 76.3742H169.696C164.285 76.3742 162.395 72.8684 162.395 67.6746V47.0293C162.395 41.9004 164.35 38.5244 169.631 38.5244H170.609C176.085 38.5244 177.845 41.9004 177.845 46.9643V67.6746ZM172.043 46.7696C172.043 44.8219 171.391 43.913 170.087 43.913C168.653 43.913 168.066 44.8868 168.066 46.7696V68.0641C168.066 69.6872 168.523 70.9207 170.087 70.9207C171.587 70.9207 171.978 69.6872 171.978 68.0641V46.7696H172.043Z" fill="white"/>
<path d="M185.408 38.9141V70.2067H192.318V75.9199H179.736V38.9141H185.408Z" fill="white"/>
<rect x="126.095" y="76.2393" width="550.851" height="125.141" fill="#C4C4C4"/>
</g>
<defs>
<clipPath id="clip0_194_4">
<rect width="192.318" height="75.6996" fill="white" transform="translate(0 0.739258)"/>
</clipPath>
</defs>
</svg>
