<svg width="193" height="77" viewBox="0 0 193 77" fill="none" xmlns="http://www.w3.org/2000/svg">
<g clip-path="url(#clip0_235_226)">
<path d="M9.51811 1.06396V15.9312H5.67175V1.06396H0V38.1347H5.67175V21.8391H9.51811V38.1347H15.1247V1.06396H9.51811Z" fill="white"/>
<path d="M24.7736 38.5241H23.6653C19.167 38.5241 16.7549 36.0571 16.7549 31.5125V24.1113H22.3614V30.6036C22.3614 32.2916 22.883 33.2005 24.1868 33.2005C25.5559 33.2005 26.0122 32.2916 26.0122 30.0193V29.1753C26.0122 26.5135 25.7515 25.6046 23.7305 22.9427L20.2101 18.3332C17.798 15.217 17.0808 12.8798 17.0808 9.17918V8.01057C17.0808 3.01154 19.6234 0.739258 24.0564 0.739258H25.0995C29.7282 0.739258 31.5536 2.75185 31.5536 7.16658V13.2693H26.0774V7.88073C26.0774 6.6472 25.8166 5.67336 24.4476 5.67336C23.0786 5.67336 22.8178 6.51736 22.8178 8.27026V8.98441C22.8178 11.0619 23.2089 12.2305 25.0995 14.6327L28.6851 19.2422C31.2276 22.5532 32.0099 24.436 32.0099 28.591V29.7596C32.0751 35.278 29.7282 38.5241 24.7736 38.5241Z" fill="white"/>
<path d="M46.547 1.06396V6.45253H39.3758V16.1909H44.9824V21.7742H39.3758V32.4864H46.873V38.1347H33.7041V1.06396H46.547Z" fill="white"/>
<path d="M62.128 31.188H58.0209L57.2386 38.1347H52.2188L56.7822 1.06396H63.497L68.3213 38.1347H62.8451L62.128 31.188ZM61.4761 25.6696L59.9767 11.9709L58.5424 25.6696H61.4761Z" fill="white"/>
<path d="M74.8407 38.1347H69.1689V1.06396H78.2959C82.0771 1.06396 83.9676 2.68703 83.9676 6.77714V13.3343C83.9676 16.4506 82.5334 17.6192 81.4903 18.0736C82.729 18.593 83.9676 19.6318 83.9676 22.0988V35.0833C83.9676 36.5765 84.2936 37.2907 84.4892 37.8101V38.0698H78.8826C78.6219 37.6802 78.3611 37.031 78.3611 35.0184V23.9167C78.3611 22.2936 78.0351 21.5795 76.2749 21.5795H74.8407V38.1347ZM74.8407 16.3207H76.3401C77.9047 16.3207 78.3611 15.3469 78.3611 13.6589V8.46512C78.3611 6.84206 78.0351 6.06299 76.3401 6.06299H74.8407V16.3207Z" fill="white"/>
<path d="M95.4418 6.45253V38.1347H89.8352V6.45253H85.0762V1.06396H100.136V6.45253H95.4418Z" fill="white"/>
<path d="M115.391 31.188H111.284L110.501 38.1347H105.481L110.045 1.06396H116.695L121.519 38.1347H116.043L115.391 31.188ZM114.739 25.6696L113.239 11.9709L111.805 25.6696H114.739Z" fill="white"/>
<path d="M127.582 1.06396L132.406 20.9302V1.06396H137.556V38.1347H132.993L127.582 16.8401V38.1347H122.432V1.06396H127.582Z" fill="white"/>
<path d="M139.643 1.06396H148.313C153.137 1.06396 154.637 3.79071 154.637 8.20543V30.7335C154.637 35.2781 152.942 38.1347 148.313 38.1347H139.643V1.06396ZM145.314 32.7461H146.683C148.378 32.7461 148.9 31.8372 148.9 29.8895V8.9845C148.9 6.84206 148.378 6.12792 146.944 6.12792H145.314V32.7461Z" fill="white"/>
<path d="M0 38.9136H8.6706C13.4948 38.9136 14.9943 41.6403 14.9943 46.055V68.5831C14.9943 73.1277 13.2993 75.9843 8.6706 75.9843H0V38.9136ZM5.67175 70.5308H7.04079C8.7358 70.5308 9.25734 69.6219 9.25734 67.6742V46.8341C9.25734 44.6917 8.7358 43.9775 7.30156 43.9775H5.67175V70.5308Z" fill="white"/>
<path d="M29.8585 38.9136V44.2372H22.6222V53.9756H28.2939V59.6238H22.6222V70.3361H30.1845V75.9194H17.0156V38.9136H29.8585Z" fill="white"/>
<path d="M39.1808 76.3088H38.0725C33.5742 76.3088 31.1621 73.8418 31.1621 69.2972V61.896H36.7687V68.3883C36.7687 70.0763 37.2902 70.9852 38.5941 70.9852C39.9631 70.9852 40.4194 70.0763 40.4194 67.804V66.96C40.4194 64.2982 40.1587 63.3892 38.1377 60.7274L34.5521 56.1179C32.14 53.0017 31.4229 50.6644 31.4229 46.9639V45.7953C31.4229 40.8612 33.9002 38.5889 38.3985 38.5889H39.4416C44.0702 38.5889 45.8956 40.6015 45.8956 45.0162V51.1189H40.4194V45.7953C40.4194 44.5617 40.1587 43.5879 38.7896 43.5879C37.4206 43.5879 37.1598 44.4319 37.1598 46.1848V46.834C37.1598 48.9115 37.551 50.0801 39.4416 52.4823L43.0271 57.0918C45.5696 60.4028 46.352 62.2856 46.352 66.4406V67.6092C46.4823 73.1276 44.1354 76.3088 39.1808 76.3088Z" fill="white"/>
<path d="M53.7186 38.9136H48.0469V75.9843H53.7186V38.9136Z" fill="white"/>
<path d="M61.0858 76.4387C57.761 76.4387 55.6748 73.5171 55.6748 69.6867V46.5094C55.6748 42.3544 57.3046 38.5239 62.6504 38.5239H63.7587C69.8216 38.5239 70.5387 42.4842 70.5387 46.834V50.5995H65.0625V46.4445C65.0625 44.8214 64.6714 43.9125 63.2371 43.9125C62.0637 43.9125 61.4769 44.8214 61.4769 46.4445V68.1286C61.4769 69.8815 62.194 70.7904 63.3023 70.7904C64.7365 70.7904 65.3885 69.8166 65.3885 68.3883V59.1044H62.846V53.4561H70.7343V75.9842H67.5398C67.4746 75.7894 67.0183 73.9716 66.5619 72.3485C66.1708 73.5821 64.2802 76.5036 61.4117 76.5036H61.0858V76.4387Z" fill="white"/>
<path d="M77.7745 38.9136L82.5987 58.7799V38.9136H87.7489V75.9194H83.1854L77.7745 54.6248V75.9194H72.6895V38.9136H77.7745Z" fill="white"/>
<path d="M102.483 76.3088H101.374C96.876 76.3088 94.4639 73.8418 94.4639 69.2972V61.896H100.07V68.3883C100.07 70.0763 100.592 70.9852 101.896 70.9852C103.265 70.9852 103.721 70.0763 103.721 67.804V66.96C103.721 64.2982 103.46 63.3892 101.439 60.7274L97.8539 56.1179C95.4418 53.0017 94.7246 50.6644 94.7246 46.9639V45.7953C94.7246 40.8612 97.202 38.5889 101.7 38.5889H102.743C107.372 38.5889 109.197 40.6015 109.197 45.0162V51.1189H103.721V45.7953C103.721 44.5617 103.46 43.5879 102.091 43.5879C100.722 43.5879 100.462 44.4319 100.462 46.1848V46.834C100.462 48.9115 100.853 50.0801 102.743 52.4823L106.329 57.0918C108.871 60.4028 109.654 62.2856 109.654 66.4406V67.6092C109.784 73.1276 107.437 76.3088 102.483 76.3088Z" fill="white"/>
<path d="M120.672 68.3883V59.8185H126.213V68.3883C126.213 72.3485 124.909 76.3737 119.433 76.3737H118.194C112.523 76.3737 111.219 72.2836 111.219 68.583V45.99C111.219 42.2245 112.849 38.5889 117.999 38.5889H119.303C125.496 38.5889 126.213 42.679 126.213 46.3146V52.9367H120.672V46.4445C120.672 44.8214 120.15 43.9774 118.781 43.9774C117.412 43.9774 117.021 44.7565 117.021 46.4445V68.4532C117.021 70.0763 117.542 70.9852 118.846 70.9852C120.15 70.9202 120.672 69.8815 120.672 68.3883Z" fill="white"/>
<path d="M137.491 59.6238H133.645V75.9194H128.038V38.9136H133.645V53.7159H137.491V38.9136H143.163V75.9194H137.491V59.6238Z" fill="white"/>
<path d="M160.569 67.6741C160.569 72.8679 158.809 76.3737 153.398 76.3737H152.42C147.009 76.3737 145.118 72.8679 145.118 67.6741V47.0288C145.118 41.8999 147.074 38.5239 152.355 38.5239H153.332C158.809 38.5239 160.569 41.8999 160.569 46.9638V67.6741ZM154.832 46.7691C154.832 44.8214 154.18 43.9125 152.876 43.9125C151.442 43.9125 150.855 44.8863 150.855 46.7691V68.0636C150.855 69.6867 151.311 70.9202 152.876 70.9202C154.376 70.9202 154.767 69.6867 154.767 68.0636V46.7691H154.832Z" fill="white"/>
<path d="M177.845 67.6741C177.845 72.8679 176.085 76.3737 170.674 76.3737H169.696C164.285 76.3737 162.395 72.8679 162.395 67.6741V47.0288C162.395 41.8999 164.35 38.5239 169.631 38.5239H170.609C176.085 38.5239 177.845 41.8999 177.845 46.9638V67.6741ZM172.043 46.7691C172.043 44.8214 171.391 43.9125 170.087 43.9125C168.653 43.9125 168.066 44.8863 168.066 46.7691V68.0636C168.066 69.6867 168.523 70.9202 170.087 70.9202C171.587 70.9202 171.978 69.6867 171.978 68.0636V46.7691H172.043Z" fill="white"/>
<path d="M185.407 38.9136V70.2062H192.318V75.9194H179.735V38.9136H185.407Z" fill="white"/>
</g>
<defs>
<clipPath id="clip0_235_226">
<rect width="192.318" height="75.6996" fill="white" transform="translate(0 0.739258)"/>
</clipPath>
</defs>
</svg>
