<svg width="60" height="52" viewBox="0 0 60 52" fill="none" xmlns="http://www.w3.org/2000/svg">
<g clip-path="url(#clip0_175_2654)">
<path d="M33.7472 25.5376L27.2588 35.6983H25.9452L29.2434 30.4462L24.1479 35.6849L19.6455 35.6699L26.125 25.5824H27.4445L21.7679 34.563L23.6716 34.566L32.4921 25.5376H33.7472Z" fill="white"/>
<path d="M45.3483 25.6316L38.9512 35.8222H37.6286L41.5154 29.5558L34.5761 36.0149L36.1773 28.7924L31.603 35.7564H30.2715L36.7479 25.6182H38.0345L36.384 32.9915L44.0931 25.6316H45.3483Z" fill="white"/>
<path d="M18.9787 30.8271V30.9247H18.917L18.9787 30.8271Z" fill="white"/>
<path d="M18.9787 30.8271V30.9247H18.917L18.9787 30.8271Z" fill="white"/>
<path d="M21.953 25.6065L19.0742 30.1147L14.0986 30.1058L16.9713 25.6065H15.6368L12.7655 30.1028L12.7461 30.1342L9.15137 35.7523H10.4844L13.3871 31.2157L18.3643 31.2231L15.475 35.7493H16.8081L23.286 25.6035L21.953 25.6065ZM18.9784 30.8273V30.9169H18.917L18.9784 30.8273Z" fill="white"/>
<path d="M18.9787 30.8271V30.9247H18.917L18.9787 30.8271Z" fill="white"/>
<path d="M12.7461 30.1025H12.766L12.7461 30.1345V30.1025Z" fill="white"/>
<path d="M18.9787 30.8271V30.9247H18.917L18.9787 30.8271Z" fill="white"/>
<path d="M28.2571 10.5894H24.9515L20.0537 18.2435L21.7941 20.9592L25.0084 20.9457L29.8103 13.1407L28.2571 10.5894ZM22.3663 19.9195L21.2819 18.245L25.5236 11.6245H27.6805L28.5791 13.1333L24.4258 19.9106L22.3663 19.9195Z" fill="white"/>
<path d="M18.3536 45.3228L19.754 42.867L18.2802 40.4067L14.9521 40.4187L10.3359 47.6471L11.9236 50.2179H18.1604L19.79 47.7068L18.3536 45.3228ZM12.662 49.0214L11.8158 47.6232L13.0409 45.7052L17.2348 45.7664L18.433 47.6859L17.5343 49.0513L12.662 49.0214ZM17.6392 41.5525L18.4195 42.8491L17.392 44.5983L13.7629 44.54L15.6576 41.5614L17.6392 41.5525Z" fill="white"/>
<path d="M26.6039 41.6602L24.6163 44.7882L27.2 44.7778L26.4721 45.931L23.8824 45.9414L21.8888 49.0784L26.8435 49.1501L26.0961 50.2958L19.7725 50.2181L25.9643 40.513L32.3958 40.4458L31.6799 41.599L26.6039 41.6602Z" fill="white"/>
<path d="M60.0001 40.4666L53.7843 50.3674H52.4108L56.0249 44.5416L49.4751 50.6363L50.9969 43.7738L46.7072 50.3046H45.3232L51.6155 40.4547H52.3748L52.4422 40.3501L52.4198 40.4547H52.932L51.3623 47.4695L58.697 40.4666H60.0001Z" fill="white"/>
<path d="M46.0139 40.3594H42.8116L38.1445 47.6475L39.8355 50.2855L42.9524 50.2736L47.5267 42.8331L46.0139 40.3594ZM40.4616 49.1533L39.4895 47.6595L43.4377 41.4991H45.3849L46.1877 42.8435L42.3189 49.1413L40.4616 49.1533Z" fill="white"/>
<path d="M41.3751 40.5068L40.6876 41.6615L40.6861 41.6645L37.6351 41.666L32.1127 50.3165H30.7393L36.2556 41.666H33.2076L33.8442 40.5068L36.994 40.5083H37.2337L41.3751 40.5068Z" fill="white"/>
<path d="M40.7008 41.6661H37.6348L40.6858 41.6646L40.6873 41.6616L40.7008 41.6661Z" fill="white"/>
<path d="M7.11119 49.0558L12.5512 40.4307H11.1822L5.73921 49.0587L2.09059 49.0513L7.50211 40.4307H6.13313L-0.0078125 50.2015L6.11965 50.2164H6.37128L8.13268 50.206L9.2725 51.9985H10.6445L8.77523 49.0468L7.11119 49.0558ZM6.12264 49.0558H6.13313L6.12264 49.0722V49.0558Z" fill="white"/>
<path d="M6.13289 49.062L6.12305 49.0778V49.062H6.13289Z" fill="white"/>
<path d="M6.13289 49.062L6.12305 49.0778V49.062H6.13289Z" fill="white"/>
<path d="M6.37858 50.2163L6.12695 50.2178V50.2163H6.37858Z" fill="white"/>
<path d="M32.0022 0L27.7949 6.49197L36.208 6.49496L32.0022 0Z" fill="white"/>
<path d="M39.0203 10.812H38.0273L31.6437 17.4728L28.1074 17.5714L29.9183 20.8577L31.0491 20.8263L29.9108 18.5184H31.9837H33.2029H34.6273H34.7936L37.0298 18.505L35.5919 20.8353H36.7901L38.8571 17.4608L35.0227 17.4832L39.0203 10.812ZM31.9807 17.4728H32.0242L31.9807 17.5176V17.4728ZM33.847 17.4728H33.0981L35.1351 15.3815L33.847 17.4728Z" fill="white"/>
<path d="M33.2027 18.5079L34.6286 18.4989L33.2027 18.5079ZM31.9805 17.4727V17.5175L32.0239 17.4727H31.9805Z" fill="white"/>
<path d="M32.0237 17.4727L31.9805 17.5177V17.4727H32.0237Z" fill="white"/>
</g>
<defs>
<clipPath id="clip0_175_2654">
<rect width="60" height="52" fill="white"/>
</clipPath>
</defs>
</svg>
