<svg width="800" height="999" viewBox="0 0 800 999" fill="none" xmlns="http://www.w3.org/2000/svg">
<path fill-rule="evenodd" clip-rule="evenodd" d="M562.446 666.056L637.062 195.218L646.938 196.783L572.135 668.807L547.676 727.274L571.386 761.132L563.195 766.868L536.324 728.497L562.446 666.056Z" fill="#2542E6"/>
<path d="M452.929 239.865C452.929 275.071 476.385 314.069 489.676 329.223C519.074 363.713 559.782 419.624 581.935 442.878L554.57 484.423L549.879 653.733L515.477 762.686L454.492 810.5L414.618 805.013L176.935 450.717C204.456 464.512 213.942 444.97 216.809 433.474C259.029 419.365 289.521 393.498 289.521 393.498C289.521 393.498 296.558 406.039 307.504 398.985C315.003 394.152 307.504 374.686 326.269 370.766V398.985L398.199 363.71V321.384C362.546 309.47 357.803 274.093 359.888 257.893L384.907 250.055C369.896 224.345 366.143 198.06 366.143 188.131L398.199 140.317C403.672 136.396 409.145 134.515 418.527 139.531C425.564 143.294 452.929 172.455 452.929 172.455V239.865Z" fill="#2542E6"/>
<path fill-rule="evenodd" clip-rule="evenodd" d="M592.5 704C601.008 704 608 696.89 608 688C608 679.11 601.008 672 592.5 672C583.992 672 577 679.11 577 688C577 696.89 583.992 704 592.5 704ZM592.5 706C602.165 706 610 697.941 610 688C610 678.059 602.165 670 592.5 670C582.835 670 575 678.059 575 688C575 697.941 582.835 706 592.5 706Z" fill="white"/>
<path d="M610 323C610 332.941 602.165 341 592.5 341C582.835 341 575 332.941 575 323C575 313.059 582.835 305 592.5 305C602.165 305 610 313.059 610 323Z" fill="white"/>
<path d="M0 259.24L23.3577 243.483L520.925 981.058L497.567 996.815L0 259.24Z" fill="#2542E6"/>
<path d="M754.789 592.575L771.972 614.905L279.168 994.119L261.985 971.789L754.789 592.575Z" fill="#2542E6"/>
<path fill-rule="evenodd" clip-rule="evenodd" d="M464.276 833.804L395.406 824.259L385.767 893.804L454.638 903.349L464.276 833.804ZM386.873 812.98L374.489 902.336L463.17 914.627L475.554 825.271L386.873 812.98Z" fill="#2542E6"/>
<path fill-rule="evenodd" clip-rule="evenodd" d="M310.88 7.51588L317.989 0.483398L472.939 157.129L770.834 211.593L769.035 221.43L516.95 175.341L496.936 300.411L574.344 400.359L770.695 430.558L769.175 440.442L568.881 409.636L486.377 303.109L507.111 173.542L468.044 166.4L310.88 7.51588Z" fill="#2542E6"/>
<path d="M344.638 555H347.038V540.12H353.182V538.44H338.494V540.12H344.638V555Z" fill="white"/>
<path d="M355.345 561.24H357.625V553.752C358.561 554.664 359.881 555.24 361.681 555.24C364.729 555.24 367.225 552.552 367.225 548.76C367.225 544.992 364.897 542.28 361.657 542.28C359.881 542.28 358.417 543.048 357.625 544.032V542.52H355.345V561.24ZM360.961 553.728C359.353 553.728 358.249 552.912 357.625 552.144V545.328C358.153 544.632 359.209 543.84 360.961 543.84C363.481 543.84 364.825 545.952 364.825 548.76C364.825 551.64 363.481 553.728 360.961 553.728Z" fill="white"/>
<path d="M375.183 555.24C378.759 555.24 381.231 552.552 381.231 548.76C381.231 545.016 378.759 542.28 375.183 542.28C371.631 542.28 369.135 545.016 369.135 548.76C369.135 552.552 371.631 555.24 375.183 555.24ZM375.183 553.872C372.807 553.872 371.535 551.808 371.535 548.76C371.535 545.76 372.807 543.648 375.183 543.648C377.559 543.648 378.831 545.76 378.831 548.76C378.831 551.808 377.559 553.872 375.183 553.872Z" fill="white"/>
<path d="M383.751 555H386.031V543.96H391.311V555H393.591V542.52H383.751V555Z" fill="white"/>
<path d="M396.76 548.448H399.16C398.848 547.848 398.68 547.224 398.68 546.648C398.68 544.656 399.856 543.648 401.68 543.648C403.84 543.648 404.896 544.656 404.896 547.104V547.656L402.76 548.016C399.832 548.52 396.736 548.88 396.736 552.12C396.736 554.448 398.608 555.24 400.552 555.24C402.4 555.24 403.912 554.328 404.896 553.368V555H407.176V547.344C407.176 543.624 405.016 542.28 401.776 542.28C398.536 542.28 396.352 543.888 396.352 546.552C396.352 547.128 396.4 547.776 396.76 548.448ZM399.136 551.904C399.136 550.488 400.072 549.672 402.712 549.264L404.896 548.928V551.976C404.104 552.72 402.736 553.632 401.104 553.632C400.096 553.632 399.136 553.152 399.136 551.904Z" fill="white"/>
<path d="M410.165 561.24H412.445V553.752C413.381 554.664 414.701 555.24 416.501 555.24C419.549 555.24 422.045 552.552 422.045 548.76C422.045 544.992 419.717 542.28 416.477 542.28C414.701 542.28 413.237 543.048 412.445 544.032V542.52H410.165V561.24ZM415.781 553.728C414.173 553.728 413.069 552.912 412.445 552.144V545.328C412.973 544.632 414.029 543.84 415.781 543.84C418.301 543.84 419.645 545.952 419.645 548.76C419.645 551.64 418.301 553.728 415.781 553.728Z" fill="white"/>
<path d="M435.524 549.456H433.124C434.228 552.816 432.332 553.872 430.484 553.872C427.628 553.872 426.356 551.856 426.356 548.88V548.688H435.836V548.256C435.836 543.864 433.1 542.28 430.076 542.28C426.404 542.28 423.956 545.064 423.956 548.88C423.956 552.792 426.428 555.24 430.316 555.24C433.556 555.24 436.604 553.416 435.524 549.456ZM430.148 543.648C431.78 543.648 433.22 544.56 433.484 547.368H426.452C426.788 544.848 428.012 543.648 430.148 543.648ZM428.756 538.008C428.756 537.168 428.084 536.52 427.268 536.52C426.404 536.52 425.78 537.168 425.78 538.008C425.78 538.944 426.404 539.52 427.268 539.52C428.084 539.52 428.756 538.944 428.756 538.008ZM434.036 538.008C434.036 537.168 433.364 536.52 432.548 536.52C431.684 536.52 431.06 537.168 431.06 538.008C431.06 538.944 431.684 539.52 432.548 539.52C433.364 539.52 434.036 538.944 434.036 538.008Z" fill="white"/>
<path d="M438.431 555H444.431C447.455 555 448.823 553.536 448.823 551.664C448.823 549.312 446.927 548.52 445.367 548.472C446.783 548.328 448.343 547.368 448.343 545.544C448.343 543.864 446.927 542.52 443.927 542.52H438.431V555ZM443.183 547.944H440.711V543.96H443.183C445.319 543.96 445.943 544.848 445.943 545.904C445.943 547.128 445.319 547.944 443.183 547.944ZM443.567 553.56H440.711V549.288H443.591C445.463 549.288 446.423 549.984 446.423 551.376C446.423 552.936 445.367 553.56 443.567 553.56Z" fill="white"/>
<path d="M461.956 547.728C462.772 544.08 460.612 542.28 457.036 542.28C453.316 542.28 450.628 544.824 450.628 548.88C450.628 552.84 453.268 555.24 456.868 555.24C460.3 555.24 462.364 553.32 461.524 549.816H459.052C459.868 552.312 459.076 553.872 456.868 553.872C454.66 553.872 453.028 552.312 453.028 548.88C453.028 545.568 454.516 543.648 456.868 543.648C459.364 543.648 460.228 545.088 459.556 547.728H461.956Z" fill="white"/>
<path d="M464.798 555H467.078V549.216L472.958 555H475.958L469.142 548.28L475.238 542.52H473.198L467.078 548.28V542.52H464.798V555Z" fill="white"/>
<path d="M479.804 555L485.684 545.16V555H487.964V542.52H485.684L479.804 552.36V542.52H477.524V555H479.804Z" fill="white"/>
<path d="M493.375 555L499.255 545.16V555H501.535V542.52H499.255L493.375 552.36V542.52H491.095V555H493.375ZM500.311 536.52H498.247C498.415 536.904 498.439 537.216 498.439 537.504C498.463 538.752 497.791 539.352 496.375 539.352C495.055 539.352 494.263 538.776 494.263 537.504C494.263 537.216 494.263 536.904 494.455 536.52H492.391C492.271 536.88 492.247 537.216 492.247 537.48C492.247 539.304 493.471 540.408 496.375 540.408C499.351 540.408 500.455 539.208 500.455 537.36C500.455 537.096 500.407 536.808 500.311 536.52Z" fill="white"/>
<path d="M368.583 581.728C368.007 581.728 367.719 581.32 367.719 580.672C367.719 580.288 367.743 579.952 368.007 579.328H365.679C365.343 579.808 365.319 580.408 365.319 580.888C365.319 582.376 366.543 583.24 368.343 583.24C371.103 583.24 372.399 581.368 372.495 571.96H376.959V583H379.239V570.52H370.695C370.719 581.056 369.519 581.728 368.583 581.728Z" fill="white"/>
<path d="M393.336 577.456H390.936C392.04 580.816 390.144 581.872 388.296 581.872C385.44 581.872 384.168 579.856 384.168 576.88V576.688H393.648V576.256C393.648 571.864 390.912 570.28 387.888 570.28C384.216 570.28 381.768 573.064 381.768 576.88C381.768 580.792 384.24 583.24 388.128 583.24C391.368 583.24 394.416 581.416 393.336 577.456ZM387.96 571.648C389.592 571.648 391.032 572.56 391.296 575.368H384.264C384.6 572.848 385.824 571.648 387.96 571.648Z" fill="white"/>
<path d="M406.971 575.728C407.787 572.08 405.627 570.28 402.051 570.28C398.331 570.28 395.643 572.824 395.643 576.88C395.643 580.84 398.283 583.24 401.883 583.24C405.315 583.24 407.379 581.32 406.539 577.816H404.067C404.883 580.312 404.091 581.872 401.883 581.872C399.675 581.872 398.043 580.312 398.043 576.88C398.043 573.568 399.531 571.648 401.883 571.648C404.379 571.648 405.243 573.088 404.571 575.728H406.971Z" fill="white"/>
<path d="M415.262 583.24C418.838 583.24 421.31 580.552 421.31 576.76C421.31 573.016 418.838 570.28 415.262 570.28C411.71 570.28 409.214 573.016 409.214 576.76C409.214 580.552 411.71 583.24 415.262 583.24ZM415.262 581.872C412.886 581.872 411.614 579.808 411.614 576.76C411.614 573.76 412.886 571.648 415.262 571.648C417.638 571.648 418.91 573.76 418.91 576.76C418.91 579.808 417.638 581.872 415.262 581.872Z" fill="white"/>
<path d="M423.829 583H426.109V571.96H431.389V583H433.669V570.52H423.829V583Z" fill="white"/>
<path d="M436.838 576.448H439.238C438.926 575.848 438.758 575.224 438.758 574.648C438.758 572.656 439.934 571.648 441.758 571.648C443.918 571.648 444.974 572.656 444.974 575.104V575.656L442.838 576.016C439.91 576.52 436.814 576.88 436.814 580.12C436.814 582.448 438.686 583.24 440.63 583.24C442.478 583.24 443.99 582.328 444.974 581.368V583H447.254V575.344C447.254 571.624 445.094 570.28 441.854 570.28C438.614 570.28 436.43 571.888 436.43 574.552C436.43 575.128 436.478 575.776 436.838 576.448ZM439.214 579.904C439.214 578.488 440.15 577.672 442.79 577.264L444.974 576.928V579.976C444.182 580.72 442.814 581.632 441.182 581.632C440.174 581.632 439.214 581.152 439.214 579.904Z" fill="white"/>
<path d="M450.243 589.24H452.523V581.752C453.459 582.664 454.779 583.24 456.579 583.24C459.627 583.24 462.123 580.552 462.123 576.76C462.123 572.992 459.795 570.28 456.555 570.28C454.779 570.28 453.315 571.048 452.523 572.032V570.52H450.243V589.24ZM455.859 581.728C454.251 581.728 453.147 580.912 452.523 580.144V573.328C453.051 572.632 454.107 571.84 455.859 571.84C458.379 571.84 459.723 573.952 459.723 576.76C459.723 579.64 458.379 581.728 455.859 581.728Z" fill="white"/>
<path d="M464.634 583H466.914V577.216L472.794 583H475.794L468.978 576.28L475.074 570.52H473.034L466.914 576.28V570.52H464.634V583Z" fill="white"/>
<path d="M619.92 696H622.32V688.464H630.48V696H632.88V679.44H630.48V686.784H622.32V679.44H619.92V696Z" fill="white"/>
<path d="M641.813 696.24C645.389 696.24 647.861 693.552 647.861 689.76C647.861 686.016 645.389 683.28 641.813 683.28C638.261 683.28 635.765 686.016 635.765 689.76C635.765 693.552 638.261 696.24 641.813 696.24ZM641.813 694.872C639.437 694.872 638.165 692.808 638.165 689.76C638.165 686.76 639.437 684.648 641.813 684.648C644.189 684.648 645.461 686.76 645.461 689.76C645.461 692.808 644.189 694.872 641.813 694.872Z" fill="white"/>
<path d="M650.38 696H656.38C659.404 696 660.772 694.536 660.772 692.664C660.772 690.312 658.876 689.52 657.316 689.472C658.732 689.328 660.292 688.368 660.292 686.544C660.292 684.864 658.876 683.52 655.876 683.52H650.38V696ZM655.132 688.944H652.66V684.96H655.132C657.268 684.96 657.892 685.848 657.892 686.904C657.892 688.128 657.268 688.944 655.132 688.944ZM655.516 694.56H652.66V690.288H655.54C657.412 690.288 658.372 690.984 658.372 692.376C658.372 693.936 657.316 694.56 655.516 694.56Z" fill="white"/>
<path d="M668.625 696.24C672.201 696.24 674.673 693.552 674.673 689.76C674.673 686.016 672.201 683.28 668.625 683.28C665.073 683.28 662.577 686.016 662.577 689.76C662.577 693.552 665.073 696.24 668.625 696.24ZM668.625 694.872C666.249 694.872 664.977 692.808 664.977 689.76C664.977 686.76 666.249 684.648 668.625 684.648C671.001 684.648 672.273 686.76 672.273 689.76C672.273 692.808 671.001 694.872 668.625 694.872Z" fill="white"/>
<path d="M677.193 683.52V696H679.473V684.96H685.569V683.52H677.193Z" fill="white"/>
<path d="M693.188 696.24C696.764 696.24 699.236 693.552 699.236 689.76C699.236 686.016 696.764 683.28 693.188 683.28C689.636 683.28 687.14 686.016 687.14 689.76C687.14 693.552 689.636 696.24 693.188 696.24ZM693.188 694.872C690.812 694.872 689.54 692.808 689.54 689.76C689.54 686.76 690.812 684.648 693.188 684.648C695.564 684.648 696.836 686.76 696.836 689.76C696.836 692.808 695.564 694.872 693.188 694.872Z" fill="white"/>
<path d="M704.67 686.568L704.718 684.96H709.566V694.56H703.47C704.334 692.472 704.55 690.744 704.67 686.568ZM701.454 694.56H700.086V698.88H702.126V696H711.726V698.88H713.766V694.56H711.846V683.52H702.966L702.87 686.64C702.75 690.456 702.582 692.424 701.454 694.56Z" fill="white"/>
<path d="M715.935 683.52V696H718.215V690.312H723.855V696H726.135V683.52H723.855V688.872H718.215V683.52H715.935Z" fill="white"/>
<path d="M727.927 696H730.735L736.711 690.576V696H738.991V683.52H733.903C731.071 683.52 728.911 684.672 728.911 687.336C728.911 689.808 730.927 690.888 733.423 691.008L727.927 696ZM734.311 684.888H736.711V689.688H734.287C732.319 689.688 731.311 688.848 731.311 687.336C731.311 685.704 732.319 684.888 734.311 684.888Z" fill="white"/>
<path d="M740.795 696H743.603L749.579 690.576V696H751.859V683.52H746.771C743.939 683.52 741.779 684.672 741.779 687.336C741.779 689.808 743.795 690.888 746.291 691.008L740.795 696ZM747.179 684.888H749.579V689.688H747.155C745.187 689.688 744.179 688.848 744.179 687.336C744.179 685.704 745.187 684.888 747.179 684.888Z" fill="white"/>
<path d="M625.112 319.088C624.248 321.464 623.912 322.04 622.832 322.04C622.04 322.04 621.584 321.56 621.584 320.744C621.584 320.168 621.68 319.64 622.088 318.944H619.592C619.232 319.736 619.136 320.192 619.136 320.864C619.136 322.208 620.072 323.48 622.616 323.48C625.016 323.48 625.76 321.872 626.672 319.4L632.12 304.52H630.44L626.888 314.216L622.52 304.52H620.24L625.88 317L625.112 319.088Z" fill="white"/>
<path d="M634.54 315.728C633.964 315.728 633.676 315.32 633.676 314.672C633.676 314.288 633.7 313.952 633.964 313.328H631.636C631.3 313.808 631.276 314.408 631.276 314.888C631.276 316.376 632.5 317.24 634.3 317.24C637.06 317.24 638.356 315.368 638.452 305.96H642.916V317H645.196V304.52H636.652C636.676 315.056 635.476 315.728 634.54 315.728Z" fill="white"/>
<path d="M650.317 315.8V315.776C650.317 314.936 649.669 314.36 648.829 314.36C648.013 314.36 647.365 314.936 647.365 315.776V315.8C647.365 316.664 648.013 317.24 648.829 317.24C649.669 317.24 650.317 316.664 650.317 315.8Z" fill="white"/>
<path d="M657.274 317H659.218L661.09 312.104H668.482L670.498 317H673.018L666.226 300.44H663.634L657.274 317ZM664.114 304.184L664.642 302.672L665.266 304.256L667.81 310.424H661.738L664.114 304.184Z" fill="white"/>
<path d="M674.927 317H677.207V311.216L683.087 317H686.087L679.271 310.28L685.367 304.52H683.327L677.207 310.28V304.52H674.927V317Z" fill="white"/>
<path d="M689.645 315.8V315.776C689.645 314.936 688.997 314.36 688.157 314.36C687.341 314.36 686.693 314.936 686.693 315.776V315.8C686.693 316.664 687.341 317.24 688.157 317.24C688.997 317.24 689.645 316.664 689.645 315.8Z" fill="white"/>
<path d="M696.602 317H698.546L700.418 312.104H707.81L709.826 317H712.346L705.554 300.44H702.962L696.602 317ZM703.442 304.184L703.97 302.672L704.594 304.256L707.138 310.424H701.066L703.442 304.184Z" fill="white"/>
<path d="M714.255 304.52V317H716.535V311.312H722.175V317H724.455V304.52H722.175V309.872H716.535V304.52H714.255Z" fill="white"/>
<path d="M733.016 317.24C736.592 317.24 739.064 314.552 739.064 310.76C739.064 307.016 736.592 304.28 733.016 304.28C729.464 304.28 726.968 307.016 726.968 310.76C726.968 314.552 729.464 317.24 733.016 317.24ZM733.016 315.872C730.64 315.872 729.368 313.808 729.368 310.76C729.368 307.76 730.64 305.648 733.016 305.648C735.392 305.648 736.664 307.76 736.664 310.76C736.664 313.808 735.392 315.872 733.016 315.872Z" fill="white"/>
<path d="M741.93 317L745.698 312.008L749.49 317H752.13L747.018 310.256L751.362 304.52H749.514L746.106 309.032L742.674 304.52H740.034L744.786 310.784L740.082 317H741.93Z" fill="white"/>
<path d="M756.449 317L762.329 307.16V317H764.609V304.52H762.329L756.449 314.36V304.52H754.169V317H756.449Z" fill="white"/>
<path d="M767.739 304.52V317H770.019V311.312H775.659V317H777.939V304.52H775.659V309.872H770.019V304.52H767.739Z" fill="white"/>
<path d="M781.1 310.448H783.5C783.188 309.848 783.02 309.224 783.02 308.648C783.02 306.656 784.196 305.648 786.02 305.648C788.18 305.648 789.236 306.656 789.236 309.104V309.656L787.1 310.016C784.172 310.52 781.076 310.88 781.076 314.12C781.076 316.448 782.948 317.24 784.892 317.24C786.74 317.24 788.252 316.328 789.236 315.368V317H791.516V309.344C791.516 305.624 789.356 304.28 786.116 304.28C782.876 304.28 780.692 305.888 780.692 308.552C780.692 309.128 780.74 309.776 781.1 310.448ZM783.476 313.904C783.476 312.488 784.412 311.672 787.052 311.264L789.236 310.928V313.976C788.444 314.72 787.076 315.632 785.444 315.632C784.436 315.632 783.476 315.152 783.476 313.904Z" fill="white"/>
<path d="M797.697 314.36C796.881 314.36 796.233 314.936 796.233 315.776V315.8C796.233 316.664 796.881 317.24 797.697 317.24H797.745C797.553 318.248 796.977 318.992 795.897 318.992C795.225 318.992 794.721 318.728 794.721 318.104C794.721 317.792 794.793 317.552 794.961 317.336H793.233C793.137 317.528 793.065 317.768 793.065 318.152C793.065 319.616 794.337 319.976 795.561 319.976C798.561 319.976 799.185 317.312 799.185 315.944V315.776C799.185 314.936 798.537 314.36 797.697 314.36Z" fill="white"/>
<path d="M627.92 338.88L622.4 343.464V345H634.088V343.2H625.16L629.216 339.744C633.416 336.168 633.848 334.584 633.848 332.976C633.848 330.024 631.856 328.2 627.824 328.2C624.344 328.2 621.56 330.048 621.56 333.552C621.56 335.112 621.968 337.032 623.912 338.088H627.368C624.992 336.768 624.08 335.232 624.08 333.456C624.08 331.08 625.4 329.64 627.824 329.64C630.128 329.64 631.328 330.936 631.328 333.408C631.328 334.68 631.136 336.216 627.92 338.88Z" fill="white"/>
<path d="M648.276 339.624C648.276 337.128 646.764 334.584 641.892 334.584C640.932 334.584 639.66 334.8 638.628 335.376C638.892 332.16 639.924 329.64 643.212 329.64C645.084 329.64 646.092 330.504 646.092 332.568C646.092 333.576 645.78 334.416 645.42 334.896H647.94C648.324 334.464 648.612 333.432 648.612 332.664C648.612 329.664 646.572 328.2 643.356 328.2C638.076 328.2 636.012 332.808 636.012 337.704C636.012 343.08 639.012 345.24 642.204 345.24C646.14 345.24 648.276 342.912 648.276 339.624ZM638.532 337.704V336.864C639.3 336.264 640.692 335.976 641.508 335.976C645.132 335.976 645.876 337.944 645.876 339.936C645.876 342.096 644.82 343.68 642.564 343.68C640.26 343.68 638.532 342.096 638.532 337.704Z" fill="white"/>
<path d="M651.372 345H653.652V339.216L659.532 345H662.532L655.716 338.28L661.812 332.52H659.772L653.652 338.28V332.52H651.372V345Z" fill="white"/>
<path d="M670.459 338.88L664.939 343.464V345H676.627V343.2H667.699L671.755 339.744C675.955 336.168 676.387 334.584 676.387 332.976C676.387 330.024 674.395 328.2 670.363 328.2C666.883 328.2 664.099 330.048 664.099 333.552C664.099 335.112 664.507 337.032 666.451 338.088H669.907C667.531 336.768 666.619 335.232 666.619 333.456C666.619 331.08 667.939 329.64 670.363 329.64C672.667 329.64 673.867 330.936 673.867 333.408C673.867 334.68 673.675 336.216 670.459 338.88Z" fill="white"/>
<path d="M320.715 772.238L316.733 781.301L317.377 782.198L327.276 781.088L316.397 788.899L317.797 790.848L331.249 781.19L329.863 779.26L320.157 780.349L319.409 780.502L319.759 779.837L323.746 770.74L322.305 768.732L308.853 778.39L309.972 779.95L320.715 772.238Z" fill="white"/>
<path d="M320.034 793.964L321.434 795.914L328.062 791.155L325.843 802.055L327.662 804.589L330.058 792.824L340.555 794.151L339.155 792.202L328.491 790.847L334.886 786.256L333.486 784.306L320.034 793.964Z" fill="white"/>
<path d="M327.38 804.196L328.514 805.775L333.583 804.441L337.894 810.445L335.093 814.938L336.562 816.985L346.053 801.81L344.542 799.705L327.38 804.196ZM341.78 802.278L343.316 801.825L342.394 803.256L338.867 808.92L335.326 803.987L341.78 802.278Z" fill="white"/>
<path d="M338.137 816.298L334.043 819.238L335.303 820.992L338.032 819.033L345.003 828.742L342.273 830.701L343.533 832.456L347.627 829.516L346.368 827.762L358.455 819.084L352.366 810.603C344.061 816.566 341.419 817.577 339.103 817.644L338.137 816.298ZM340.391 819.437C342.24 819.173 344.637 818.397 352.121 813.142L355.69 818.114L344.968 825.812L340.391 819.437Z" fill="white"/>
<path d="M611.591 629.307C613.803 630.531 614.319 630.953 614.15 632.02C614.027 632.802 613.481 633.178 612.675 633.05C612.106 632.96 611.6 632.783 610.976 632.271L610.586 634.736C611.312 635.216 611.748 635.382 612.411 635.487C613.739 635.697 615.142 634.971 615.539 632.458C615.914 630.088 614.442 629.102 612.143 627.815L598.297 620.109L598.034 621.768L607.056 626.791L596.797 629.591L596.441 631.843L609.649 628.222L611.591 629.307Z" fill="white"/>
<path d="M609.745 619.469C609.655 620.038 609.207 620.259 608.567 620.158C608.188 620.098 607.86 620.022 607.285 619.663L606.921 621.963C607.343 622.37 607.931 622.487 608.406 622.562C609.875 622.794 610.92 621.721 611.201 619.943C611.632 617.217 609.986 615.644 600.708 614.079L601.406 609.67L612.31 611.395L612.666 609.143L600.34 607.193L599.005 615.632C609.415 617.255 609.891 618.545 609.745 619.469Z" fill="white"/>
<path d="M612.281 603.897L612.258 603.893C611.428 603.762 610.758 604.312 610.627 605.142C610.499 605.948 610.967 606.678 611.796 606.809L611.82 606.813C612.674 606.948 613.344 606.398 613.471 605.592C613.602 604.762 613.135 604.032 612.281 603.897Z" fill="white"/>
<path d="M614.553 597.213L614.857 595.293L610.314 592.679L611.469 585.378L616.619 584.152L617.013 581.663L599.595 585.784L599.19 588.344L614.553 597.213ZM602.963 588.455L601.553 587.697L603.215 587.329L609.704 585.779L608.756 591.777L602.963 588.455Z" fill="white"/>
<path d="M617.311 579.777L617.668 577.525L611.955 576.621L618.586 571.717L619.055 568.754L611.353 574.437L606.616 567.515L606.297 569.53L611.03 576.475L605.341 575.575L604.985 577.827L617.311 579.777Z" fill="white"/>
<path d="M618.426 565.052L618.402 565.048C617.572 564.917 616.902 565.467 616.771 566.297C616.643 567.103 617.111 567.833 617.941 567.964L617.965 567.968C618.818 568.103 619.488 567.552 619.616 566.746C619.747 565.917 619.279 565.187 618.426 565.052Z" fill="white"/>
<path d="M620.698 558.368L621.002 556.448L616.458 553.834L617.613 546.533L622.764 545.307L623.158 542.818L605.74 546.939L605.335 549.499L620.698 558.368ZM609.108 549.61L607.697 548.852L609.359 548.483L615.849 546.934L614.9 552.932L609.108 549.61Z" fill="white"/>
<path d="M611.129 538.982L623.456 540.932L623.812 538.68L618.194 537.791L619.075 532.221L624.693 533.109L625.05 530.857L612.723 528.907L612.367 531.159L617.653 531.996L616.772 537.566L611.485 536.73L611.129 538.982Z" fill="white"/>
<path d="M626.624 522.439C627.183 518.907 624.914 516.046 621.169 515.453C617.47 514.868 614.382 516.882 613.823 520.414C613.268 523.923 615.581 526.816 619.279 527.401C623.024 527.993 626.069 525.948 626.624 522.439ZM625.273 522.226C624.902 524.572 622.664 525.506 619.654 525.03C616.69 524.561 614.803 522.975 615.174 520.628C615.546 518.281 617.83 517.355 620.794 517.824C623.804 518.3 625.644 519.879 625.273 522.226Z" fill="white"/>
<path d="M627.78 513.596L623.438 509.095L628.961 506.129L629.373 503.522L621.914 507.517L616.927 502.33L616.638 504.156L620.562 508.227L615.569 510.912L615.157 513.519L622.086 509.804L627.491 515.422L627.78 513.596Z" fill="white"/>
<path d="M630.048 499.256L621.248 491.911L630.967 493.448L631.323 491.196L618.996 489.246L618.64 491.498L627.441 498.844L617.721 497.306L617.365 499.558L629.692 501.508L630.048 499.256Z" fill="white"/>
<path d="M619.485 486.155L631.812 488.104L632.168 485.852L626.55 484.964L627.431 479.393L633.049 480.282L633.406 478.03L621.079 476.08L620.723 478.332L626.009 479.168L625.128 484.739L619.842 483.903L619.485 486.155Z" fill="white"/>
<path d="M627.428 473.884L627.803 471.514C627.161 471.728 626.519 471.797 625.95 471.707C623.982 471.395 623.171 470.076 623.456 468.275C623.793 466.141 624.954 465.256 627.372 465.638L627.917 465.724L627.939 467.89C627.979 470.861 627.851 473.975 631.051 474.482C633.35 474.845 634.425 473.12 634.729 471.2C635.018 469.375 634.353 467.739 633.559 466.617L635.171 466.872L635.527 464.62L627.965 463.424C624.29 462.842 622.626 464.766 622.119 467.966C621.613 471.166 622.86 473.575 625.491 473.991C626.06 474.081 626.708 474.135 627.428 473.884ZM631.213 472.077C629.814 471.856 629.154 470.804 629.164 468.133L629.173 465.923L632.184 466.399C632.795 467.298 633.482 468.792 633.227 470.404C633.069 471.399 632.445 472.272 631.213 472.077Z" fill="white"/>
<path d="M586.84 682.776L591.88 691.296H592.984L597.856 682.608V696H600.256V679.44H597.88L593.104 687.96L592.792 688.656L592.456 687.984L587.392 679.44H584.92V696H586.84V682.776Z" fill="white"/>
<path fill-rule="evenodd" clip-rule="evenodd" d="M514.5 880C523.008 880 530 872.89 530 864C530 855.11 523.008 848 514.5 848C505.992 848 499 855.11 499 864C499 872.89 505.992 880 514.5 880ZM514.5 882C524.165 882 532 873.941 532 864C532 854.059 524.165 846 514.5 846C504.835 846 497 854.059 497 864C497 873.941 504.835 882 514.5 882Z" fill="white"/>
<path d="M543.192 855.44H540.6L546.48 863.72L540.6 872H542.688L547.512 865.184L552.36 872H554.952L548.808 863.36L554.424 855.44H552.336L547.776 861.896L543.192 855.44Z" fill="white"/>
<path d="M557.122 872H563.122C566.146 872 567.514 870.536 567.514 868.664C567.514 866.312 565.618 865.52 564.058 865.472C565.474 865.328 567.034 864.368 567.034 862.544C567.034 860.864 565.618 859.52 562.618 859.52H557.122V872ZM561.874 864.944H559.402V860.96H561.874C564.01 860.96 564.634 861.848 564.634 862.904C564.634 864.128 564.01 864.944 561.874 864.944ZM562.258 870.56H559.402V866.288H562.282C564.154 866.288 565.114 866.984 565.114 868.376C565.114 869.936 564.058 870.56 562.258 870.56Z" fill="white"/>
<path d="M575.367 872.24C578.943 872.24 581.415 869.552 581.415 865.76C581.415 862.016 578.943 859.28 575.367 859.28C571.815 859.28 569.319 862.016 569.319 865.76C569.319 869.552 571.815 872.24 575.367 872.24ZM575.367 870.872C572.991 870.872 571.719 868.808 571.719 865.76C571.719 862.76 572.991 860.648 575.367 860.648C577.743 860.648 579.015 862.76 579.015 865.76C579.015 868.808 577.743 870.872 575.367 870.872Z" fill="white"/>
<path d="M586.215 872L592.095 862.16V872H594.375V859.52H592.095L586.215 869.36V859.52H583.935V872H586.215ZM593.151 853.52H591.087C591.255 853.904 591.279 854.216 591.279 854.504C591.303 855.752 590.631 856.352 589.215 856.352C587.895 856.352 587.103 855.776 587.103 854.504C587.103 854.216 587.103 853.904 587.295 853.52H585.231C585.111 853.88 585.087 854.216 585.087 854.48C585.087 856.304 586.311 857.408 589.215 857.408C592.191 857.408 593.295 856.208 593.295 854.36C593.295 854.096 593.247 853.808 593.151 853.52Z" fill="white"/>
<path d="M597.505 859.52V872H599.785V866.312H605.425V872H607.705V859.52H605.425V864.872H599.785V859.52H597.505Z" fill="white"/>
<path d="M610.865 865.448H613.265C612.953 864.848 612.785 864.224 612.785 863.648C612.785 861.656 613.961 860.648 615.785 860.648C617.945 860.648 619.001 861.656 619.001 864.104V864.656L616.865 865.016C613.937 865.52 610.841 865.88 610.841 869.12C610.841 871.448 612.713 872.24 614.657 872.24C616.505 872.24 618.017 871.328 619.001 870.368V872H621.281V864.344C621.281 860.624 619.121 859.28 615.881 859.28C612.641 859.28 610.457 860.888 610.457 863.552C610.457 864.128 610.505 864.776 610.865 865.448ZM613.241 868.904C613.241 867.488 614.177 866.672 616.817 866.264L619.001 865.928V868.976C618.209 869.72 616.841 870.632 615.209 870.632C614.201 870.632 613.241 870.152 613.241 868.904Z" fill="white"/>
<path d="M622.951 872H625.759L631.735 866.576V872H634.015V859.52H628.927C626.095 859.52 623.935 860.672 623.935 863.336C623.935 865.808 625.951 866.888 628.447 867.008L622.951 872ZM629.335 860.888H631.735V865.688H629.311C627.343 865.688 626.335 864.848 626.335 863.336C626.335 861.704 627.343 860.888 629.335 860.888Z" fill="white"/>
<path d="M508.84 858.776L513.88 867.296H514.984L519.856 858.608V872H522.256V855.44H519.88L515.104 863.96L514.792 864.656L514.456 863.984L509.392 855.44H506.92V872H508.84V858.776Z" fill="white"/>
<path fill-rule="evenodd" clip-rule="evenodd" d="M675.366 859.636L521.972 791.57L526.028 782.43L683.634 852.364L726.292 995.573L716.708 998.427L675.366 859.636Z" fill="#2542E6"/>
</svg>
