<svg width="897" height="1344" viewBox="0 0 897 1344" fill="none" xmlns="http://www.w3.org/2000/svg">
<path d="M642 381L567.29 852.431L542 912.885L567.29 949" stroke="#2542E6" stroke-width="10"/>
<path d="M452.929 424.865C452.929 460.071 476.385 499.069 489.676 514.223C519.074 548.713 559.782 604.624 581.935 627.878L554.57 669.423L549.879 838.733L515.477 947.686L454.492 995.5L414.618 990.013L176.935 635.717C204.456 649.512 213.942 629.97 216.809 618.474C259.029 604.365 289.521 578.498 289.521 578.498C289.521 578.498 296.558 591.039 307.504 583.985C315.003 579.152 307.504 559.686 326.269 555.766V583.985L398.199 548.71V506.384C362.546 494.47 357.803 459.093 359.888 442.893L384.907 435.055C369.896 409.345 366.143 383.06 366.143 373.131L398.199 325.317C403.672 321.396 409.145 319.515 418.527 324.531C425.564 328.294 452.929 357.455 452.929 357.455V424.865Z" fill="#2542E6"/>
<path d="M609 873C609 882.416 601.586 890 592.5 890C583.414 890 576 882.416 576 873C576 863.584 583.414 856 592.5 856C601.586 856 609 863.584 609 873Z" stroke="white" stroke-width="2"/>
<ellipse cx="592.5" cy="508" rx="17.5" ry="18" fill="white"/>
<rect y="444.24" width="28.1756" height="1081.91" transform="rotate(-34.0035 0 444.24)" fill="#2542E6"/>
<rect x="754.79" y="777.575" width="28.1756" height="884.747" transform="rotate(52.4216 754.79 777.575)" fill="#2542E6"/>
<rect x="391.14" y="1003.62" width="79.5288" height="80.2101" transform="rotate(7.8905 391.14 1003.62)" stroke="#2542E6" stroke-width="10"/>
<path d="M132 4L470.491 346.765L512.821 354.504M769.935 401.512L512.821 354.504M769.935 620.5L571.612 589.998L491.656 486.761L512.821 354.504" stroke="#2542E6" stroke-width="10"/>
<path d="M457.35 809.453L457.633 807.07L442.857 805.316L443.581 799.214L441.913 799.016L440.181 813.602L441.849 813.8L442.574 807.699L457.35 809.453ZM464.809 799.557L465.078 797.293L457.642 796.41C458.658 795.588 459.385 794.345 459.598 792.558C459.957 789.531 457.582 786.736 453.817 786.288C450.075 785.844 447.107 787.836 446.725 791.054C446.516 792.817 447.106 794.362 447.99 795.264L446.488 795.086L446.219 797.35L464.809 799.557ZM458.011 793.094C457.822 794.691 456.881 795.691 456.045 796.22L449.277 795.417C448.648 794.81 447.986 793.668 448.192 791.929C448.489 789.426 450.745 788.341 453.534 788.672C456.393 789.011 458.308 790.592 458.011 793.094ZM461.19 779.149C461.611 775.598 459.234 772.827 455.468 772.38C451.75 771.938 448.742 774.07 448.32 777.621C447.901 781.149 450.324 783.95 454.042 784.391C457.807 784.838 460.771 782.677 461.19 779.149ZM459.831 778.988C459.551 781.347 457.351 782.367 454.325 782.008C451.346 781.654 449.398 780.142 449.679 777.783C449.959 775.423 452.206 774.409 455.185 774.763C458.212 775.122 460.111 776.629 459.831 778.988ZM461.962 770.613L462.23 768.349L451.267 767.047L451.89 761.804L462.853 763.106L463.122 760.842L450.729 759.37L449.569 769.142L461.962 770.613ZM456.989 756.922L457.272 754.539C456.639 754.778 456 754.872 455.428 754.804C453.45 754.569 452.588 753.282 452.803 751.471C453.057 749.326 454.183 748.396 456.614 748.685L457.162 748.75L457.267 750.913C457.423 753.88 457.415 756.997 460.633 757.379C462.944 757.654 463.952 755.888 464.181 753.958C464.399 752.123 463.671 750.514 462.834 749.423L464.455 749.616L464.723 747.352L457.121 746.449C453.427 746.01 451.837 747.997 451.455 751.214C451.073 754.432 452.413 756.79 455.058 757.104C455.63 757.172 456.279 757.201 456.989 756.922ZM460.701 754.971C459.295 754.804 458.595 753.778 458.501 751.108L458.425 748.9L461.452 749.259C462.097 750.133 462.841 751.599 462.649 753.22C462.53 754.221 461.94 755.118 460.701 754.971ZM471.272 745.119L471.541 742.855L464.105 741.972C465.121 741.15 465.849 739.907 466.061 738.12C466.421 735.093 464.046 732.298 460.28 731.85C456.538 731.406 453.571 733.398 453.189 736.616C452.979 738.379 453.569 739.924 454.453 740.826L452.952 740.648L452.683 742.912L471.272 745.119ZM464.475 738.657C464.285 740.253 463.345 741.253 462.509 741.783L455.74 740.979C455.111 740.373 454.449 739.23 454.656 737.491C454.953 734.988 457.209 733.903 459.997 734.234C462.857 734.573 464.772 736.154 464.475 738.657ZM462.56 718.548L462.278 720.931C465.744 720.231 466.569 722.238 466.351 724.073C466.015 726.91 463.863 727.935 460.908 727.584L460.717 727.561L461.835 718.148L461.406 718.097C457.044 717.579 455.149 720.109 454.792 723.112C454.359 726.758 456.835 729.517 460.625 729.967C464.509 730.429 467.232 728.262 467.69 724.402C468.072 721.184 466.62 717.942 462.56 718.548ZM456.159 723.202C456.352 721.581 457.427 720.259 460.247 720.328L459.417 727.31C456.955 726.68 455.907 725.323 456.159 723.202ZM450.394 723.919C449.56 723.82 448.837 724.411 448.741 725.221C448.639 726.079 449.209 726.775 450.043 726.874C450.973 726.985 451.618 726.433 451.72 725.575C451.817 724.765 451.324 724.029 450.394 723.919ZM451.017 718.676C450.183 718.577 449.46 719.168 449.364 719.978C449.262 720.836 449.832 721.532 450.666 721.631C451.595 721.741 452.241 721.19 452.343 720.332C452.439 719.521 451.946 718.786 451.017 718.676ZM468.409 716.315L469.116 710.357C469.473 707.354 468.18 705.823 466.321 705.602C463.986 705.325 462.975 707.114 462.744 708.658C462.768 707.234 461.998 705.572 460.187 705.357C458.519 705.159 457.017 706.407 456.664 709.386L456.016 714.843L468.409 716.315ZM461.962 710.764L461.671 713.219L457.714 712.749L458.006 710.294C458.258 708.173 459.213 707.658 460.262 707.783C461.477 707.927 462.214 708.643 461.962 710.764ZM467.584 711.045L467.247 713.881L463.005 713.377L463.345 710.517C463.566 708.658 464.37 707.787 465.752 707.951C467.301 708.135 467.796 709.257 467.584 711.045ZM463.961 692.097C460.435 690.856 458.393 692.789 457.971 696.34C457.532 700.034 459.742 703.003 463.769 703.482C467.702 703.948 470.396 701.61 470.821 698.035C471.225 694.627 469.562 692.351 465.983 692.772L465.692 695.227C468.267 694.711 469.723 695.681 469.462 697.874C469.202 700.066 467.46 701.503 464.052 701.098C460.763 700.708 459.032 699.004 459.31 696.668C459.604 694.19 461.136 693.501 463.678 694.48L463.961 692.097ZM471.517 690.132L471.786 687.868L466.043 687.186L472.48 682.029L472.833 679.049L465.356 685.026L460.355 678.293L460.115 680.319L465.113 687.075L459.393 686.396L459.124 688.66L471.517 690.132ZM473.287 675.23L464.209 668.231L473.98 669.391L474.249 667.127L461.856 665.655L461.587 667.919L470.665 674.918L460.894 673.758L460.625 676.022L473.018 677.494L473.287 675.23ZM474.887 661.754L465.809 654.755L475.58 655.915L475.849 653.651L463.456 652.18L463.187 654.444L472.265 661.443L462.494 660.283L462.225 662.547L474.618 664.018L474.887 661.754ZM457.353 652.688L457.11 654.737C457.511 654.616 457.824 654.629 458.11 654.663C459.352 654.786 459.869 655.524 459.702 656.93C459.546 658.241 458.881 658.959 457.618 658.809C457.332 658.775 457.022 658.739 456.663 658.503L456.42 660.552C456.763 660.714 457.094 660.777 457.356 660.809C459.167 661.024 460.408 659.938 460.75 657.055C461.101 654.099 460.04 652.861 458.205 652.644C457.942 652.612 457.651 652.626 457.353 652.688ZM486.715 788.827C486.647 789.399 486.208 789.637 485.564 789.56C485.183 789.515 484.852 789.452 484.263 789.116L483.989 791.428C484.426 791.818 485.019 791.913 485.496 791.969C486.973 792.145 487.976 791.031 488.188 789.244C488.513 786.503 486.807 784.995 477.476 783.791L478.002 779.358L488.965 780.659L489.234 778.395L476.841 776.924L475.834 785.408C486.299 786.627 486.825 787.897 486.715 788.827ZM485.391 763.743L485.108 766.126C488.575 765.426 489.4 767.433 489.182 769.268C488.845 772.104 486.693 773.13 483.738 772.779L483.547 772.756L484.665 763.342L484.236 763.291C479.875 762.773 477.979 765.304 477.623 768.306C477.19 771.953 479.666 774.712 483.455 775.162C487.34 775.623 490.062 773.457 490.521 769.596C490.903 766.379 489.451 763.137 485.391 763.743ZM478.99 768.396C479.182 766.776 480.258 765.453 483.077 765.522L482.248 772.505C479.785 771.874 478.738 770.517 478.99 768.396ZM485.283 749.999C481.756 748.758 479.714 750.691 479.293 754.242C478.854 757.936 481.063 760.905 485.091 761.384C489.023 761.851 491.718 759.512 492.142 755.937C492.547 752.529 490.884 750.253 487.305 750.674L487.014 753.129C489.589 752.613 491.044 753.583 490.784 755.776C490.524 757.968 488.782 759.405 485.374 759C482.085 758.61 480.354 756.906 480.631 754.57C480.926 752.092 482.457 751.404 485 752.382L485.283 749.999ZM493.72 742.652C494.141 739.101 491.764 736.329 487.998 735.882C484.28 735.441 481.272 737.573 480.85 741.124C480.431 744.651 482.854 747.452 486.572 747.894C490.337 748.341 493.301 746.179 493.72 742.652ZM492.361 742.491C492.081 744.85 489.882 745.87 486.855 745.511C483.876 745.157 481.929 743.645 482.209 741.285C482.489 738.926 484.736 737.912 487.715 738.266C490.742 738.625 492.641 740.131 492.361 742.491ZM494.492 734.116L494.76 731.852L483.797 730.55L484.42 725.307L495.383 726.609L495.652 724.345L483.259 722.873L482.099 732.645L494.492 734.116ZM489.519 720.425L489.802 718.042C489.17 718.281 488.53 718.374 487.958 718.306C485.98 718.072 485.118 716.785 485.333 714.974C485.587 712.829 486.713 711.899 489.144 712.188L489.692 712.253L489.798 714.416C489.953 717.383 489.945 720.5 493.163 720.882C495.474 721.157 496.482 719.391 496.711 717.461C496.929 715.625 496.201 714.016 495.364 712.926L496.985 713.119L497.254 710.854L489.651 709.952C485.957 709.513 484.368 711.5 483.986 714.717C483.604 717.934 484.943 720.293 487.588 720.607C488.16 720.675 488.809 720.704 489.519 720.425ZM493.231 718.473C491.825 718.306 491.125 717.281 491.031 714.611L490.955 712.403L493.982 712.762C494.627 713.636 495.372 715.102 495.179 716.723C495.06 717.724 494.471 718.62 493.231 718.473ZM503.802 708.622L504.071 706.358L496.636 705.475C497.652 704.653 498.379 703.41 498.591 701.623C498.951 698.596 496.576 695.8 492.81 695.353C489.069 694.909 486.101 696.901 485.719 700.118C485.51 701.882 486.1 703.426 486.983 704.329L485.482 704.151L485.213 706.415L503.802 708.622ZM497.005 702.159C496.815 703.756 495.875 704.756 495.039 705.285L488.27 704.482C487.641 703.875 486.979 702.733 487.186 700.993C487.483 698.491 489.739 697.405 492.527 697.737C495.387 698.076 497.302 699.657 497.005 702.159ZM499.303 693.596L499.572 691.332L493.828 690.65L500.265 685.493L500.619 682.514L493.142 688.49L488.141 681.757L487.9 683.783L492.898 690.539L487.179 689.86L486.91 692.124L499.303 693.596Z" fill="white"/>
<path d="M619.92 881H622.32V873.464H630.48V881H632.88V864.44H630.48V871.784H622.32V864.44H619.92V881ZM641.813 881.24C645.389 881.24 647.861 878.552 647.861 874.76C647.861 871.016 645.389 868.28 641.813 868.28C638.261 868.28 635.765 871.016 635.765 874.76C635.765 878.552 638.261 881.24 641.813 881.24ZM641.813 879.872C639.437 879.872 638.165 877.808 638.165 874.76C638.165 871.76 639.437 869.648 641.813 869.648C644.189 869.648 645.461 871.76 645.461 874.76C645.461 877.808 644.189 879.872 641.813 879.872ZM650.38 881H656.38C659.404 881 660.772 879.536 660.772 877.664C660.772 875.312 658.876 874.52 657.316 874.472C658.732 874.328 660.292 873.368 660.292 871.544C660.292 869.864 658.876 868.52 655.876 868.52H650.38V881ZM655.132 873.944H652.66V869.96H655.132C657.268 869.96 657.892 870.848 657.892 871.904C657.892 873.128 657.268 873.944 655.132 873.944ZM655.516 879.56H652.66V875.288H655.54C657.412 875.288 658.372 875.984 658.372 877.376C658.372 878.936 657.316 879.56 655.516 879.56ZM668.625 881.24C672.201 881.24 674.673 878.552 674.673 874.76C674.673 871.016 672.201 868.28 668.625 868.28C665.073 868.28 662.577 871.016 662.577 874.76C662.577 878.552 665.073 881.24 668.625 881.24ZM668.625 879.872C666.249 879.872 664.977 877.808 664.977 874.76C664.977 871.76 666.249 869.648 668.625 869.648C671.001 869.648 672.273 871.76 672.273 874.76C672.273 877.808 671.001 879.872 668.625 879.872ZM677.193 868.52V881H679.473V869.96H685.569V868.52H677.193ZM693.188 881.24C696.764 881.24 699.236 878.552 699.236 874.76C699.236 871.016 696.764 868.28 693.188 868.28C689.636 868.28 687.14 871.016 687.14 874.76C687.14 878.552 689.636 881.24 693.188 881.24ZM693.188 879.872C690.812 879.872 689.54 877.808 689.54 874.76C689.54 871.76 690.812 869.648 693.188 869.648C695.564 869.648 696.836 871.76 696.836 874.76C696.836 877.808 695.564 879.872 693.188 879.872ZM704.671 871.568L704.719 869.96H709.567V879.56H703.471C704.335 877.472 704.551 875.744 704.671 871.568ZM701.455 879.56H700.087V883.88H702.127V881H711.727V883.88H713.767V879.56H711.847V868.52H702.967L702.871 871.64C702.751 875.456 702.583 877.424 701.455 879.56ZM715.935 868.52V881H718.215V875.312H723.855V881H726.135V868.52H723.855V873.872H718.215V868.52H715.935ZM727.928 881H730.736L736.712 875.576V881H738.992V868.52H733.904C731.072 868.52 728.912 869.672 728.912 872.336C728.912 874.808 730.928 875.888 733.424 876.008L727.928 881ZM734.312 869.888H736.712V874.688H734.288C732.32 874.688 731.312 873.848 731.312 872.336C731.312 870.704 732.32 869.888 734.312 869.888ZM740.795 881H743.603L749.579 875.576V881H751.859V868.52H746.771C743.939 868.52 741.779 869.672 741.779 872.336C741.779 874.808 743.795 875.888 746.291 876.008L740.795 881ZM747.179 869.888H749.579V874.688H747.155C745.187 874.688 744.179 873.848 744.179 872.336C744.179 870.704 745.187 869.888 747.179 869.888Z" fill="white"/>
<path d="M625.112 504.088C624.248 506.464 623.912 507.04 622.832 507.04C622.04 507.04 621.584 506.56 621.584 505.744C621.584 505.168 621.68 504.64 622.088 503.944H619.592C619.232 504.736 619.136 505.192 619.136 505.864C619.136 507.208 620.072 508.48 622.616 508.48C625.016 508.48 625.76 506.872 626.672 504.4L632.12 489.52H630.44L626.888 499.216L622.52 489.52H620.24L625.88 502L625.112 504.088ZM634.54 500.728C633.964 500.728 633.676 500.32 633.676 499.672C633.676 499.288 633.7 498.952 633.964 498.328H631.636C631.3 498.808 631.276 499.408 631.276 499.888C631.276 501.376 632.5 502.24 634.3 502.24C637.06 502.24 638.356 500.368 638.452 490.96H642.916V502H645.196V489.52H636.652C636.676 500.056 635.476 500.728 634.54 500.728ZM650.318 500.8V500.776C650.318 499.936 649.67 499.36 648.83 499.36C648.014 499.36 647.366 499.936 647.366 500.776V500.8C647.366 501.664 648.014 502.24 648.83 502.24C649.67 502.24 650.318 501.664 650.318 500.8ZM657.274 502H659.218L661.09 497.104H668.482L670.498 502H673.018L666.226 485.44H663.634L657.274 502ZM664.114 489.184L664.642 487.672L665.266 489.256L667.81 495.424H661.738L664.114 489.184ZM674.927 502H677.207V496.216L683.087 502H686.087L679.271 495.28L685.367 489.52H683.327L677.207 495.28V489.52H674.927V502ZM689.646 500.8V500.776C689.646 499.936 688.998 499.36 688.158 499.36C687.342 499.36 686.694 499.936 686.694 500.776V500.8C686.694 501.664 687.342 502.24 688.158 502.24C688.998 502.24 689.646 501.664 689.646 500.8ZM696.602 502H698.546L700.418 497.104H707.81L709.826 502H712.346L705.554 485.44H702.962L696.602 502ZM703.442 489.184L703.97 487.672L704.594 489.256L707.138 495.424H701.066L703.442 489.184ZM714.255 489.52V502H716.535V496.312H722.175V502H724.455V489.52H722.175V494.872H716.535V489.52H714.255ZM733.016 502.24C736.592 502.24 739.064 499.552 739.064 495.76C739.064 492.016 736.592 489.28 733.016 489.28C729.464 489.28 726.968 492.016 726.968 495.76C726.968 499.552 729.464 502.24 733.016 502.24ZM733.016 500.872C730.64 500.872 729.368 498.808 729.368 495.76C729.368 492.76 730.64 490.648 733.016 490.648C735.392 490.648 736.664 492.76 736.664 495.76C736.664 498.808 735.392 500.872 733.016 500.872ZM741.931 502L745.699 497.008L749.491 502H752.131L747.019 495.256L751.363 489.52H749.515L746.107 494.032L742.675 489.52H740.035L744.787 495.784L740.083 502H741.931ZM756.449 502L762.329 492.16V502H764.609V489.52H762.329L756.449 499.36V489.52H754.169V502H756.449ZM767.74 489.52V502H770.02V496.312H775.66V502H777.94V489.52H775.66V494.872H770.02V489.52H767.74ZM781.1 495.448H783.5C783.188 494.848 783.02 494.224 783.02 493.648C783.02 491.656 784.196 490.648 786.02 490.648C788.18 490.648 789.236 491.656 789.236 494.104V494.656L787.1 495.016C784.172 495.52 781.076 495.88 781.076 499.12C781.076 501.448 782.948 502.24 784.892 502.24C786.74 502.24 788.252 501.328 789.236 500.368V502H791.516V494.344C791.516 490.624 789.356 489.28 786.116 489.28C782.876 489.28 780.692 490.888 780.692 493.552C780.692 494.128 780.74 494.776 781.1 495.448ZM783.476 498.904C783.476 497.488 784.412 496.672 787.052 496.264L789.236 495.928V498.976C788.444 499.72 787.076 500.632 785.444 500.632C784.436 500.632 783.476 500.152 783.476 498.904ZM797.697 499.36C796.881 499.36 796.233 499.936 796.233 500.776V500.8C796.233 501.664 796.881 502.24 797.697 502.24H797.745C797.553 503.248 796.977 503.992 795.897 503.992C795.225 503.992 794.721 503.728 794.721 503.104C794.721 502.792 794.793 502.552 794.961 502.336H793.233C793.137 502.528 793.065 502.768 793.065 503.152C793.065 504.616 794.337 504.976 795.561 504.976C798.561 504.976 799.185 502.312 799.185 500.944V500.776C799.185 499.936 798.537 499.36 797.697 499.36ZM627.92 523.88L622.4 528.464V530H634.088V528.2H625.16L629.216 524.744C633.416 521.168 633.848 519.584 633.848 517.976C633.848 515.024 631.856 513.2 627.824 513.2C624.344 513.2 621.56 515.048 621.56 518.552C621.56 520.112 621.968 522.032 623.912 523.088H627.368C624.992 521.768 624.08 520.232 624.08 518.456C624.08 516.08 625.4 514.64 627.824 514.64C630.128 514.64 631.328 515.936 631.328 518.408C631.328 519.68 631.136 521.216 627.92 523.88ZM648.277 524.624C648.277 522.128 646.765 519.584 641.893 519.584C640.933 519.584 639.661 519.8 638.629 520.376C638.893 517.16 639.925 514.64 643.213 514.64C645.085 514.64 646.093 515.504 646.093 517.568C646.093 518.576 645.781 519.416 645.421 519.896H647.941C648.325 519.464 648.613 518.432 648.613 517.664C648.613 514.664 646.573 513.2 643.357 513.2C638.077 513.2 636.013 517.808 636.013 522.704C636.013 528.08 639.013 530.24 642.205 530.24C646.141 530.24 648.277 527.912 648.277 524.624ZM638.533 522.704V521.864C639.301 521.264 640.693 520.976 641.509 520.976C645.133 520.976 645.877 522.944 645.877 524.936C645.877 527.096 644.821 528.68 642.565 528.68C640.261 528.68 638.533 527.096 638.533 522.704ZM651.373 530H653.653V524.216L659.533 530H662.533L655.717 523.28L661.812 517.52H659.773L653.653 523.28V517.52H651.373V530ZM670.459 523.88L664.939 528.464V530H676.627V528.2H667.699L671.755 524.744C675.955 521.168 676.387 519.584 676.387 517.976C676.387 515.024 674.395 513.2 670.363 513.2C666.883 513.2 664.099 515.048 664.099 518.552C664.099 520.112 664.507 522.032 666.451 523.088H669.907C667.531 521.768 666.619 520.232 666.619 518.456C666.619 516.08 667.939 514.64 670.363 514.64C672.667 514.64 673.867 515.936 673.867 518.408C673.867 519.68 673.675 521.216 670.459 523.88Z" fill="white"/>
<path d="M611.591 814.307C613.803 815.532 614.319 815.953 614.15 817.02C614.027 817.802 613.481 818.178 612.675 818.05C612.106 817.96 611.6 817.783 610.976 817.271L610.586 819.737C611.312 820.216 611.748 820.382 612.411 820.487C613.739 820.697 615.142 819.971 615.539 817.458C615.914 815.088 614.442 814.102 612.143 812.815L598.297 805.109L598.034 806.768L607.056 811.792L596.797 814.591L596.441 816.843L609.649 813.222L611.591 814.307ZM609.745 804.47C609.655 805.038 609.207 805.259 608.567 805.158C608.188 805.098 607.86 805.022 607.285 804.663L606.921 806.963C607.343 807.37 607.931 807.487 608.406 807.562C609.875 807.795 610.92 806.721 611.201 804.943C611.632 802.217 609.986 800.644 600.708 799.079L601.406 794.67L612.31 796.395L612.666 794.143L600.34 792.193L599.005 800.632C609.415 802.255 609.891 803.545 609.745 804.47ZM612.281 788.897L612.258 788.893C611.428 788.762 610.758 789.312 610.626 790.142C610.499 790.948 610.967 791.678 611.796 791.809L611.82 791.813C612.673 791.948 613.344 791.398 613.471 790.592C613.602 789.762 613.135 789.032 612.281 788.897ZM614.553 782.214L614.857 780.293L610.314 777.68L611.469 770.378L616.619 769.152L617.013 766.663L599.595 770.784L599.19 773.344L614.553 782.214ZM602.963 773.455L601.552 772.698L603.214 772.329L609.704 770.78L608.756 776.777L602.963 773.455ZM617.311 764.777L617.668 762.525L611.955 761.622L618.586 756.717L619.055 753.754L611.353 759.437L606.616 752.516L606.297 754.531L611.03 761.475L605.341 760.575L604.985 762.827L617.311 764.777ZM618.426 750.052L618.402 750.048C617.572 749.917 616.902 750.467 616.771 751.297C616.643 752.103 617.111 752.833 617.941 752.964L617.964 752.968C618.818 753.103 619.488 752.553 619.616 751.747C619.747 750.917 619.279 750.187 618.426 750.052ZM620.698 743.368L621.002 741.448L616.458 738.834L617.613 731.533L622.764 730.307L623.158 727.818L605.74 731.939L605.335 734.499L620.698 743.368ZM609.108 734.61L607.697 733.852L609.359 733.484L615.849 731.934L614.9 737.932L609.108 734.61ZM611.129 723.982L623.456 725.932L623.812 723.68L618.194 722.791L619.075 717.221L624.693 718.109L625.049 715.857L612.723 713.908L612.366 716.16L617.653 716.996L616.772 722.566L611.485 721.73L611.129 723.982ZM626.624 707.439C627.183 703.907 624.914 701.046 621.168 700.453C617.47 699.868 614.382 701.883 613.823 705.415C613.268 708.923 615.581 711.816 619.279 712.401C623.024 712.993 626.069 710.948 626.624 707.439ZM625.273 707.226C624.902 709.573 622.664 710.506 619.654 710.03C616.69 709.562 614.803 707.975 615.174 705.628C615.546 703.282 617.83 702.355 620.793 702.824C623.804 703.3 625.644 704.879 625.273 707.226ZM627.78 698.597L623.438 694.095L628.961 691.129L629.373 688.522L621.913 692.517L616.927 687.331L616.638 689.156L620.562 693.227L615.569 695.912L615.157 698.519L622.086 694.804L627.491 700.422L627.78 698.597ZM630.048 684.256L621.248 676.911L630.967 678.448L631.323 676.196L618.996 674.247L618.64 676.499L627.44 683.844L617.721 682.306L617.365 684.558L629.692 686.508L630.048 684.256ZM619.485 671.155L631.812 673.105L632.168 670.853L626.55 669.964L627.431 664.393L633.049 665.282L633.406 663.03L621.079 661.08L620.723 663.332L626.009 664.168L625.128 669.739L619.841 668.903L619.485 671.155ZM627.428 658.884L627.803 656.514C627.161 656.728 626.519 656.797 625.95 656.707C623.982 656.396 623.17 655.077 623.455 653.275C623.793 651.141 624.954 650.256 627.371 650.638L627.917 650.725L627.939 652.891C627.979 655.861 627.851 658.976 631.051 659.482C633.35 659.846 634.425 658.12 634.729 656.2C635.018 654.375 634.353 652.739 633.559 651.617L635.171 651.872L635.527 649.62L627.965 648.424C624.29 647.843 622.625 649.766 622.119 652.966C621.613 656.167 622.86 658.575 625.491 658.991C626.06 659.081 626.708 659.135 627.428 658.884ZM631.213 657.078C629.814 656.856 629.154 655.804 629.164 653.133L629.173 650.923L632.184 651.4C632.795 652.298 633.482 653.792 633.227 655.404C633.069 656.399 632.445 657.273 631.213 657.078Z" fill="white"/>
<path d="M586.84 867.776L591.88 876.296H592.984L597.856 867.608V881H600.256V864.44H597.88L593.104 872.96L592.792 873.656L592.456 872.984L587.392 864.44H584.92V881H586.84V867.776Z" fill="white"/>
<path d="M531 1049C531 1058.42 523.586 1066 514.5 1066C505.414 1066 498 1058.42 498 1049C498 1039.58 505.414 1032 514.5 1032C523.586 1032 531 1039.58 531 1049Z" stroke="white" stroke-width="2"/>
<path d="M543.192 1040.44H540.6L546.48 1048.72L540.6 1057H542.688L547.512 1050.18L552.36 1057H554.952L548.808 1048.36L554.424 1040.44H552.336L547.776 1046.9L543.192 1040.44ZM557.123 1057H563.123C566.147 1057 567.515 1055.54 567.515 1053.66C567.515 1051.31 565.619 1050.52 564.059 1050.47C565.475 1050.33 567.035 1049.37 567.035 1047.54C567.035 1045.86 565.619 1044.52 562.618 1044.52H557.123V1057ZM561.875 1049.94H559.403V1045.96H561.875C564.011 1045.96 564.635 1046.85 564.635 1047.9C564.635 1049.13 564.011 1049.94 561.875 1049.94ZM562.259 1055.56H559.403V1051.29H562.283C564.155 1051.29 565.115 1051.98 565.115 1053.38C565.115 1054.94 564.059 1055.56 562.259 1055.56ZM575.367 1057.24C578.943 1057.24 581.415 1054.55 581.415 1050.76C581.415 1047.02 578.943 1044.28 575.367 1044.28C571.815 1044.28 569.319 1047.02 569.319 1050.76C569.319 1054.55 571.815 1057.24 575.367 1057.24ZM575.367 1055.87C572.991 1055.87 571.719 1053.81 571.719 1050.76C571.719 1047.76 572.991 1045.65 575.367 1045.65C577.743 1045.65 579.015 1047.76 579.015 1050.76C579.015 1053.81 577.743 1055.87 575.367 1055.87ZM586.215 1057L592.095 1047.16V1057H594.375V1044.52H592.095L586.215 1054.36V1044.52H583.935V1057H586.215ZM593.151 1038.52H591.087C591.255 1038.9 591.279 1039.22 591.279 1039.5C591.303 1040.75 590.631 1041.35 589.215 1041.35C587.895 1041.35 587.103 1040.78 587.103 1039.5C587.103 1039.22 587.103 1038.9 587.295 1038.52H585.231C585.111 1038.88 585.087 1039.22 585.087 1039.48C585.087 1041.3 586.311 1042.41 589.215 1042.41C592.191 1042.41 593.295 1041.21 593.295 1039.36C593.295 1039.1 593.247 1038.81 593.151 1038.52ZM597.505 1044.52V1057H599.785V1051.31H605.425V1057H607.705V1044.52H605.425V1049.87H599.785V1044.52H597.505ZM610.866 1050.45H613.266C612.954 1049.85 612.786 1049.22 612.786 1048.65C612.786 1046.66 613.962 1045.65 615.786 1045.65C617.946 1045.65 619.002 1046.66 619.002 1049.1V1049.66L616.866 1050.02C613.938 1050.52 610.842 1050.88 610.842 1054.12C610.842 1056.45 612.714 1057.24 614.658 1057.24C616.506 1057.24 618.018 1056.33 619.002 1055.37V1057H621.282V1049.34C621.282 1045.62 619.122 1044.28 615.882 1044.28C612.642 1044.28 610.458 1045.89 610.458 1048.55C610.458 1049.13 610.506 1049.78 610.866 1050.45ZM613.242 1053.9C613.242 1052.49 614.178 1051.67 616.818 1051.26L619.002 1050.93V1053.98C618.21 1054.72 616.842 1055.63 615.21 1055.63C614.202 1055.63 613.242 1055.15 613.242 1053.9ZM622.951 1057H625.759L631.735 1051.58V1057H634.015V1044.52H628.927C626.095 1044.52 623.935 1045.67 623.935 1048.34C623.935 1050.81 625.951 1051.89 628.447 1052.01L622.951 1057ZM629.335 1045.89H631.735V1050.69H629.311C627.343 1050.69 626.335 1049.85 626.335 1048.34C626.335 1046.7 627.343 1045.89 629.335 1045.89Z" fill="white"/>
<path d="M508.84 1043.78L513.88 1052.3H514.984L519.856 1043.61V1057H522.256V1040.44H519.88L515.104 1048.96L514.792 1049.66L514.456 1048.98L509.392 1040.44H506.92V1057H508.84V1043.78Z" fill="white"/>
<path d="M524 972L679.5 1041L761 1342" stroke="#2542E6" stroke-width="10"/>
</svg>
