<svg width="42" height="42" viewBox="0 0 42 42" fill="none" xmlns="http://www.w3.org/2000/svg">
<path fill-rule="evenodd" clip-rule="evenodd" d="M21 40C31.4934 40 40 31.4934 40 21C40 10.5066 31.4934 2 21 2C10.5066 2 2 10.5066 2 21C2 31.4934 10.5066 40 21 40ZM21 42C32.598 42 42 32.598 42 21C42 9.40202 32.598 0 21 0C9.40202 0 0 9.40202 0 21C0 32.598 9.40202 42 21 42Z" fill="white"/>
<path d="M13.7999 14.4698L20.0999 25.1198H21.4799L27.5699 14.2598V30.9998H30.5699V10.2998H27.5999L21.6299 20.9498L21.2399 21.8198L20.8199 20.9798L14.4899 10.2998H11.3999V30.9998H13.7999V14.4698Z" fill="white"/>
</svg>
