<svg width="243" height="610" viewBox="0 0 243 610" fill="none" xmlns="http://www.w3.org/2000/svg">
<path d="M157.252 0C129.171 67.5862 87.3836 93.4943 70 98H243C194.059 83.5816 165.443 26.659 157.252 0Z" fill="#2542E6"/>
<path d="M157.252 98C129.171 164.207 87.3836 189.586 70 194H243C194.059 179.876 165.443 124.115 157.252 98Z" fill="#2542E6"/>
<path d="M157.252 194C129.171 260.207 87.3836 285.586 70 290H243C194.059 275.876 165.443 220.115 157.252 194Z" fill="#2542E6"/>
<path fill-rule="evenodd" clip-rule="evenodd" d="M147.411 350.406V287.393L164.911 287.35V359.893L17.9215 445.004L9.3999 429.739L147.411 350.406Z" fill="#2542E6"/>
<path fill-rule="evenodd" clip-rule="evenodd" d="M0 610.5V445H18V610.5H0Z" fill="#2542E6"/>
</svg>
