<svg width="19" height="17" viewBox="0 0 19 17" fill="none" xmlns="http://www.w3.org/2000/svg">
<ellipse rx="1.63098" ry="4.87347" transform="matrix(0.639161 -0.769073 0.690952 0.722901 5.0094 11.1212)" fill="white"/>
<ellipse rx="1.63098" ry="4.87347" transform="matrix(0.639161 -0.769073 0.690952 0.722901 5.0094 11.1212)" fill="white"/>
<ellipse rx="1.63098" ry="4.87347" transform="matrix(0.994582 -0.103951 -0.0104448 0.999945 10.6142 10.293)" fill="white"/>
<ellipse rx="1.63098" ry="4.87347" transform="matrix(0.994582 -0.103951 -0.0104448 0.999945 10.6142 10.293)" fill="white"/>
<ellipse rx="1.63098" ry="4.87347" transform="matrix(0.994582 -0.103951 -0.0104448 0.999945 13.456 10.3145)" fill="white"/>
<ellipse rx="1.63098" ry="4.87347" transform="matrix(0.994582 -0.103951 -0.0104448 0.999945 13.456 10.3145)" fill="white"/>
<ellipse rx="1.63098" ry="4.87347" transform="matrix(0.994582 -0.103951 -0.0104448 0.999945 16.3447 10.3145)" fill="white"/>
<ellipse rx="1.63098" ry="4.87347" transform="matrix(0.994582 -0.103951 -0.0104448 0.999945 16.3447 10.3145)" fill="white"/>
<ellipse rx="1.63098" ry="4.87347" transform="matrix(0.994582 -0.103951 -0.0104448 0.999945 7.95796 5.60795)" fill="white"/>
<ellipse rx="1.63098" ry="4.87347" transform="matrix(0.994582 -0.103951 -0.0104448 0.999945 7.95796 5.60795)" fill="white"/>
<path d="M12.4814 16.9213C8.75363 16.9213 5.5384 14.0323 4.28027 12.6893L4.67635 8.60369C4.67635 8.60369 5.32872 9.16286 5.95778 8.88328C6.14821 8.79865 6.28509 8.62221 6.35386 8.4173C6.49365 8.00077 6.40046 7.32227 6.40046 7.32227C9.51654 8.51926 17.9795 11.2506 17.7702 12.3082C17.5609 13.3658 17.0636 16.9213 12.4814 16.9213Z" fill="white"/>
</svg>
