<svg width="334" height="67" viewBox="0 0 334 67" fill="none" xmlns="http://www.w3.org/2000/svg">
<path d="M125.064 17.4306L117.714 17.4545L111.344 6.91188H97.3975L70.2812 49.3453L77.3202 60.2226L90.717 60.1628L94.5293 66.3664L73.8903 66.4501L62.9434 49.3333L93.9796 0.696289H114.774L125.064 17.4306Z" fill="white"/>
<path d="M73.9635 0L55.1052 29.9185H38.5891L30.5463 17.1526L41.541 0H33.6893L22.7304 17.1168L34.9441 36.5166L50.9463 36.5286L36.4858 59.4665H4.64884L0 66.459H39.8679L81.7793 0H73.9635ZM55.3083 35.907V36.5286H54.9139L55.3083 35.907Z" fill="white"/>
<path d="M54.9136 36.5288H55.308V35.9072L54.9136 36.5288Z" fill="white"/>
<path d="M55.308 35.9072V36.5288H54.9136L55.308 35.9072Z" fill="white"/>
<path d="M54.9136 36.5288H55.308V35.9072L54.9136 36.5288Z" fill="white"/>
<path d="M224.591 0L205.733 29.9185H189.217L181.174 17.1526L192.169 0H184.317L173.358 17.1168L185.572 36.5166L201.574 36.5286L187.114 59.4665H155.277L150.628 66.459H190.496L232.407 0H224.591ZM205.936 35.907V36.5286H205.542L205.936 35.907Z" fill="white"/>
<path d="M205.542 36.5288H205.936V35.9072L205.542 36.5288Z" fill="white"/>
<path d="M205.936 35.9072V36.5288H205.542L205.936 35.9072Z" fill="white"/>
<path d="M205.542 36.5288H205.936V35.9072L205.542 36.5288Z" fill="white"/>
<path d="M274.865 1.37402L270.993 7.9004L250.413 7.91235L213.139 66.4585H205.431L246.816 1.38598L274.865 1.37402Z" fill="white"/>
<path d="M334 1.37402L295.926 66.2881H288.408L308.877 29.7221L275.929 66.2052L247.812 66.0987L285.827 1.65821H293.404L259.947 59.657L273.088 59.6807L326.802 1.37402H334Z" fill="white"/>
<path d="M169.453 1.21289L128.679 66.3401H120.972L143.134 30.9346L109.89 66.3401H100.94L162.089 1.21289H169.453Z" fill="white"/>
</svg>
