<svg width="258" height="900" viewBox="0 0 258 900" fill="none" xmlns="http://www.w3.org/2000/svg">
<rect x="91" y="78" width="89" height="452" fill="#0019A8"/>
<ellipse rx="35.0015" ry="104.587" transform="matrix(0.922799 0.385283 -0.488264 0.872696 83.3653 104.758)" fill="#0019A8"/>
<ellipse rx="35.0015" ry="104.587" transform="matrix(0.922799 0.385283 -0.488264 0.872696 83.3653 104.758)" fill="#0019A8"/>
<ellipse rx="35.0015" ry="104.587" transform="matrix(0.922799 0.385283 -0.488264 0.872696 83.3653 219.496)" fill="#0019A8"/>
<ellipse rx="35.0015" ry="104.587" transform="matrix(0.922799 0.385283 -0.488264 0.872696 83.3653 219.496)" fill="#0019A8"/>
<ellipse rx="35.0015" ry="104.587" transform="matrix(0.922799 0.385283 -0.488264 0.872696 83.3653 337.151)" fill="#0019A8"/>
<ellipse rx="35.0015" ry="104.587" transform="matrix(0.922799 0.385283 -0.488264 0.872696 83.3653 337.151)" fill="#0019A8"/>
<ellipse rx="35.0015" ry="104.587" transform="matrix(0.922799 0.385283 -0.488264 0.872696 83.3653 451.657)" fill="#0019A8"/>
<ellipse rx="35.0015" ry="104.587" transform="matrix(0.922799 0.385283 -0.488264 0.872696 83.3653 451.657)" fill="#0019A8"/>
<ellipse rx="35.0015" ry="104.587" transform="matrix(0.922799 0.385283 -0.488264 0.872696 83.3653 569.313)" fill="#0019A8"/>
<ellipse rx="35.0015" ry="104.587" transform="matrix(0.922799 0.385283 -0.488264 0.872696 83.3653 569.313)" fill="#0019A8"/>
<ellipse rx="35.0015" ry="104.587" transform="matrix(-0.922799 0.385283 0.488264 0.872696 174.635 104.758)" fill="#0019A8"/>
<ellipse rx="35.0015" ry="104.587" transform="matrix(-0.922799 0.385283 0.488264 0.872696 174.635 104.758)" fill="#0019A8"/>
<ellipse rx="35.0015" ry="104.587" transform="matrix(-0.922799 0.385283 0.488264 0.872696 174.635 219.496)" fill="#0019A8"/>
<ellipse rx="35.0015" ry="104.587" transform="matrix(-0.922799 0.385283 0.488264 0.872696 174.635 219.496)" fill="#0019A8"/>
<ellipse rx="35.0015" ry="104.587" transform="matrix(-0.922799 0.385283 0.488264 0.872696 174.635 337.151)" fill="#0019A8"/>
<ellipse rx="35.0015" ry="104.587" transform="matrix(-0.922799 0.385283 0.488264 0.872696 174.635 337.151)" fill="#0019A8"/>
<ellipse rx="35.0015" ry="104.587" transform="matrix(-0.922799 0.385283 0.488264 0.872696 174.635 451.657)" fill="#0019A8"/>
<ellipse rx="35.0015" ry="104.587" transform="matrix(-0.922799 0.385283 0.488264 0.872696 174.635 451.657)" fill="#0019A8"/>
<ellipse rx="35.0015" ry="104.587" transform="matrix(-0.922799 0.385283 0.488264 0.872696 174.635 569.313)" fill="#0019A8"/>
<ellipse rx="35.0015" ry="104.587" transform="matrix(-0.922799 0.385283 0.488264 0.872696 174.635 569.313)" fill="#0019A8"/>
<rect x="119" y="547" width="17" height="353" fill="#0019A8"/>
</svg>
