<svg width="173" height="2016" viewBox="0 0 173 2016" fill="none" xmlns="http://www.w3.org/2000/svg">
<rect x="77" y="1884" width="18" height="133" fill="#0019A8"/>
<path d="M87.2522 1741C59.171 1808.59 17.3836 1834.49 0 1839H173C124.059 1824.58 95.4425 1767.66 87.2522 1741Z" fill="#0019A8"/>
<path d="M87.2522 1351C59.171 1418.59 17.3836 1444.49 0 1449H173C124.059 1434.58 95.4425 1377.66 87.2522 1351Z" fill="#0019A8"/>
<path d="M87.2522 964C59.171 1031.59 17.3836 1057.49 0 1062H173C124.059 1047.58 95.4425 990.659 87.2522 964Z" fill="#0019A8"/>
<path d="M87.2522 579C59.171 646.586 17.3836 672.494 0 677H173C124.059 662.582 95.4425 605.659 87.2522 579Z" fill="#0019A8"/>
<path d="M87.2522 196C59.171 263.586 17.3836 289.494 0 294H173C124.059 279.582 95.4425 222.659 87.2522 196Z" fill="#0019A8"/>
<path d="M87.2522 1643C59.171 1710.59 17.3836 1736.49 0 1741H173C124.059 1726.58 95.4425 1669.66 87.2522 1643Z" fill="#0019A8"/>
<path d="M87.2522 1253C59.171 1320.59 17.3836 1346.49 0 1351H173C124.059 1336.58 95.4425 1279.66 87.2522 1253Z" fill="#0019A8"/>
<path d="M87.2522 866C59.171 933.586 17.3836 959.494 0 964H173C124.059 949.582 95.4425 892.659 87.2522 866Z" fill="#0019A8"/>
<path d="M87.2522 481C59.171 548.586 17.3836 574.494 0 579H173C124.059 564.582 95.4425 507.659 87.2522 481Z" fill="#0019A8"/>
<path d="M87.2522 98C59.171 165.586 17.3836 191.494 0 196H173C124.059 181.582 95.4425 124.659 87.2522 98Z" fill="#0019A8"/>
<path d="M87.2522 1545C59.171 1612.59 17.3836 1638.49 0 1643H173C124.059 1628.58 95.4425 1571.66 87.2522 1545Z" fill="#0019A8"/>
<path d="M87.2522 1155C59.171 1222.59 17.3836 1248.49 0 1253H173C124.059 1238.58 95.4425 1181.66 87.2522 1155Z" fill="#0019A8"/>
<path d="M87.2522 768C59.171 835.586 17.3836 861.494 0 866H173C124.059 851.582 95.4425 794.659 87.2522 768Z" fill="#0019A8"/>
<path d="M87.2522 383C59.171 450.586 17.3836 476.494 0 481H173C124.059 466.582 95.4425 409.659 87.2522 383Z" fill="#0019A8"/>
<path d="M87.2522 0C59.171 67.5862 17.3836 93.4943 0 98H173C124.059 83.5816 95.4425 26.659 87.2522 0Z" fill="#0019A8"/>
<path d="M87.2522 1839C59.171 1905.21 17.3836 1930.59 0 1935H173C124.059 1920.88 95.4425 1865.11 87.2522 1839Z" fill="#0019A8"/>
<path d="M87.2522 1449C59.171 1515.21 17.3836 1540.59 0 1545H173C124.059 1530.88 95.4425 1475.11 87.2522 1449Z" fill="#0019A8"/>
<path d="M87.2522 1062C59.171 1128.21 17.3836 1153.59 0 1158H173C124.059 1143.88 95.4425 1088.11 87.2522 1062Z" fill="#0019A8"/>
<path d="M87.2522 677C59.171 743.207 17.3836 768.586 0 773H173C124.059 758.876 95.4425 703.115 87.2522 677Z" fill="#0019A8"/>
<path d="M87.2522 294C59.171 360.207 17.3836 385.586 0 390H173C124.059 375.876 95.4425 320.115 87.2522 294Z" fill="#0019A8"/>
</svg>
