<svg width="258" height="786" viewBox="0 0 258 786" fill="none" xmlns="http://www.w3.org/2000/svg">
<ellipse rx="35.0015" ry="104.587" transform="matrix(0.922799 0.385283 -0.488264 0.872696 83.3653 105.496)" fill="#0019A8"/>
<ellipse rx="35.0015" ry="104.587" transform="matrix(0.922799 0.385283 -0.488264 0.872696 83.3653 105.496)" fill="#0019A8"/>
<ellipse rx="35.0015" ry="104.587" transform="matrix(0.922799 0.385283 -0.488264 0.872696 83.3653 223.151)" fill="#0019A8"/>
<ellipse rx="35.0015" ry="104.587" transform="matrix(0.922799 0.385283 -0.488264 0.872696 83.3653 223.151)" fill="#0019A8"/>
<ellipse rx="35.0015" ry="104.587" transform="matrix(0.922799 0.385283 -0.488264 0.872696 83.3653 337.657)" fill="#0019A8"/>
<ellipse rx="35.0015" ry="104.587" transform="matrix(0.922799 0.385283 -0.488264 0.872696 83.3653 337.657)" fill="#0019A8"/>
<ellipse rx="35.0015" ry="104.587" transform="matrix(0.922799 0.385283 -0.488264 0.872696 83.3653 455.313)" fill="#0019A8"/>
<ellipse rx="35.0015" ry="104.587" transform="matrix(0.922799 0.385283 -0.488264 0.872696 83.3653 455.313)" fill="#0019A8"/>
<ellipse rx="35.0015" ry="104.587" transform="matrix(-0.922799 0.385283 0.488264 0.872696 174.635 105.496)" fill="#0019A8"/>
<ellipse rx="35.0015" ry="104.587" transform="matrix(-0.922799 0.385283 0.488264 0.872696 174.635 105.496)" fill="#0019A8"/>
<ellipse rx="35.0015" ry="104.587" transform="matrix(-0.922799 0.385283 0.488264 0.872696 174.635 223.151)" fill="#0019A8"/>
<ellipse rx="35.0015" ry="104.587" transform="matrix(-0.922799 0.385283 0.488264 0.872696 174.635 223.151)" fill="#0019A8"/>
<ellipse rx="35.0015" ry="104.587" transform="matrix(-0.922799 0.385283 0.488264 0.872696 174.635 337.657)" fill="#0019A8"/>
<ellipse rx="35.0015" ry="104.587" transform="matrix(-0.922799 0.385283 0.488264 0.872696 174.635 337.657)" fill="#0019A8"/>
<ellipse rx="35.0015" ry="104.587" transform="matrix(-0.922799 0.385283 0.488264 0.872696 174.635 455.313)" fill="#0019A8"/>
<ellipse rx="35.0015" ry="104.587" transform="matrix(-0.922799 0.385283 0.488264 0.872696 174.635 455.313)" fill="#0019A8"/>
<rect x="119" y="59" width="17" height="727" fill="#0019A8"/>
<rect x="83" y="85" width="92" height="357" fill="#0019A8"/>
</svg>
