<svg width="258" height="1753" viewBox="0 0 258 1753" fill="none" xmlns="http://www.w3.org/2000/svg">
<rect x="91" y="895" width="89" height="452" fill="#33AF00"/>
<rect x="91" y="431" width="89" height="452" fill="#33AF00"/>
<rect x="91" y="196" width="89" height="224" fill="#33AF00"/>
<rect x="91" y="78.2617" width="89" height="224" fill="#33AF00"/>
<ellipse rx="35.0015" ry="104.587" transform="matrix(0.922799 0.385283 -0.488264 0.872696 83.3653 921.758)" fill="#33AF00"/>
<ellipse rx="35.0015" ry="104.587" transform="matrix(0.922799 0.385283 -0.488264 0.872696 83.3653 921.758)" fill="#33AF00"/>
<ellipse rx="35.0015" ry="104.587" transform="matrix(0.922799 0.385283 -0.488264 0.872696 83.3653 571.758)" fill="#33AF00"/>
<ellipse rx="35.0015" ry="104.587" transform="matrix(0.922799 0.385283 -0.488264 0.872696 83.3653 571.758)" fill="#33AF00"/>
<ellipse rx="35.0015" ry="104.587" transform="matrix(0.922799 0.385283 -0.488264 0.872696 83.3653 457.758)" fill="#33AF00"/>
<ellipse rx="35.0015" ry="104.587" transform="matrix(0.922799 0.385283 -0.488264 0.872696 83.3653 457.758)" fill="#33AF00"/>
<ellipse rx="35.0015" ry="104.587" transform="matrix(0.922799 0.385283 -0.488264 0.872696 83.3653 1036.5)" fill="#33AF00"/>
<ellipse rx="35.0015" ry="104.587" transform="matrix(0.922799 0.385283 -0.488264 0.872696 83.3653 1036.5)" fill="#33AF00"/>
<ellipse rx="35.0015" ry="104.587" transform="matrix(0.922799 0.385283 -0.488264 0.872696 83.3653 222.496)" fill="#33AF00"/>
<ellipse rx="35.0015" ry="104.587" transform="matrix(0.922799 0.385283 -0.488264 0.872696 83.3653 222.496)" fill="#33AF00"/>
<ellipse rx="35.0015" ry="104.587" transform="matrix(0.922799 0.385283 -0.488264 0.872696 83.3653 104.758)" fill="#33AF00"/>
<ellipse rx="35.0015" ry="104.587" transform="matrix(0.922799 0.385283 -0.488264 0.872696 83.3653 104.758)" fill="#33AF00"/>
<ellipse rx="35.0015" ry="104.587" transform="matrix(0.922799 0.385283 -0.488264 0.872696 83.3653 1154.15)" fill="#33AF00"/>
<ellipse rx="35.0015" ry="104.587" transform="matrix(0.922799 0.385283 -0.488264 0.872696 83.3653 1154.15)" fill="#33AF00"/>
<ellipse rx="35.0015" ry="104.587" transform="matrix(0.922799 0.385283 -0.488264 0.872696 83.3653 690.151)" fill="#33AF00"/>
<ellipse rx="35.0015" ry="104.587" transform="matrix(0.922799 0.385283 -0.488264 0.872696 83.3653 690.151)" fill="#33AF00"/>
<ellipse rx="35.0015" ry="104.587" transform="matrix(0.922799 0.385283 -0.488264 0.872696 83.3653 340.151)" fill="#33AF00"/>
<ellipse rx="35.0015" ry="104.587" transform="matrix(0.922799 0.385283 -0.488264 0.872696 83.3653 340.151)" fill="#33AF00"/>
<ellipse rx="35.0015" ry="104.587" transform="matrix(0.922799 0.385283 -0.488264 0.872696 83.3653 1268.66)" fill="#33AF00"/>
<ellipse rx="35.0015" ry="104.587" transform="matrix(0.922799 0.385283 -0.488264 0.872696 83.3653 1268.66)" fill="#33AF00"/>
<ellipse rx="35.0015" ry="104.587" transform="matrix(0.922799 0.385283 -0.488264 0.872696 83.3653 804.656)" fill="#33AF00"/>
<ellipse rx="35.0015" ry="104.587" transform="matrix(0.922799 0.385283 -0.488264 0.872696 83.3653 804.656)" fill="#33AF00"/>
<ellipse rx="35.0015" ry="104.587" transform="matrix(0.922799 0.385283 -0.488264 0.872696 83.3653 1386.31)" fill="#33AF00"/>
<ellipse rx="35.0015" ry="104.587" transform="matrix(0.922799 0.385283 -0.488264 0.872696 83.3653 1386.31)" fill="#33AF00"/>
<ellipse rx="35.0015" ry="104.587" transform="matrix(-0.922799 0.385283 0.488264 0.872696 174.636 921.758)" fill="#33AF00"/>
<ellipse rx="35.0015" ry="104.587" transform="matrix(-0.922799 0.385283 0.488264 0.872696 174.636 921.758)" fill="#33AF00"/>
<ellipse rx="35.0015" ry="104.587" transform="matrix(-0.922799 0.385283 0.488264 0.872696 174.636 571.758)" fill="#33AF00"/>
<ellipse rx="35.0015" ry="104.587" transform="matrix(-0.922799 0.385283 0.488264 0.872696 174.636 571.758)" fill="#33AF00"/>
<ellipse rx="35.0015" ry="104.587" transform="matrix(-0.922799 0.385283 0.488264 0.872696 174.636 457.758)" fill="#33AF00"/>
<ellipse rx="35.0015" ry="104.587" transform="matrix(-0.922799 0.385283 0.488264 0.872696 174.636 457.758)" fill="#33AF00"/>
<ellipse rx="35.0015" ry="104.587" transform="matrix(-0.922799 0.385283 0.488264 0.872696 174.636 1036.5)" fill="#33AF00"/>
<ellipse rx="35.0015" ry="104.587" transform="matrix(-0.922799 0.385283 0.488264 0.872696 174.636 1036.5)" fill="#33AF00"/>
<ellipse rx="35.0015" ry="104.587" transform="matrix(-0.922799 0.385283 0.488264 0.872696 174.636 222.496)" fill="#33AF00"/>
<ellipse rx="35.0015" ry="104.587" transform="matrix(-0.922799 0.385283 0.488264 0.872696 174.636 222.496)" fill="#33AF00"/>
<ellipse rx="35.0015" ry="104.587" transform="matrix(-0.922799 0.385283 0.488264 0.872696 174.636 104.758)" fill="#33AF00"/>
<ellipse rx="35.0015" ry="104.587" transform="matrix(-0.922799 0.385283 0.488264 0.872696 174.636 104.758)" fill="#33AF00"/>
<ellipse rx="35.0015" ry="104.587" transform="matrix(-0.922799 0.385283 0.488264 0.872696 174.636 1154.15)" fill="#33AF00"/>
<ellipse rx="35.0015" ry="104.587" transform="matrix(-0.922799 0.385283 0.488264 0.872696 174.636 1154.15)" fill="#33AF00"/>
<ellipse rx="35.0015" ry="104.587" transform="matrix(-0.922799 0.385283 0.488264 0.872696 174.636 690.151)" fill="#33AF00"/>
<ellipse rx="35.0015" ry="104.587" transform="matrix(-0.922799 0.385283 0.488264 0.872696 174.636 690.151)" fill="#33AF00"/>
<ellipse rx="35.0015" ry="104.587" transform="matrix(-0.922799 0.385283 0.488264 0.872696 174.636 340.151)" fill="#33AF00"/>
<ellipse rx="35.0015" ry="104.587" transform="matrix(-0.922799 0.385283 0.488264 0.872696 174.636 340.151)" fill="#33AF00"/>
<ellipse rx="35.0015" ry="104.587" transform="matrix(-0.922799 0.385283 0.488264 0.872696 174.636 1268.66)" fill="#33AF00"/>
<ellipse rx="35.0015" ry="104.587" transform="matrix(-0.922799 0.385283 0.488264 0.872696 174.636 1268.66)" fill="#33AF00"/>
<ellipse rx="35.0015" ry="104.587" transform="matrix(-0.922799 0.385283 0.488264 0.872696 174.636 804.656)" fill="#33AF00"/>
<ellipse rx="35.0015" ry="104.587" transform="matrix(-0.922799 0.385283 0.488264 0.872696 174.636 804.656)" fill="#33AF00"/>
<ellipse rx="35.0015" ry="104.587" transform="matrix(-0.922799 0.385283 0.488264 0.872696 174.636 1386.31)" fill="#33AF00"/>
<ellipse rx="35.0015" ry="104.587" transform="matrix(-0.922799 0.385283 0.488264 0.872696 174.636 1386.31)" fill="#33AF00"/>
<rect x="119" y="1363.79" width="17" height="389.207" fill="#33AF00"/>
</svg>
