<svg width="258" height="1753" viewBox="0 0 258 1753" fill="none" xmlns="http://www.w3.org/2000/svg">
<rect x="90.999" y="895" width="89" height="452" fill="#0019A8"/>
<rect x="90.999" y="431" width="89" height="452" fill="#0019A8"/>
<rect x="90.999" y="196" width="89" height="224" fill="#0019A8"/>
<rect x="90.999" y="78.2617" width="89" height="224" fill="#0019A8"/>
<ellipse rx="35.0015" ry="104.587" transform="matrix(0.922799 0.385283 -0.488264 0.872696 83.3643 921.758)" fill="#0019A8"/>
<ellipse rx="35.0015" ry="104.587" transform="matrix(0.922799 0.385283 -0.488264 0.872696 83.3643 921.758)" fill="#0019A8"/>
<ellipse rx="35.0015" ry="104.587" transform="matrix(0.922799 0.385283 -0.488264 0.872696 83.3643 571.758)" fill="#0019A8"/>
<ellipse rx="35.0015" ry="104.587" transform="matrix(0.922799 0.385283 -0.488264 0.872696 83.3643 571.758)" fill="#0019A8"/>
<ellipse rx="35.0015" ry="104.587" transform="matrix(0.922799 0.385283 -0.488264 0.872696 83.3643 457.758)" fill="#0019A8"/>
<ellipse rx="35.0015" ry="104.587" transform="matrix(0.922799 0.385283 -0.488264 0.872696 83.3643 457.758)" fill="#0019A8"/>
<ellipse rx="35.0015" ry="104.587" transform="matrix(0.922799 0.385283 -0.488264 0.872696 83.3643 1036.5)" fill="#0019A8"/>
<ellipse rx="35.0015" ry="104.587" transform="matrix(0.922799 0.385283 -0.488264 0.872696 83.3643 1036.5)" fill="#0019A8"/>
<ellipse rx="35.0015" ry="104.587" transform="matrix(0.922799 0.385283 -0.488264 0.872696 83.3643 222.496)" fill="#0019A8"/>
<ellipse rx="35.0015" ry="104.587" transform="matrix(0.922799 0.385283 -0.488264 0.872696 83.3643 222.496)" fill="#0019A8"/>
<ellipse rx="35.0015" ry="104.587" transform="matrix(0.922799 0.385283 -0.488264 0.872696 83.3643 104.758)" fill="#0019A8"/>
<ellipse rx="35.0015" ry="104.587" transform="matrix(0.922799 0.385283 -0.488264 0.872696 83.3643 104.758)" fill="#0019A8"/>
<ellipse rx="35.0015" ry="104.587" transform="matrix(0.922799 0.385283 -0.488264 0.872696 83.3643 1154.15)" fill="#0019A8"/>
<ellipse rx="35.0015" ry="104.587" transform="matrix(0.922799 0.385283 -0.488264 0.872696 83.3643 1154.15)" fill="#0019A8"/>
<ellipse rx="35.0015" ry="104.587" transform="matrix(0.922799 0.385283 -0.488264 0.872696 83.3643 690.151)" fill="#0019A8"/>
<ellipse rx="35.0015" ry="104.587" transform="matrix(0.922799 0.385283 -0.488264 0.872696 83.3643 690.151)" fill="#0019A8"/>
<ellipse rx="35.0015" ry="104.587" transform="matrix(0.922799 0.385283 -0.488264 0.872696 83.3643 340.151)" fill="#0019A8"/>
<ellipse rx="35.0015" ry="104.587" transform="matrix(0.922799 0.385283 -0.488264 0.872696 83.3643 340.151)" fill="#0019A8"/>
<ellipse rx="35.0015" ry="104.587" transform="matrix(0.922799 0.385283 -0.488264 0.872696 83.3643 1268.66)" fill="#0019A8"/>
<ellipse rx="35.0015" ry="104.587" transform="matrix(0.922799 0.385283 -0.488264 0.872696 83.3643 1268.66)" fill="#0019A8"/>
<ellipse rx="35.0015" ry="104.587" transform="matrix(0.922799 0.385283 -0.488264 0.872696 83.3643 804.656)" fill="#0019A8"/>
<ellipse rx="35.0015" ry="104.587" transform="matrix(0.922799 0.385283 -0.488264 0.872696 83.3643 804.656)" fill="#0019A8"/>
<ellipse rx="35.0015" ry="104.587" transform="matrix(0.922799 0.385283 -0.488264 0.872696 83.3643 1386.31)" fill="#0019A8"/>
<ellipse rx="35.0015" ry="104.587" transform="matrix(0.922799 0.385283 -0.488264 0.872696 83.3643 1386.31)" fill="#0019A8"/>
<ellipse rx="35.0015" ry="104.587" transform="matrix(-0.922799 0.385283 0.488264 0.872696 174.635 921.758)" fill="#0019A8"/>
<ellipse rx="35.0015" ry="104.587" transform="matrix(-0.922799 0.385283 0.488264 0.872696 174.635 921.758)" fill="#0019A8"/>
<ellipse rx="35.0015" ry="104.587" transform="matrix(-0.922799 0.385283 0.488264 0.872696 174.635 571.758)" fill="#0019A8"/>
<ellipse rx="35.0015" ry="104.587" transform="matrix(-0.922799 0.385283 0.488264 0.872696 174.635 571.758)" fill="#0019A8"/>
<ellipse rx="35.0015" ry="104.587" transform="matrix(-0.922799 0.385283 0.488264 0.872696 174.635 457.758)" fill="#0019A8"/>
<ellipse rx="35.0015" ry="104.587" transform="matrix(-0.922799 0.385283 0.488264 0.872696 174.635 457.758)" fill="#0019A8"/>
<ellipse rx="35.0015" ry="104.587" transform="matrix(-0.922799 0.385283 0.488264 0.872696 174.635 1036.5)" fill="#0019A8"/>
<ellipse rx="35.0015" ry="104.587" transform="matrix(-0.922799 0.385283 0.488264 0.872696 174.635 1036.5)" fill="#0019A8"/>
<ellipse rx="35.0015" ry="104.587" transform="matrix(-0.922799 0.385283 0.488264 0.872696 174.635 222.496)" fill="#0019A8"/>
<ellipse rx="35.0015" ry="104.587" transform="matrix(-0.922799 0.385283 0.488264 0.872696 174.635 222.496)" fill="#0019A8"/>
<ellipse rx="35.0015" ry="104.587" transform="matrix(-0.922799 0.385283 0.488264 0.872696 174.635 104.758)" fill="#0019A8"/>
<ellipse rx="35.0015" ry="104.587" transform="matrix(-0.922799 0.385283 0.488264 0.872696 174.635 104.758)" fill="#0019A8"/>
<ellipse rx="35.0015" ry="104.587" transform="matrix(-0.922799 0.385283 0.488264 0.872696 174.635 1154.15)" fill="#0019A8"/>
<ellipse rx="35.0015" ry="104.587" transform="matrix(-0.922799 0.385283 0.488264 0.872696 174.635 1154.15)" fill="#0019A8"/>
<ellipse rx="35.0015" ry="104.587" transform="matrix(-0.922799 0.385283 0.488264 0.872696 174.635 690.151)" fill="#0019A8"/>
<ellipse rx="35.0015" ry="104.587" transform="matrix(-0.922799 0.385283 0.488264 0.872696 174.635 690.151)" fill="#0019A8"/>
<ellipse rx="35.0015" ry="104.587" transform="matrix(-0.922799 0.385283 0.488264 0.872696 174.635 340.151)" fill="#0019A8"/>
<ellipse rx="35.0015" ry="104.587" transform="matrix(-0.922799 0.385283 0.488264 0.872696 174.635 340.151)" fill="#0019A8"/>
<ellipse rx="35.0015" ry="104.587" transform="matrix(-0.922799 0.385283 0.488264 0.872696 174.635 1268.66)" fill="#0019A8"/>
<ellipse rx="35.0015" ry="104.587" transform="matrix(-0.922799 0.385283 0.488264 0.872696 174.635 1268.66)" fill="#0019A8"/>
<ellipse rx="35.0015" ry="104.587" transform="matrix(-0.922799 0.385283 0.488264 0.872696 174.635 804.656)" fill="#0019A8"/>
<ellipse rx="35.0015" ry="104.587" transform="matrix(-0.922799 0.385283 0.488264 0.872696 174.635 804.656)" fill="#0019A8"/>
<ellipse rx="35.0015" ry="104.587" transform="matrix(-0.922799 0.385283 0.488264 0.872696 174.635 1386.31)" fill="#0019A8"/>
<ellipse rx="35.0015" ry="104.587" transform="matrix(-0.922799 0.385283 0.488264 0.872696 174.635 1386.31)" fill="#0019A8"/>
<rect x="118.999" y="1363.79" width="17" height="389.207" fill="#0019A8"/>
</svg>
