<svg width="173" height="2017" viewBox="0 0 173 2017" fill="none" xmlns="http://www.w3.org/2000/svg">
<rect x="77.001" y="1884" width="18" height="133" fill="#33AF00"/>
<path d="M87.2532 1741C59.172 1808.59 17.3846 1834.49 0.000976562 1839H173.001C124.06 1824.58 95.4435 1767.66 87.2532 1741Z" fill="#33AF00"/>
<path d="M87.2532 1351C59.172 1418.59 17.3846 1444.49 0.000976562 1449H173.001C124.06 1434.58 95.4435 1377.66 87.2532 1351Z" fill="#33AF00"/>
<path d="M87.2532 964C59.172 1031.59 17.3846 1057.49 0.000976562 1062H173.001C124.06 1047.58 95.4435 990.659 87.2532 964Z" fill="#33AF00"/>
<path d="M87.2532 579C59.172 646.586 17.3846 672.494 0.000976562 677H173.001C124.06 662.582 95.4435 605.659 87.2532 579Z" fill="#33AF00"/>
<path d="M87.2532 196C59.172 263.586 17.3846 289.494 0.000976562 294H173.001C124.06 279.582 95.4435 222.659 87.2532 196Z" fill="#33AF00"/>
<path d="M87.2532 1643C59.172 1710.59 17.3846 1736.49 0.000976562 1741H173.001C124.06 1726.58 95.4435 1669.66 87.2532 1643Z" fill="#33AF00"/>
<path d="M87.2532 1253C59.172 1320.59 17.3846 1346.49 0.000976562 1351H173.001C124.06 1336.58 95.4435 1279.66 87.2532 1253Z" fill="#33AF00"/>
<path d="M87.2532 866C59.172 933.586 17.3846 959.494 0.000976562 964H173.001C124.06 949.582 95.4435 892.659 87.2532 866Z" fill="#33AF00"/>
<path d="M87.2532 481C59.172 548.586 17.3846 574.494 0.000976562 579H173.001C124.06 564.582 95.4435 507.659 87.2532 481Z" fill="#33AF00"/>
<path d="M87.2532 98C59.172 165.586 17.3846 191.494 0.000976562 196H173.001C124.06 181.582 95.4435 124.659 87.2532 98Z" fill="#33AF00"/>
<path d="M87.2532 1545C59.172 1612.59 17.3846 1638.49 0.000976562 1643H173.001C124.06 1628.58 95.4435 1571.66 87.2532 1545Z" fill="#33AF00"/>
<path d="M87.2532 1155C59.172 1222.59 17.3846 1248.49 0.000976562 1253H173.001C124.06 1238.58 95.4435 1181.66 87.2532 1155Z" fill="#33AF00"/>
<path d="M87.2532 768C59.172 835.586 17.3846 861.494 0.000976562 866H173.001C124.06 851.582 95.4435 794.659 87.2532 768Z" fill="#33AF00"/>
<path d="M87.2532 383C59.172 450.586 17.3846 476.494 0.000976562 481H173.001C124.06 466.582 95.4435 409.659 87.2532 383Z" fill="#33AF00"/>
<path d="M87.2532 0C59.172 67.5862 17.3846 93.4943 0.000976562 98H173.001C124.06 83.5816 95.4435 26.659 87.2532 0Z" fill="#33AF00"/>
<path d="M87.2532 1839C59.172 1905.21 17.3846 1930.59 0.000976562 1935H173.001C124.06 1920.88 95.4435 1865.11 87.2532 1839Z" fill="#33AF00"/>
<path d="M87.2532 1449C59.172 1515.21 17.3846 1540.59 0.000976562 1545H173.001C124.06 1530.88 95.4435 1475.11 87.2532 1449Z" fill="#33AF00"/>
<path d="M87.2532 1062C59.172 1128.21 17.3846 1153.59 0.000976562 1158H173.001C124.06 1143.88 95.4435 1088.11 87.2532 1062Z" fill="#33AF00"/>
<path d="M87.2532 677C59.172 743.207 17.3846 768.586 0.000976562 773H173.001C124.06 758.876 95.4435 703.115 87.2532 677Z" fill="#33AF00"/>
<path d="M87.2532 294C59.172 360.207 17.3846 385.586 0.000976562 390H173.001C124.06 375.876 95.4435 320.115 87.2532 294Z" fill="#33AF00"/>
</svg>
